<svg width="312" height="229" viewBox="0 0 312 229" fill="none" xmlns="http://www.w3.org/2000/svg">
<path d="M277.408 171.544H164.682C163.713 171.542 162.784 171.157 162.099 170.471C161.414 169.786 161.028 168.857 161.027 167.889V3.65545C161.03 2.68755 161.416 1.76033 162.101 1.07651C162.786 0.392681 163.714 0.00788413 164.682 0.00624084H277.408C278.376 0.00788413 279.304 0.392681 279.989 1.07651C280.674 1.76033 281.061 2.68755 281.064 3.65545V167.889C281.062 168.857 280.677 169.786 279.991 170.471C279.306 171.157 278.377 171.542 277.408 171.544ZM164.682 0.16219C164.221 0.158901 163.764 0.246782 163.337 0.420785C162.91 0.594788 162.521 0.851481 162.194 1.17611C161.866 1.50073 161.606 1.88689 161.428 2.31238C161.251 2.73787 161.159 3.19431 161.158 3.65545V167.889C161.158 168.817 161.526 169.707 162.183 170.363C162.839 171.019 163.729 171.388 164.657 171.388H277.408C278.337 171.388 279.227 171.019 279.883 170.363C280.539 169.707 280.908 168.817 280.908 167.889V3.65545C280.908 2.72732 280.539 1.83722 279.883 1.18093C279.227 0.524649 278.337 0.155951 277.408 0.155951L164.682 0.16219Z" fill="#F0F0F0"/>
<path d="M147.391 171.544H34.6394C33.6705 171.542 32.7416 171.157 32.0565 170.471C31.3713 169.786 30.9856 168.857 30.984 167.889V3.65545C30.9856 2.68647 31.3713 1.75765 32.0565 1.07248C32.7416 0.387306 33.6705 0.00164933 34.6394 0H147.391C148.36 0.00164933 149.288 0.387306 149.974 1.07248C150.659 1.75765 151.044 2.68647 151.046 3.65545V167.889C151.044 168.857 150.659 169.786 149.974 170.471C149.288 171.157 148.36 171.542 147.391 171.544ZM34.6394 0.162188C33.7124 0.162187 32.8232 0.530027 32.1671 1.18496C31.511 1.8399 31.1416 2.7284 31.1399 3.65545V167.889C31.1399 168.817 31.5086 169.707 32.1649 170.363C32.8212 171.019 33.7113 171.388 34.6394 171.388H147.391C148.319 171.388 149.209 171.019 149.865 170.363C150.521 169.707 150.89 168.817 150.89 167.889V3.65545C150.89 2.72732 150.521 1.83721 149.865 1.18093C149.209 0.524648 148.319 0.155949 147.391 0.155949L34.6394 0.162188Z" fill="#F0F0F0"/>
<path d="M311.898 209.639H0V209.795H311.898V209.639Z" fill="#F0F0F0"/>
<path d="M110.244 123.736V15.2269L36.7791 15.2269V123.736H110.244Z" fill="#F5F5F5"/>
<path d="M107.125 18.3396H39.8918V120.617H107.125V18.3396Z" fill="#FAFAFA"/>
<path d="M66.453 120.605V65.3551H64.1512L60.2088 58.5246L56.6781 52.4176V41.1393H55.8422V52.4176L52.3115 58.5246L48.3691 65.3551H46.0673V120.605H66.453Z" fill="#F5F5F5"/>
<path d="M48.993 51.3073H39.8918V120.599H48.993V51.3073Z" fill="#F5F5F5"/>
<path d="M92.1783 100.737V50.4776L72.2168 58.6805V100.737H92.1783Z" fill="#F5F5F5"/>
<path d="M107.125 65.3551H86.7452V120.599H107.125V65.3551Z" fill="#F0F0F0"/>
<path d="M92.2095 68.7361H89.0468V70.2208H92.2095V68.7361Z" fill="#F5F5F5"/>
<path d="M98.5161 68.7361H95.3535V70.2208H98.5161V68.7361Z" fill="#F5F5F5"/>
<path d="M104.829 68.7361H101.666V70.2208H104.829V68.7361Z" fill="#F5F5F5"/>
<path d="M92.2095 72.404H89.0468V73.8887H92.2095V72.404Z" fill="#F5F5F5"/>
<path d="M98.5161 72.404H95.3535V73.8887H98.5161V72.404Z" fill="#F5F5F5"/>
<path d="M104.829 72.404H101.666V73.8887H104.829V72.404Z" fill="#F5F5F5"/>
<path d="M92.2095 76.0782H89.0468V77.5628H92.2095V76.0782Z" fill="#F5F5F5"/>
<path d="M98.5161 76.0782H95.3535V77.5628H98.5161V76.0782Z" fill="#F5F5F5"/>
<path d="M104.829 76.0782H101.666V77.5628H104.829V76.0782Z" fill="#F5F5F5"/>
<path d="M92.2095 79.7461H89.0468V81.2307H92.2095V79.7461Z" fill="#F5F5F5"/>
<path d="M98.5161 79.7461H95.3535V81.2307H98.5161V79.7461Z" fill="#F5F5F5"/>
<path d="M104.829 79.7461H101.666V81.2307H104.829V79.7461Z" fill="#F5F5F5"/>
<path d="M92.2095 83.4203H89.0468V84.9049H92.2095V83.4203Z" fill="#F5F5F5"/>
<path d="M98.5161 83.4203H95.3535V84.9049H98.5161V83.4203Z" fill="#F5F5F5"/>
<path d="M104.829 83.4203H101.666V84.9049H104.829V83.4203Z" fill="#F5F5F5"/>
<path d="M92.2095 87.0882H89.0468V88.5728H92.2095V87.0882Z" fill="#F5F5F5"/>
<path d="M98.5161 87.0882H95.3535V88.5728H98.5161V87.0882Z" fill="#F5F5F5"/>
<path d="M104.829 87.0882H101.666V88.5728H104.829V87.0882Z" fill="#F5F5F5"/>
<path d="M92.2095 90.7623H89.0468V92.247H92.2095V90.7623Z" fill="#F5F5F5"/>
<path d="M98.5161 90.7623H95.3535V92.247H98.5161V90.7623Z" fill="#F5F5F5"/>
<path d="M104.829 90.7623H101.666V92.247H104.829V90.7623Z" fill="#F5F5F5"/>
<path d="M92.2095 94.4303H89.0468V95.9149H92.2095V94.4303Z" fill="#F5F5F5"/>
<path d="M98.5161 94.4303H95.3535V95.9149H98.5161V94.4303Z" fill="#F5F5F5"/>
<path d="M104.829 94.4303H101.666V95.9149H104.829V94.4303Z" fill="#F5F5F5"/>
<path d="M92.2095 98.1044H89.0468V99.5891H92.2095V98.1044Z" fill="#F5F5F5"/>
<path d="M98.5161 98.1044H95.3535V99.5891H98.5161V98.1044Z" fill="#F5F5F5"/>
<path d="M104.829 98.1044H101.666V99.5891H104.829V98.1044Z" fill="#F5F5F5"/>
<path d="M92.2095 101.772H89.0468V103.257H92.2095V101.772Z" fill="#F5F5F5"/>
<path d="M98.5161 101.772H95.3535V103.257H98.5161V101.772Z" fill="#F5F5F5"/>
<path d="M104.829 101.772H101.666V103.257H104.829V101.772Z" fill="#F5F5F5"/>
<path d="M92.2095 105.44H89.0468V106.925H92.2095V105.44Z" fill="#F5F5F5"/>
<path d="M98.5161 105.44H95.3535V106.925H98.5161V105.44Z" fill="#F5F5F5"/>
<path d="M104.829 105.44H101.666V106.925H104.829V105.44Z" fill="#F5F5F5"/>
<path d="M92.2095 109.114H89.0468V110.599H92.2095V109.114Z" fill="#F5F5F5"/>
<path d="M98.5161 109.114H95.3535V110.599H98.5161V109.114Z" fill="#F5F5F5"/>
<path d="M104.829 109.114H101.666V110.599H104.829V109.114Z" fill="#F5F5F5"/>
<path d="M60.2712 65.3551H39.8918V120.599H60.2712V65.3551Z" fill="#F0F0F0"/>
<path d="M45.3562 68.7361H42.1935V70.2208H45.3562V68.7361Z" fill="#F5F5F5"/>
<path d="M51.6628 68.7361H48.5002V70.2208H51.6628V68.7361Z" fill="#F5F5F5"/>
<path d="M57.9757 68.7361H54.813V70.2208H57.9757V68.7361Z" fill="#F5F5F5"/>
<path d="M45.3562 72.404H42.1935V73.8887H45.3562V72.404Z" fill="#F5F5F5"/>
<path d="M51.6628 72.404H48.5002V73.8887H51.6628V72.404Z" fill="#F5F5F5"/>
<path d="M57.9757 72.404H54.813V73.8887H57.9757V72.404Z" fill="#F5F5F5"/>
<path d="M45.3562 76.0782H42.1935V77.5628H45.3562V76.0782Z" fill="#F5F5F5"/>
<path d="M51.6628 76.0782H48.5002V77.5628H51.6628V76.0782Z" fill="#F5F5F5"/>
<path d="M57.9757 76.0782H54.813V77.5628H57.9757V76.0782Z" fill="#F5F5F5"/>
<path d="M45.3562 79.7461H42.1935V81.2307H45.3562V79.7461Z" fill="#F5F5F5"/>
<path d="M51.6628 79.7461H48.5002V81.2307H51.6628V79.7461Z" fill="#F5F5F5"/>
<path d="M57.9757 79.7461H54.813V81.2307H57.9757V79.7461Z" fill="#F5F5F5"/>
<path d="M45.3562 83.4203H42.1935V84.9049H45.3562V83.4203Z" fill="#F5F5F5"/>
<path d="M51.6628 83.4203H48.5002V84.9049H51.6628V83.4203Z" fill="#F5F5F5"/>
<path d="M57.9757 83.4203H54.813V84.9049H57.9757V83.4203Z" fill="#F5F5F5"/>
<path d="M45.3562 87.0882H42.1935V88.5728H45.3562V87.0882Z" fill="#F5F5F5"/>
<path d="M51.6628 87.0882H48.5002V88.5728H51.6628V87.0882Z" fill="#F5F5F5"/>
<path d="M57.9757 87.0882H54.813V88.5728H57.9757V87.0882Z" fill="#F5F5F5"/>
<path d="M45.3562 90.7623H42.1935V92.247H45.3562V90.7623Z" fill="#F5F5F5"/>
<path d="M51.6628 90.7623H48.5002V92.247H51.6628V90.7623Z" fill="#F5F5F5"/>
<path d="M57.9757 90.7623H54.813V92.247H57.9757V90.7623Z" fill="#F5F5F5"/>
<path d="M45.3562 94.4303H42.1935V95.9149H45.3562V94.4303Z" fill="#F5F5F5"/>
<path d="M51.6628 94.4303H48.5002V95.9149H51.6628V94.4303Z" fill="#F5F5F5"/>
<path d="M57.9757 94.4303H54.813V95.9149H57.9757V94.4303Z" fill="#F5F5F5"/>
<path d="M45.3562 98.1044H42.1935V99.5891H45.3562V98.1044Z" fill="#F5F5F5"/>
<path d="M51.6628 98.1044H48.5002V99.5891H51.6628V98.1044Z" fill="#F5F5F5"/>
<path d="M57.9757 98.1044H54.813V99.5891H57.9757V98.1044Z" fill="#F5F5F5"/>
<path d="M45.3562 101.772H42.1935V103.257H45.3562V101.772Z" fill="#F5F5F5"/>
<path d="M51.6628 101.772H48.5002V103.257H51.6628V101.772Z" fill="#F5F5F5"/>
<path d="M57.9757 101.772H54.813V103.257H57.9757V101.772Z" fill="#F5F5F5"/>
<path d="M45.3562 105.44H42.1935V106.925H45.3562V105.44Z" fill="#F5F5F5"/>
<path d="M51.6628 105.44H48.5002V106.925H51.6628V105.44Z" fill="#F5F5F5"/>
<path d="M57.9757 105.44H54.813V106.925H57.9757V105.44Z" fill="#F5F5F5"/>
<path d="M45.3562 109.114H42.1935V110.599H45.3562V109.114Z" fill="#F5F5F5"/>
<path d="M51.6628 109.114H48.5002V110.599H51.6628V109.114Z" fill="#F5F5F5"/>
<path d="M57.9757 109.114H54.813V110.599H57.9757V109.114Z" fill="#F5F5F5"/>
<path d="M96.9378 65.3551H89.0468L92.9892 58.5246L96.9378 51.6878L100.88 58.5246L104.823 65.3551H96.9378Z" fill="#F0F0F0"/>
<path d="M97.3496 41.1393H96.5137V56.7155H97.3496V41.1393Z" fill="#F0F0F0"/>
<path d="M85.0547 68.7361H63.2094V120.605H85.0547V68.7361Z" fill="#F0F0F0"/>
<path d="M73.0526 66.9645H64.8123V74.0009H73.0526V66.9645Z" fill="#F0F0F0"/>
<path d="M67.7628 66.4405H65.5546V72.7596H67.7628V66.4405Z" fill="#F0F0F0"/>
<path d="M72.3603 66.4405H70.152V72.7596H72.3603V66.4405Z" fill="#F0F0F0"/>
<path d="M83.6573 66.9895H78.7481V71.8987H83.6573V66.9895Z" fill="#F0F0F0"/>
<path d="M69.5781 73.1463H66.4155V74.631H69.5781V73.1463Z" fill="#F5F5F5"/>
<path d="M75.8848 73.1463H72.7221V74.631H75.8848V73.1463Z" fill="#F5F5F5"/>
<path d="M82.1976 73.1463H79.035V74.631H82.1976V73.1463Z" fill="#F5F5F5"/>
<path d="M69.5781 76.8205H66.4155V78.3051H69.5781V76.8205Z" fill="#F5F5F5"/>
<path d="M75.8848 76.8205H72.7221V78.3051H75.8848V76.8205Z" fill="#F5F5F5"/>
<path d="M82.1976 76.8205H79.035V78.3051H82.1976V76.8205Z" fill="#F5F5F5"/>
<path d="M69.5781 80.4884H66.4155V81.9731H69.5781V80.4884Z" fill="#F5F5F5"/>
<path d="M75.8848 80.4884H72.7221V81.9731H75.8848V80.4884Z" fill="#F5F5F5"/>
<path d="M82.1976 80.4884H79.035V81.9731H82.1976V80.4884Z" fill="#F5F5F5"/>
<path d="M69.5781 84.1626H66.4155V85.6472H69.5781V84.1626Z" fill="#F5F5F5"/>
<path d="M75.8848 84.1626H72.7221V85.6472H75.8848V84.1626Z" fill="#F5F5F5"/>
<path d="M82.1976 84.1626H79.035V85.6472H82.1976V84.1626Z" fill="#F5F5F5"/>
<path d="M69.5781 87.8305H66.4155V89.3151H69.5781V87.8305Z" fill="#F5F5F5"/>
<path d="M75.8848 87.8305H72.7221V89.3151H75.8848V87.8305Z" fill="#F5F5F5"/>
<path d="M82.1976 87.8305H79.035V89.3151H82.1976V87.8305Z" fill="#F5F5F5"/>
<path d="M69.5781 91.5047H66.4155V92.9893H69.5781V91.5047Z" fill="#F5F5F5"/>
<path d="M75.8848 91.5047H72.7221V92.9893H75.8848V91.5047Z" fill="#F5F5F5"/>
<path d="M82.1976 91.5047H79.035V92.9893H82.1976V91.5047Z" fill="#F5F5F5"/>
<path d="M69.5781 95.1726H66.4155V96.6572H69.5781V95.1726Z" fill="#F5F5F5"/>
<path d="M75.8848 95.1726H72.7221V96.6572H75.8848V95.1726Z" fill="#F5F5F5"/>
<path d="M82.1976 95.1726H79.035V96.6572H82.1976V95.1726Z" fill="#F5F5F5"/>
<path d="M69.5781 98.8405H66.4155V100.325H69.5781V98.8405Z" fill="#F5F5F5"/>
<path d="M75.8848 98.8405H72.7221V100.325H75.8848V98.8405Z" fill="#F5F5F5"/>
<path d="M82.1976 98.8405H79.035V100.325H82.1976V98.8405Z" fill="#F5F5F5"/>
<path d="M69.5781 102.515H66.4155V103.999H69.5781V102.515Z" fill="#F5F5F5"/>
<path d="M75.8848 102.515H72.7221V103.999H75.8848V102.515Z" fill="#F5F5F5"/>
<path d="M82.1976 102.515H79.035V103.999H82.1976V102.515Z" fill="#F5F5F5"/>
<path d="M69.5781 106.183H66.4155V107.667H69.5781V106.183Z" fill="#F5F5F5"/>
<path d="M75.8848 106.183H72.7221V107.667H75.8848V106.183Z" fill="#F5F5F5"/>
<path d="M82.1976 106.183H79.035V107.667H82.1976V106.183Z" fill="#F5F5F5"/>
<path d="M69.5781 109.857H66.4155V111.341H69.5781V109.857Z" fill="#F5F5F5"/>
<path d="M75.8848 109.857H72.7221V111.341H75.8848V109.857Z" fill="#F5F5F5"/>
<path d="M82.1976 109.857H79.035V111.341H82.1976V109.857Z" fill="#F5F5F5"/>
<path d="M69.5781 113.525H66.4155V115.009H69.5781V113.525Z" fill="#F5F5F5"/>
<path d="M75.8848 113.525H72.7221V115.009H75.8848V113.525Z" fill="#F5F5F5"/>
<path d="M82.1976 113.525H79.035V115.009H82.1976V113.525Z" fill="#F5F5F5"/>
<path opacity="0.2" d="M102.658 18.3396L39.8918 81.106V63.0783L84.6367 18.3396H102.658Z" fill="#FFFFF0"/>
<path opacity="0.2" d="M107.125 41.0645V53.9272L40.4408 120.617H39.8918V108.297L107.125 41.0645Z" fill="#FFFFF0"/>
<path d="M274.658 124.504V15.9941L201.193 15.9941V124.504H274.658Z" fill="#F5F5F5"/>
<path d="M271.539 19.1069H204.306V121.385H271.539V19.1069Z" fill="#FAFAFA"/>
<path d="M230.867 121.372V66.1286H228.565L224.623 59.2918L221.098 53.1849V41.9066H220.256V53.1849L216.732 59.2918L212.783 66.1286H210.487V121.372H230.867Z" fill="#F5F5F5"/>
<path d="M213.407 52.0807H204.306V121.372H213.407V52.0807Z" fill="#F5F5F5"/>
<path d="M256.592 101.504V51.2448L236.631 59.4478V101.504H256.592Z" fill="#F5F5F5"/>
<path d="M271.538 66.1286H251.159V121.372H271.538V66.1286Z" fill="#F0F0F0"/>
<path d="M256.623 69.5034H253.461V70.988H256.623V69.5034Z" fill="#F5F5F5"/>
<path d="M262.93 69.5034H259.767V70.988H262.93V69.5034Z" fill="#F5F5F5"/>
<path d="M269.243 69.5034H266.08V70.988H269.243V69.5034Z" fill="#F5F5F5"/>
<path d="M256.623 73.1775H253.461V74.6622H256.623V73.1775Z" fill="#F5F5F5"/>
<path d="M262.93 73.1775H259.767V74.6622H262.93V73.1775Z" fill="#F5F5F5"/>
<path d="M269.243 73.1775H266.08V74.6622H269.243V73.1775Z" fill="#F5F5F5"/>
<path d="M256.623 76.8455H253.461V78.3301H256.623V76.8455Z" fill="#F5F5F5"/>
<path d="M262.93 76.8455H259.767V78.3301H262.93V76.8455Z" fill="#F5F5F5"/>
<path d="M269.243 76.8455H266.08V78.3301H269.243V76.8455Z" fill="#F5F5F5"/>
<path d="M256.623 80.5196H253.461V82.0042H256.623V80.5196Z" fill="#F5F5F5"/>
<path d="M262.93 80.5196H259.767V82.0042H262.93V80.5196Z" fill="#F5F5F5"/>
<path d="M269.243 80.5196H266.08V82.0042H269.243V80.5196Z" fill="#F5F5F5"/>
<path d="M256.623 84.1875H253.461V85.6722H256.623V84.1875Z" fill="#F5F5F5"/>
<path d="M262.93 84.1875H259.767V85.6722H262.93V84.1875Z" fill="#F5F5F5"/>
<path d="M269.243 84.1875H266.08V85.6722H269.243V84.1875Z" fill="#F5F5F5"/>
<path d="M256.623 87.8617H253.461V89.3463H256.623V87.8617Z" fill="#F5F5F5"/>
<path d="M262.93 87.8617H259.767V89.3463H262.93V87.8617Z" fill="#F5F5F5"/>
<path d="M269.243 87.8617H266.08V89.3463H269.243V87.8617Z" fill="#F5F5F5"/>
<path d="M256.623 91.5296H253.461V93.0143H256.623V91.5296Z" fill="#F5F5F5"/>
<path d="M262.93 91.5296H259.767V93.0143H262.93V91.5296Z" fill="#F5F5F5"/>
<path d="M269.243 91.5296H266.08V93.0143H269.243V91.5296Z" fill="#F5F5F5"/>
<path d="M256.623 95.2038H253.461V96.6884H256.623V95.2038Z" fill="#F5F5F5"/>
<path d="M262.93 95.2038H259.767V96.6884H262.93V95.2038Z" fill="#F5F5F5"/>
<path d="M269.243 95.2038H266.08V96.6884H269.243V95.2038Z" fill="#F5F5F5"/>
<path d="M256.623 98.8717H253.461V100.356H256.623V98.8717Z" fill="#F5F5F5"/>
<path d="M262.93 98.8717H259.767V100.356H262.93V98.8717Z" fill="#F5F5F5"/>
<path d="M269.243 98.8717H266.08V100.356H269.243V98.8717Z" fill="#F5F5F5"/>
<path d="M256.623 102.54H253.461V104.024H256.623V102.54Z" fill="#F5F5F5"/>
<path d="M262.93 102.54H259.767V104.024H262.93V102.54Z" fill="#F5F5F5"/>
<path d="M269.243 102.54H266.08V104.024H269.243V102.54Z" fill="#F5F5F5"/>
<path d="M256.623 106.214H253.461V107.698H256.623V106.214Z" fill="#F5F5F5"/>
<path d="M262.93 106.214H259.767V107.698H262.93V106.214Z" fill="#F5F5F5"/>
<path d="M269.243 106.214H266.08V107.698H269.243V106.214Z" fill="#F5F5F5"/>
<path d="M256.623 109.882H253.461V111.366H256.623V109.882Z" fill="#F5F5F5"/>
<path d="M262.93 109.882H259.767V111.366H262.93V109.882Z" fill="#F5F5F5"/>
<path d="M269.243 109.882H266.08V111.366H269.243V109.882Z" fill="#F5F5F5"/>
<path d="M224.685 66.1286H204.306V121.372H224.685V66.1286Z" fill="#F0F0F0"/>
<path d="M209.77 69.5034H206.607V70.988H209.77V69.5034Z" fill="#F5F5F5"/>
<path d="M216.083 69.5034H212.92V70.988H216.083V69.5034Z" fill="#F5F5F5"/>
<path d="M222.39 69.5034H219.227V70.988H222.39V69.5034Z" fill="#F5F5F5"/>
<path d="M209.77 73.1775H206.607V74.6622H209.77V73.1775Z" fill="#F5F5F5"/>
<path d="M216.083 73.1775H212.92V74.6622H216.083V73.1775Z" fill="#F5F5F5"/>
<path d="M222.39 73.1775H219.227V74.6622H222.39V73.1775Z" fill="#F5F5F5"/>
<path d="M209.77 76.8455H206.607V78.3301H209.77V76.8455Z" fill="#F5F5F5"/>
<path d="M216.083 76.8455H212.92V78.3301H216.083V76.8455Z" fill="#F5F5F5"/>
<path d="M222.39 76.8455H219.227V78.3301H222.39V76.8455Z" fill="#F5F5F5"/>
<path d="M209.77 80.5196H206.607V82.0042H209.77V80.5196Z" fill="#F5F5F5"/>
<path d="M216.083 80.5196H212.92V82.0042H216.083V80.5196Z" fill="#F5F5F5"/>
<path d="M222.39 80.5196H219.227V82.0042H222.39V80.5196Z" fill="#F5F5F5"/>
<path d="M209.77 84.1875H206.607V85.6722H209.77V84.1875Z" fill="#F5F5F5"/>
<path d="M216.083 84.1875H212.92V85.6722H216.083V84.1875Z" fill="#F5F5F5"/>
<path d="M222.39 84.1875H219.227V85.6722H222.39V84.1875Z" fill="#F5F5F5"/>
<path d="M209.77 87.8617H206.607V89.3463H209.77V87.8617Z" fill="#F5F5F5"/>
<path d="M216.083 87.8617H212.92V89.3463H216.083V87.8617Z" fill="#F5F5F5"/>
<path d="M222.39 87.8617H219.227V89.3463H222.39V87.8617Z" fill="#F5F5F5"/>
<path d="M209.77 91.5296H206.607V93.0143H209.77V91.5296Z" fill="#F5F5F5"/>
<path d="M216.083 91.5296H212.92V93.0143H216.083V91.5296Z" fill="#F5F5F5"/>
<path d="M222.39 91.5296H219.227V93.0143H222.39V91.5296Z" fill="#F5F5F5"/>
<path d="M209.77 95.2038H206.607V96.6884H209.77V95.2038Z" fill="#F5F5F5"/>
<path d="M216.083 95.2038H212.92V96.6884H216.083V95.2038Z" fill="#F5F5F5"/>
<path d="M222.39 95.2038H219.227V96.6884H222.39V95.2038Z" fill="#F5F5F5"/>
<path d="M209.77 98.8717H206.607V100.356H209.77V98.8717Z" fill="#F5F5F5"/>
<path d="M216.083 98.8717H212.92V100.356H216.083V98.8717Z" fill="#F5F5F5"/>
<path d="M222.39 98.8717H219.227V100.356H222.39V98.8717Z" fill="#F5F5F5"/>
<path d="M209.77 102.54H206.607V104.024H209.77V102.54Z" fill="#F5F5F5"/>
<path d="M216.083 102.54H212.92V104.024H216.083V102.54Z" fill="#F5F5F5"/>
<path d="M222.39 102.54H219.227V104.024H222.39V102.54Z" fill="#F5F5F5"/>
<path d="M209.77 106.214H206.607V107.698H209.77V106.214Z" fill="#F5F5F5"/>
<path d="M216.083 106.214H212.92V107.698H216.083V106.214Z" fill="#F5F5F5"/>
<path d="M222.39 106.214H219.227V107.698H222.39V106.214Z" fill="#F5F5F5"/>
<path d="M209.77 109.882H206.607V111.366H209.77V109.882Z" fill="#F5F5F5"/>
<path d="M216.083 109.882H212.92V111.366H216.083V109.882Z" fill="#F5F5F5"/>
<path d="M222.39 109.882H219.227V111.366H222.39V109.882Z" fill="#F5F5F5"/>
<path d="M261.352 66.1286H253.461L257.403 59.2918L261.352 52.4613L265.294 59.2918L269.243 66.1286H261.352Z" fill="#F0F0F0"/>
<path d="M261.77 41.9066H260.934V57.4828H261.77V41.9066Z" fill="#F0F0F0"/>
<path d="M249.469 69.5034H227.623V121.372H249.469V69.5034Z" fill="#F0F0F0"/>
<path d="M237.473 67.7318H229.233V74.7682H237.473V67.7318Z" fill="#F0F0F0"/>
<path d="M232.177 67.214H229.969V73.5331H232.177V67.214Z" fill="#F0F0F0"/>
<path d="M236.781 67.214H234.572V73.5331H236.781V67.214Z" fill="#F0F0F0"/>
<path d="M248.078 67.7567H243.168V72.666H248.078V67.7567Z" fill="#F0F0F0"/>
<path d="M233.992 73.9199H230.829V75.4045H233.992V73.9199Z" fill="#F5F5F5"/>
<path d="M240.305 73.9199H237.142V75.4045H240.305V73.9199Z" fill="#F5F5F5"/>
<path d="M246.612 73.9199H243.449V75.4045H246.612V73.9199Z" fill="#F5F5F5"/>
<path d="M233.992 77.5878H230.829V79.0724H233.992V77.5878Z" fill="#F5F5F5"/>
<path d="M240.305 77.5878H237.142V79.0724H240.305V77.5878Z" fill="#F5F5F5"/>
<path d="M246.612 77.5878H243.449V79.0724H246.612V77.5878Z" fill="#F5F5F5"/>
<path d="M233.992 81.2619H230.829V82.7465H233.992V81.2619Z" fill="#F5F5F5"/>
<path d="M240.305 81.2619H237.142V82.7465H240.305V81.2619Z" fill="#F5F5F5"/>
<path d="M246.612 81.2619H243.449V82.7465H246.612V81.2619Z" fill="#F5F5F5"/>
<path d="M233.992 84.9298H230.829V86.4145H233.992V84.9298Z" fill="#F5F5F5"/>
<path d="M240.305 84.9298H237.142V86.4145H240.305V84.9298Z" fill="#F5F5F5"/>
<path d="M246.612 84.9298H243.449V86.4145H246.612V84.9298Z" fill="#F5F5F5"/>
<path d="M233.992 88.604H230.829V90.0886H233.992V88.604Z" fill="#F5F5F5"/>
<path d="M240.305 88.604H237.142V90.0886H240.305V88.604Z" fill="#F5F5F5"/>
<path d="M246.612 88.604H243.449V90.0886H246.612V88.604Z" fill="#F5F5F5"/>
<path d="M233.992 92.2719H230.829V93.7566H233.992V92.2719Z" fill="#F5F5F5"/>
<path d="M240.305 92.2719H237.142V93.7566H240.305V92.2719Z" fill="#F5F5F5"/>
<path d="M246.612 92.2719H243.449V93.7566H246.612V92.2719Z" fill="#F5F5F5"/>
<path d="M233.992 95.9399H230.829V97.4245H233.992V95.9399Z" fill="#F5F5F5"/>
<path d="M240.305 95.9399H237.142V97.4245H240.305V95.9399Z" fill="#F5F5F5"/>
<path d="M246.612 95.9399H243.449V97.4245H246.612V95.9399Z" fill="#F5F5F5"/>
<path d="M233.992 99.614H230.829V101.099H233.992V99.614Z" fill="#F5F5F5"/>
<path d="M240.305 99.614H237.142V101.099H240.305V99.614Z" fill="#F5F5F5"/>
<path d="M246.612 99.614H243.449V101.099H246.612V99.614Z" fill="#F5F5F5"/>
<path d="M233.992 103.282H230.829V104.767H233.992V103.282Z" fill="#F5F5F5"/>
<path d="M240.305 103.282H237.142V104.767H240.305V103.282Z" fill="#F5F5F5"/>
<path d="M246.612 103.282H243.449V104.767H246.612V103.282Z" fill="#F5F5F5"/>
<path d="M233.992 106.956H230.829V108.441H233.992V106.956Z" fill="#F5F5F5"/>
<path d="M240.305 106.956H237.142V108.441H240.305V106.956Z" fill="#F5F5F5"/>
<path d="M246.612 106.956H243.449V108.441H246.612V106.956Z" fill="#F5F5F5"/>
<path d="M233.992 110.624H230.829V112.109H233.992V110.624Z" fill="#F5F5F5"/>
<path d="M240.305 110.624H237.142V112.109H240.305V110.624Z" fill="#F5F5F5"/>
<path d="M246.612 110.624H243.449V112.109H246.612V110.624Z" fill="#F5F5F5"/>
<path d="M233.992 114.298H230.829V115.783H233.992V114.298Z" fill="#F5F5F5"/>
<path d="M240.305 114.298H237.142V115.783H240.305V114.298Z" fill="#F5F5F5"/>
<path d="M246.612 114.298H243.449V115.783H246.612V114.298Z" fill="#F5F5F5"/>
<path opacity="0.2" d="M267.072 19.1069L204.306 81.8732V63.8518L249.051 19.1069H267.072Z" fill="#FFFFF0"/>
<path opacity="0.2" d="M271.545 41.8318V54.6944L204.855 121.384H204.306V109.071L271.545 41.8318Z" fill="#FFFFF0"/>
<path d="M173.646 142.138H65.6046C65.6046 143.017 65.9536 143.859 66.5748 144.48C67.196 145.102 68.0385 145.451 68.917 145.451H170.334C171.212 145.451 172.055 145.102 172.676 144.48C173.297 143.859 173.646 143.017 173.646 142.138Z" fill="#F0F0F0"/>
<path d="M152.425 173.459H87.7994V176.522H152.425V173.459Z" fill="#F0F0F0"/>
<path d="M150.135 209.72L158.943 145.444H155.849L147.041 209.72H150.135Z" fill="#F0F0F0"/>
<path d="M157.378 209.72L148.426 145.444H151.52L160.472 209.72H157.378Z" fill="#F0F0F0"/>
<path d="M82.8588 209.72L92.041 145.444H88.947L79.7647 209.72H82.8588Z" fill="#F0F0F0"/>
<path d="M90.101 209.72L81.293 145.444H84.387L93.195 209.72H90.101Z" fill="#F0F0F0"/>
<path d="M177.27 136.817H61.9803V142.151H177.27V136.817Z" fill="#F5F5F5"/>
<path d="M103.55 136.836H153.579L154.121 135.588C154.464 134.821 153.572 134.048 152.337 134.048H106.176C105.828 134.017 105.477 134.083 105.163 134.237C104.849 134.391 104.582 134.627 104.392 134.921L103.55 136.836Z" fill="#E0E0E0"/>
<path d="M167.277 102.009L160.871 129.095C160.792 129.448 160.595 129.764 160.313 129.99C160.03 130.217 159.68 130.341 159.318 130.342H119.862C119.621 130.341 119.383 130.286 119.167 130.18C118.95 130.074 118.76 129.921 118.61 129.731C118.461 129.542 118.356 129.321 118.304 129.086C118.252 128.85 118.254 128.606 118.309 128.371L124.709 101.286C124.791 100.933 124.989 100.617 125.272 100.391C125.555 100.164 125.906 100.04 126.269 100.038H165.718C165.96 100.037 166.199 100.091 166.417 100.196C166.635 100.301 166.827 100.454 166.977 100.644C167.127 100.834 167.232 101.056 167.284 101.292C167.336 101.529 167.334 101.774 167.277 102.009Z" fill="#F0F0F0"/>
<path d="M148.108 116.244C148.001 117.084 147.596 117.857 146.968 118.423C146.34 118.99 145.529 119.312 144.683 119.332C144.29 119.341 143.899 119.265 143.539 119.108C143.178 118.952 142.855 118.718 142.594 118.424C142.332 118.131 142.137 117.784 142.023 117.407C141.909 117.031 141.878 116.634 141.932 116.244C142.034 115.399 142.437 114.619 143.067 114.046C143.697 113.473 144.512 113.146 145.363 113.125C145.759 113.116 146.152 113.194 146.515 113.353C146.877 113.512 147.2 113.748 147.462 114.046C147.724 114.343 147.917 114.694 148.028 115.074C148.14 115.453 148.167 115.853 148.108 116.244Z" fill="#E0E0E0"/>
<path d="M127.835 100.044L121.016 130.33H119.862C119.621 130.329 119.383 130.273 119.167 130.167C118.95 130.062 118.76 129.908 118.61 129.719C118.461 129.529 118.356 129.309 118.304 129.073C118.252 128.838 118.254 128.593 118.309 128.359L124.709 101.273C124.791 100.92 124.989 100.605 125.272 100.378C125.555 100.152 125.906 100.028 126.269 100.026L127.835 100.044Z" fill="#E0E0E0"/>
<path d="M139.263 130.33L137.915 136.761H141.87L143.211 130.33H139.263Z" fill="#E0E0E0"/>
<path d="M132.145 135.676L132.956 134.534C133.1 134.339 133.288 134.181 133.505 134.072C133.722 133.964 133.961 133.908 134.204 133.91H145.045C145.326 133.91 145.601 133.986 145.841 134.131C146.08 134.277 146.276 134.485 146.405 134.734L146.954 135.775C147.012 135.885 147.042 136.008 147.04 136.132C147.037 136.257 147.003 136.378 146.941 136.486C146.878 136.593 146.79 136.683 146.683 136.746C146.576 136.81 146.454 136.845 146.33 136.848H132.744C132.606 136.852 132.47 136.817 132.352 136.746C132.234 136.676 132.138 136.573 132.075 136.451C132.012 136.328 131.986 136.19 131.998 136.053C132.01 135.916 132.061 135.785 132.145 135.676Z" fill="#E0E0E0"/>
<path d="M246.113 195.448C246.113 195.448 240.848 196.614 241.634 192.953C242.42 189.291 242.357 187.925 240.218 186.259C238.078 184.594 235.926 183.764 237.56 181.119C239.195 178.474 236.095 176.422 234.485 175C232.876 173.578 234.691 172.505 235.109 169.816C235.527 167.127 232.614 167.527 232.414 164.139C232.214 160.752 235.633 156.791 232.67 152.131C232.67 152.131 236.643 154.19 237.953 157.814C239.263 161.438 238.203 164.227 240.548 165.605C242.894 166.984 244.366 169.348 243.574 171.806C242.782 174.264 243.904 175.549 245.832 177.327C247.76 179.104 247.242 179.822 247.005 181.993C246.768 184.163 247.248 183.658 249.45 186.634C251.652 189.609 251.714 194.475 246.113 195.448Z" fill="#F0F0F0"/>
<path d="M246.861 195.286V195.229L236.325 163.26C236.315 163.227 236.31 163.193 236.313 163.158C236.316 163.124 236.325 163.09 236.341 163.06C236.356 163.029 236.378 163.002 236.404 162.979C236.43 162.957 236.461 162.94 236.494 162.929C236.559 162.911 236.629 162.918 236.689 162.95C236.749 162.981 236.795 163.034 236.818 163.098L247.354 195.074C247.357 195.098 247.357 195.124 247.354 195.148L246.861 195.286Z" fill="#E0E0E0"/>
<path d="M255.613 195.385C255.613 195.385 260.847 196.546 260.073 192.89C259.3 189.235 259.35 187.9 261.477 186.228C263.604 184.556 265.75 183.733 264.122 181.119C262.493 178.506 265.581 176.447 267.178 175.031C268.775 173.615 266.972 172.536 266.554 169.872C266.136 167.209 269.012 167.595 269.237 164.258C269.461 160.921 266.043 156.953 268.981 152.312C268.981 152.312 265.032 154.365 263.729 157.964C262.425 161.563 263.479 164.345 261.146 165.718C258.813 167.09 257.347 169.46 258.139 171.881C258.932 174.301 257.809 175.624 255.894 177.37C253.979 179.117 254.49 179.865 254.727 182.017C254.964 184.17 254.484 183.671 252.294 186.634C250.105 189.597 250.042 194.412 255.613 195.385Z" fill="#F0F0F0"/>
<path d="M254.384 195.08C254.381 195.053 254.381 195.026 254.384 194.999L264.864 163.185C264.887 163.121 264.933 163.068 264.993 163.037C265.053 163.006 265.123 162.999 265.188 163.017C265.221 163.026 265.251 163.043 265.277 163.065C265.303 163.087 265.324 163.114 265.339 163.144C265.354 163.174 265.363 163.207 265.365 163.241C265.367 163.275 265.362 163.309 265.35 163.341L254.877 195.155C254.869 195.175 254.858 195.193 254.846 195.211L254.384 195.08Z" fill="#E0E0E0"/>
<path d="M249.799 194.718C249.799 194.718 243.773 194.219 245.832 190.545C247.89 186.871 248.277 185.398 246.537 182.903C244.796 180.408 242.794 178.805 245.401 176.516C248.009 174.226 245.401 170.995 244.154 168.943C242.906 166.89 245.202 166.335 246.549 163.597C247.897 160.858 244.678 160.328 245.551 156.623C246.425 152.917 251.434 149.823 249.812 143.847C249.812 143.847 253.386 147.372 253.555 151.682C253.723 155.993 251.683 158.644 253.748 160.896C255.813 163.148 256.592 166.186 254.927 168.537C253.261 170.889 254.041 172.654 255.513 175.199C256.985 177.745 256.199 178.318 255.22 180.589C254.241 182.86 254.927 182.46 256.299 186.372C257.672 190.283 256.125 195.535 249.799 194.718Z" fill="#F5F5F5"/>
<path d="M250.654 194.793C250.651 194.77 250.651 194.747 250.654 194.724L249.986 156.978C249.986 156.901 250.016 156.827 250.07 156.771C250.123 156.715 250.196 156.682 250.273 156.679C250.312 156.679 250.35 156.686 250.386 156.701C250.421 156.716 250.453 156.738 250.481 156.765C250.508 156.792 250.529 156.824 250.544 156.86C250.559 156.895 250.566 156.934 250.566 156.972L251.234 194.712C251.237 194.741 251.237 194.77 251.234 194.799L250.654 194.793Z" fill="#E0E0E0"/>
<path d="M266.205 191.805H236.737C236.541 191.805 236.348 191.852 236.175 191.942C236.002 192.033 235.853 192.164 235.741 192.325C235.629 192.485 235.558 192.671 235.534 192.865C235.51 193.059 235.533 193.256 235.602 193.439L236.038 194.599L236.313 195.329L237.105 197.431L237.379 198.168L238.19 200.32L238.465 201.056L241.709 209.664H261.233L264.471 201.056L264.752 200.32L265.563 198.168L265.837 197.431L266.629 195.329L266.904 194.599L267.34 193.439C267.409 193.256 267.432 193.059 267.408 192.865C267.383 192.671 267.312 192.485 267.201 192.325C267.089 192.164 266.94 192.033 266.767 191.942C266.593 191.852 266.401 191.805 266.205 191.805Z" fill="#E6E6E6"/>
<path d="M153.441 228.01C220.387 228.01 274.658 226.315 274.658 224.224C274.658 222.132 220.387 220.437 153.441 220.437C86.4956 220.437 32.2254 222.132 32.2254 224.224C32.2254 226.315 86.4956 228.01 153.441 228.01Z" fill="#F0F0F0"/>
<path d="M72.0235 201.074L66.8959 224.124H53.1224L47.9948 201.074H72.0235Z" fill="#FF9933"/>
<path opacity="0.5" d="M72.0235 201.074L66.8959 224.124H53.1224L47.9948 201.074H72.0235Z" fill="#FFFFF0"/>
<path d="M73.0589 201.074H46.7846V203.894H73.0589V201.074Z" fill="#FF9933"/>
<path opacity="0.7" d="M73.0589 201.074H46.7846V203.894H73.0589V201.074Z" fill="#FFFFF0"/>
<path d="M60.1589 201.074H60.7827C61.0946 182.148 55.8734 168.568 55.7923 168.419C55.7112 168.269 55.1685 168.481 55.2247 168.637C55.2808 168.793 60.5082 182.267 60.1589 201.074Z" fill="#FF9933"/>
<path d="M58.9425 181.98C58.9425 181.98 56.859 175.611 68.3493 173.397C68.3493 173.397 68.1372 184.556 58.9425 181.98Z" fill="#FF9933"/>
<path d="M60.1588 192.51C60.1588 192.51 58.0691 186.141 69.5656 183.933C69.5656 183.933 69.3536 195.086 60.1588 192.51Z" fill="#FF9933"/>
<path d="M59.7533 186.184C59.7533 186.184 59.0796 179.516 47.6766 182.148C47.6766 182.148 52.3987 192.266 59.7533 186.184Z" fill="#FF9933"/>
<path d="M60.4395 195.785C60.4395 195.785 59.7658 189.116 48.3628 191.749C48.3628 191.742 53.0787 201.86 60.4395 195.785Z" fill="#FF9933"/>
<path d="M57.6574 175.861C57.6574 175.861 50.9703 176.322 51.644 164.632C51.644 164.639 62.4107 167.577 57.6574 175.861Z" fill="#FF9933"/>
<path d="M217.362 143.648C217.695 144.094 218.085 144.495 218.522 144.839L217.555 147.129L220.05 148.189L220.98 145.987C221.567 146.116 222.171 146.156 222.77 146.106L223.818 148.694L226.351 147.665L225.378 145.282C226.048 144.888 226.638 144.371 227.118 143.76L229.414 144.727L230.474 142.232L228.31 141.29C228.462 140.593 228.487 139.875 228.384 139.169L230.53 138.296L229.501 135.8L227.43 136.643C226.979 135.952 226.391 135.362 225.702 134.908L226.625 132.713L224.13 131.652L223.163 133.948C222.611 133.87 222.05 133.87 221.498 133.948L220.506 131.503L217.979 132.532L218.94 134.902C218.254 135.358 217.664 135.945 217.206 136.63L215.01 135.707L213.95 138.202L216.245 139.169C216.152 139.83 216.169 140.503 216.295 141.159L213.925 142.126L214.954 144.652L217.362 143.648ZM219.988 139.019C220.181 138.566 220.504 138.18 220.916 137.91C221.329 137.64 221.811 137.498 222.304 137.502C222.797 137.506 223.277 137.656 223.685 137.933C224.092 138.21 224.409 138.601 224.595 139.057C224.78 139.514 224.827 140.015 224.728 140.497C224.629 140.98 224.39 141.423 224.04 141.77C223.69 142.116 223.245 142.352 222.762 142.446C222.278 142.541 221.778 142.49 221.323 142.3C221.019 142.174 220.743 141.988 220.511 141.754C220.28 141.52 220.096 141.243 219.972 140.938C219.848 140.633 219.786 140.306 219.788 139.977C219.791 139.648 219.859 139.322 219.988 139.019Z" fill="#FF9933"/>
<g opacity="0.5">
<path d="M217.362 143.648C217.695 144.094 218.085 144.495 218.522 144.839L217.555 147.129L220.05 148.189L220.98 145.987C221.567 146.116 222.171 146.156 222.77 146.106L223.818 148.694L226.351 147.665L225.378 145.282C226.048 144.888 226.638 144.371 227.118 143.76L229.414 144.727L230.474 142.232L228.31 141.29C228.462 140.593 228.487 139.875 228.384 139.169L230.53 138.296L229.501 135.8L227.43 136.643C226.979 135.952 226.391 135.362 225.702 134.908L226.625 132.713L224.13 131.652L223.163 133.948C222.611 133.87 222.05 133.87 221.498 133.948L220.506 131.503L217.979 132.532L218.94 134.902C218.254 135.358 217.664 135.945 217.206 136.63L215.01 135.707L213.95 138.202L216.245 139.169C216.152 139.83 216.169 140.503 216.295 141.159L213.925 142.126L214.954 144.652L217.362 143.648ZM219.988 139.019C220.181 138.566 220.504 138.18 220.916 137.91C221.329 137.64 221.811 137.498 222.304 137.502C222.797 137.506 223.277 137.656 223.685 137.933C224.092 138.21 224.409 138.601 224.595 139.057C224.78 139.514 224.827 140.015 224.728 140.497C224.629 140.98 224.39 141.423 224.04 141.77C223.69 142.116 223.245 142.352 222.762 142.446C222.278 142.541 221.778 142.49 221.323 142.3C221.019 142.174 220.743 141.988 220.511 141.754C220.28 141.52 220.096 141.243 219.972 140.938C219.848 140.633 219.786 140.306 219.788 139.977C219.791 139.648 219.859 139.322 219.988 139.019Z" fill="#FFFFF0"/>
</g>
<path d="M73.9073 46.1422C74.2385 46.5899 74.6288 46.9907 75.0676 47.3337L74.1007 49.6292L76.5959 50.6897L77.5253 48.4939C78.1128 48.623 78.7163 48.663 79.3156 48.6125L80.3636 51.195L82.8962 50.1657L81.9231 47.7828C82.5946 47.3905 83.1852 46.874 83.6635 46.2607L85.9591 47.2339L87.0195 44.7387L84.8362 43.7905C84.9854 43.0913 85.0107 42.3713 84.9111 41.6634L87.057 40.7963L86.0277 38.2637L83.9567 39.1058C83.5009 38.4193 82.9136 37.8299 82.2288 37.3716L83.152 35.1759L80.6568 34.1154L79.6899 36.411C79.1372 36.3365 78.5771 36.3365 78.0244 36.411L77.0325 33.972L74.5374 34.995L75.4793 37.3404C74.793 37.7991 74.2038 38.3883 73.7451 39.0746L71.5494 38.1451L70.4889 40.6403L72.7845 41.6072C72.6917 42.2688 72.7086 42.9411 72.8344 43.5971L70.464 44.5578L71.4932 47.0904L73.9073 46.1422ZM76.5335 41.5199C76.7258 41.0659 77.0482 40.679 77.4601 40.4081C77.8721 40.1372 78.355 39.9944 78.848 39.9977C79.341 40.001 79.822 40.1504 80.2303 40.4268C80.6385 40.7032 80.9557 41.0944 81.1418 41.551C81.3279 42.0076 81.3746 42.509 81.2759 42.9921C81.1773 43.4751 80.9377 43.9181 80.5875 44.2652C80.2373 44.6122 79.7922 44.8477 79.3082 44.942C78.8243 45.0363 78.3233 44.985 77.8684 44.7948C77.5653 44.668 77.2901 44.4826 77.0588 44.2492C76.8275 44.0158 76.6446 43.739 76.5206 43.4347C76.3965 43.1304 76.3338 42.8046 76.3361 42.476C76.3383 42.1474 76.4054 41.8225 76.5335 41.5199Z" fill="#FF9933"/>
<g opacity="0.5">
<path d="M73.9073 46.1422C74.2385 46.5899 74.6288 46.9907 75.0676 47.3337L74.1007 49.6292L76.5959 50.6897L77.5253 48.4939C78.1128 48.623 78.7163 48.663 79.3156 48.6125L80.3636 51.195L82.8962 50.1657L81.9231 47.7828C82.5946 47.3905 83.1852 46.874 83.6635 46.2607L85.9591 47.2339L87.0195 44.7387L84.8362 43.7905C84.9854 43.0913 85.0107 42.3713 84.9111 41.6634L87.057 40.7963L86.0277 38.2637L83.9567 39.1058C83.5009 38.4193 82.9136 37.8299 82.2288 37.3716L83.152 35.1759L80.6568 34.1154L79.6899 36.411C79.1372 36.3365 78.5771 36.3365 78.0244 36.411L77.0325 33.972L74.5374 34.995L75.4793 37.3404C74.793 37.7991 74.2038 38.3883 73.7451 39.0746L71.5494 38.1451L70.4889 40.6403L72.7845 41.6072C72.6917 42.2688 72.7086 42.9411 72.8344 43.5971L70.464 44.5578L71.4932 47.0904L73.9073 46.1422ZM76.5335 41.5199C76.7258 41.0659 77.0482 40.679 77.4601 40.4081C77.8721 40.1372 78.355 39.9944 78.848 39.9977C79.341 40.001 79.822 40.1504 80.2303 40.4268C80.6385 40.7032 80.9557 41.0944 81.1418 41.551C81.3279 42.0076 81.3746 42.509 81.2759 42.9921C81.1773 43.4751 80.9377 43.9181 80.5875 44.2652C80.2373 44.6122 79.7922 44.8477 79.3082 44.942C78.8243 45.0363 78.3233 44.985 77.8684 44.7948C77.5653 44.668 77.2901 44.4826 77.0588 44.2492C76.8275 44.0158 76.6446 43.739 76.5206 43.4347C76.3965 43.1304 76.3338 42.8046 76.3361 42.476C76.3383 42.1474 76.4054 41.8225 76.5335 41.5199Z" fill="#FFFFF0"/>
</g>
<path d="M161.189 42.6926V64.0389H97.15V0.00624084H102.926C102.926 0.00624084 106.863 1.12907 108.166 4.25429C109.339 7.03642 107.586 10.3924 107.187 11.116L107.118 11.2346C106.264 12.7129 105.815 14.39 105.815 16.0973C105.814 17.8045 106.264 19.4817 107.117 20.9603C107.971 22.4389 109.198 23.6667 110.677 24.5204C112.155 25.3741 113.832 25.8235 115.54 25.8235C117.247 25.8235 118.924 25.3741 120.402 24.5204C121.881 23.6667 123.109 22.4389 123.962 20.9603C124.816 19.4817 125.265 17.8045 125.264 16.0973C125.264 14.39 124.815 12.7129 123.961 11.2346C123.931 11.2018 123.908 11.1637 123.892 11.1223C123.487 10.4112 121.734 7.05514 122.9 4.26053C124.217 1.14155 128.146 0.0124801 128.146 0.0124801H161.208V17.5037C161.208 17.5037 160.079 21.4399 156.96 22.7498C154.177 23.9226 150.821 22.1635 150.098 21.7705L149.979 21.7019C148.5 20.8365 146.815 20.3841 145.101 20.3919C143.608 20.3908 142.135 20.7335 140.795 21.3934C139.456 22.0534 138.287 23.0129 137.378 24.1976C136.469 25.3822 135.845 26.7603 135.555 28.2249C135.264 29.6895 135.315 31.2013 135.703 32.6431C136.091 34.085 136.805 35.4182 137.791 36.5394C138.777 37.6606 140.008 38.5397 141.389 39.1085C142.769 39.6773 144.262 39.9206 145.752 39.8196C147.242 39.7185 148.688 39.2757 149.979 38.5257L150.092 38.457C150.803 38.0578 154.159 36.2987 156.953 37.4714C160.06 38.7565 161.189 42.6926 161.189 42.6926Z" fill="#FF9933"/>
<g opacity="0.7">
<path d="M161.189 42.6926V64.0389H97.15V0.00624084H102.926C102.926 0.00624084 106.863 1.12907 108.166 4.25429C109.339 7.03642 107.586 10.3924 107.187 11.116L107.118 11.2346C106.264 12.7129 105.815 14.39 105.815 16.0973C105.814 17.8045 106.264 19.4817 107.117 20.9603C107.971 22.4389 109.198 23.6667 110.677 24.5204C112.155 25.3741 113.832 25.8235 115.54 25.8235C117.247 25.8235 118.924 25.3741 120.402 24.5204C121.881 23.6667 123.109 22.4389 123.962 20.9603C124.816 19.4817 125.265 17.8045 125.264 16.0973C125.264 14.39 124.815 12.7129 123.961 11.2346C123.931 11.2018 123.908 11.1637 123.892 11.1223C123.487 10.4112 121.734 7.05514 122.9 4.26053C124.217 1.14155 128.146 0.0124801 128.146 0.0124801H161.208V17.5037C161.208 17.5037 160.079 21.4399 156.96 22.7498C154.177 23.9226 150.821 22.1635 150.098 21.7705L149.979 21.7019C148.5 20.8365 146.815 20.3841 145.101 20.3919C143.608 20.3908 142.135 20.7335 140.795 21.3934C139.456 22.0534 138.287 23.0129 137.378 24.1976C136.469 25.3822 135.845 26.7603 135.555 28.2249C135.264 29.6895 135.315 31.2013 135.703 32.6431C136.091 34.085 136.805 35.4182 137.791 36.5394C138.777 37.6606 140.008 38.5397 141.389 39.1085C142.769 39.6773 144.262 39.9206 145.752 39.8196C147.242 39.7185 148.688 39.2757 149.979 38.5257L150.092 38.457C150.803 38.0578 154.159 36.2987 156.953 37.4714C160.06 38.7565 161.189 42.6926 161.189 42.6926Z" fill="#FFFFF0"/>
</g>
<path d="M225.19 0.00624084V63.9765H216.632C216.008 63.7645 212.677 62.573 211.498 59.7659C210.319 56.9588 212.078 53.634 212.477 52.9042L212.552 52.7856C213.415 51.3073 213.867 49.6254 213.862 47.9138C213.86 46.4245 213.514 44.9559 212.854 43.6213C212.193 42.2867 211.234 41.122 210.051 40.2171C208.868 39.3123 207.493 38.6916 206.032 38.4029C204.571 38.1143 203.063 38.1656 201.625 38.5527C200.187 38.9398 198.857 39.6524 197.739 40.6354C196.62 41.6185 195.742 42.8456 195.173 44.222C194.605 45.5984 194.36 47.0871 194.458 48.5731C194.557 50.0591 194.996 51.5025 195.741 52.7919L195.816 52.9104C196.215 53.6153 197.962 56.9713 196.795 59.7722C195.629 62.573 192.31 63.7707 191.661 63.9828H161.189V42.6552C161.189 42.6552 160.066 38.719 156.947 37.4091C154.171 36.2488 150.815 37.9954 150.085 38.3947L149.973 38.4633C148.684 39.2237 147.236 39.676 145.743 39.7848C144.25 39.8936 142.752 39.6561 141.366 39.0907C139.98 38.5253 138.743 37.6473 137.752 36.5253C136.761 35.4032 136.042 34.0675 135.653 32.6221C135.263 31.1767 135.212 29.6608 135.505 28.1927C135.797 26.7246 136.425 25.3438 137.339 24.1582C138.253 22.9726 139.429 22.0142 140.774 21.3576C142.119 20.701 143.598 20.3642 145.095 20.3732C146.807 20.3683 148.488 20.8206 149.967 21.6832C150.001 21.7125 150.039 21.7377 150.079 21.758C150.79 22.1572 154.146 23.9101 156.941 22.7374C160.06 21.4336 161.183 17.4975 161.183 17.4975V0.0311933L225.19 0.00624084Z" fill="#FF9933"/>
<path opacity="0.5" d="M225.19 0.00624084V63.9765H216.632C216.008 63.7645 212.677 62.573 211.498 59.7659C210.319 56.9588 212.078 53.634 212.477 52.9042L212.552 52.7856C213.415 51.3073 213.867 49.6254 213.862 47.9138C213.86 46.4245 213.514 44.9559 212.854 43.6213C212.193 42.2867 211.234 41.122 210.051 40.2171C208.868 39.3123 207.493 38.6916 206.032 38.4029C204.571 38.1143 203.063 38.1656 201.625 38.5527C200.187 38.9398 198.857 39.6524 197.739 40.6354C196.62 41.6185 195.742 42.8456 195.173 44.222C194.605 45.5984 194.36 47.0871 194.458 48.5731C194.557 50.0591 194.996 51.5025 195.741 52.7919L195.816 52.9104C196.215 53.6153 197.962 56.9713 196.795 59.7722C195.629 62.573 192.31 63.7707 191.661 63.9828H161.189V42.6552C161.189 42.6552 160.066 38.719 156.947 37.4091C154.171 36.2488 150.815 37.9954 150.085 38.3947L149.973 38.4633C148.684 39.2237 147.236 39.676 145.743 39.7848C144.25 39.8936 142.752 39.6561 141.366 39.0907C139.98 38.5253 138.743 37.6473 137.752 36.5253C136.761 35.4032 136.042 34.0675 135.653 32.6221C135.263 31.1767 135.212 29.6608 135.505 28.1927C135.797 26.7246 136.425 25.3438 137.339 24.1582C138.253 22.9726 139.429 22.0142 140.774 21.3576C142.119 20.701 143.598 20.3642 145.095 20.3732C146.807 20.3683 148.488 20.8206 149.967 21.6832C150.001 21.7125 150.039 21.7377 150.079 21.758C150.79 22.1572 154.146 23.9101 156.941 22.7374C160.06 21.4336 161.183 17.4975 161.183 17.4975V0.0311933L225.19 0.00624084Z" fill="#FFFFF0"/>
<path d="M180.776 70.8944L176.01 82.2974C175.212 84.1688 174.395 86.0402 173.571 87.9116C173.16 88.8286 172.729 89.7331 172.324 90.6002C171.918 91.4672 171.457 92.3281 171.039 93.0267C170.929 93.2263 170.806 93.418 170.671 93.6006L170.047 93.8938L169.367 94.1995L167.982 94.8233L162.256 97.2249C158.419 98.853 154.577 100.531 150.772 102.296L152.119 106.488C156.267 105.696 160.359 104.773 164.445 103.731C166.485 103.195 168.525 102.664 170.571 102.047L172.124 101.579L172.916 101.329L173.752 101.036L174.07 100.924L174.214 100.862L174.788 100.612L175.087 100.475L175.436 100.257L175.736 100.051C176.004 99.845 176.258 99.622 176.497 99.3832C176.746 99.1275 176.952 98.8967 177.121 98.6783C177.458 98.2729 177.707 97.9235 177.957 97.5742C178.375 96.9504 178.743 96.3765 179.086 95.8026C179.341 95.3847 179.578 94.9792 179.809 94.555C180.352 93.5757 180.863 92.6088 181.356 91.6481C182.354 89.7206 183.259 87.7931 184.145 85.8593C185.904 81.9855 187.544 78.118 189.035 74.1257L180.776 70.8944ZM170.92 93.4821H170.889H170.92L170.97 93.4509L170.92 93.4821Z" fill="#263238"/>
<path d="M151.819 102.758C151.145 102.059 150.246 101.617 149.281 101.51C147.89 101.51 146.785 101.086 145.75 101.13C144.714 101.174 145.812 102.047 146.492 102.377C147.172 102.708 147.939 103.114 147.603 103.581C147.266 104.049 142.725 106.077 142.332 106.794C141.939 107.511 142.774 107.418 142.774 107.418C142.774 107.418 141.758 107.886 141.776 108.428C141.795 108.971 142.519 108.877 142.519 108.877C142.519 108.877 141.845 109.214 142.138 109.657C142.431 110.1 146.336 109.033 146.542 109.083C146.542 109.083 144.228 109.214 144.122 109.894C144.016 110.574 145.519 110.35 146.717 110.194C147.955 110.053 149.107 109.487 149.973 108.59C150.803 107.68 152.68 106.588 152.468 105.178C152.345 104.349 152.127 103.537 151.819 102.758Z" fill="#CE7A63"/>
<g opacity="0.2">
<path d="M142.712 108.896C143.872 108.372 145.045 107.888 146.23 107.443C146.355 107.751 146.503 108.049 146.673 108.335C146.76 108.478 146.941 108.291 146.86 108.154C146.341 107.258 146.024 106.259 145.931 105.228C145.931 105.054 145.688 105.116 145.706 105.284C145.73 105.546 145.769 105.807 145.825 106.064C145.814 106.059 145.802 106.057 145.79 106.057C145.779 106.057 145.767 106.059 145.756 106.064C144.793 106.342 143.867 106.736 142.999 107.237C142.868 107.312 142.955 107.555 143.099 107.474C143.948 106.986 144.852 106.602 145.794 106.332C145.809 106.326 145.823 106.317 145.835 106.305C145.847 106.293 145.856 106.279 145.862 106.264C145.936 106.585 146.03 106.902 146.143 107.212C144.958 107.628 143.783 108.112 142.618 108.665C142.475 108.721 142.569 108.959 142.712 108.896Z" fill="black"/>
</g>
<g opacity="0.2">
<path d="M147.16 106.208C147.526 105.642 148.071 105.216 148.707 104.997C149.344 104.777 150.035 104.778 150.672 104.997C150.815 105.054 150.903 104.798 150.759 104.742C150.072 104.506 149.325 104.508 148.639 104.746C147.952 104.985 147.366 105.447 146.973 106.058C146.953 106.083 146.944 106.114 146.947 106.146C146.951 106.177 146.967 106.206 146.991 106.226C147.016 106.246 147.048 106.255 147.079 106.252C147.111 106.248 147.14 106.232 147.16 106.208Z" fill="black"/>
</g>
<path opacity="0.2" d="M191.505 72.273C191.505 72.3569 191.48 72.4389 191.434 72.5087C191.387 72.5785 191.321 72.6328 191.244 72.6649C191.166 72.697 191.081 72.7054 190.998 72.6891C190.916 72.6727 190.841 72.6323 190.781 72.573C190.722 72.5137 190.682 72.4381 190.665 72.3558C190.649 72.2735 190.657 72.1882 190.689 72.1107C190.721 72.0332 190.776 71.967 190.846 71.9203C190.915 71.8737 190.997 71.8489 191.081 71.8489C191.194 71.8489 191.302 71.8935 191.381 71.9731C191.461 72.0526 191.505 72.1605 191.505 72.273Z" fill="black"/>
<path opacity="0.2" d="M191.506 75.0864C191.504 75.17 191.478 75.2514 191.431 75.3203C191.384 75.3892 191.317 75.4426 191.239 75.4738C191.162 75.5049 191.077 75.5124 190.995 75.4954C190.913 75.4783 190.838 75.4374 190.779 75.3779C190.721 75.3183 190.681 75.2427 190.665 75.1606C190.649 75.0785 190.658 74.9935 190.69 74.9164C190.722 74.8392 190.777 74.7734 190.846 74.727C190.916 74.6807 190.998 74.656 191.081 74.6559C191.138 74.6559 191.193 74.6671 191.245 74.6888C191.297 74.7105 191.344 74.7423 191.384 74.7824C191.423 74.8224 191.454 74.8699 191.475 74.9221C191.496 74.9743 191.506 75.0301 191.506 75.0864Z" fill="black"/>
<path opacity="0.2" d="M191.505 77.8872C191.505 77.9711 191.48 78.0531 191.434 78.1229C191.387 78.1926 191.321 78.247 191.244 78.2791C191.166 78.3112 191.081 78.3196 190.998 78.3032C190.916 78.2869 190.841 78.2465 190.781 78.1871C190.722 78.1278 190.682 78.0522 190.665 77.97C190.649 77.8877 190.657 77.8024 190.689 77.7249C190.721 77.6474 190.776 77.5811 190.846 77.5345C190.915 77.4879 190.997 77.463 191.081 77.463C191.194 77.463 191.302 77.5077 191.381 77.5873C191.461 77.6668 191.505 77.7747 191.505 77.8872Z" fill="black"/>
<path d="M181.088 213.787L179.497 220.344H176.048L175.892 213.787H181.088Z" fill="#FF8B7B"/>
<path d="M166.03 224.972C166.217 222.839 167.152 222.202 168.313 222.128C169.473 222.053 173.815 220.612 173.815 220.612C173.815 220.612 174.713 219.258 175.505 218.984C176.297 218.709 177.065 219.514 177.065 219.514L179.229 219.252C179.229 219.252 179.853 218.279 180.327 219.127C181.013 220.456 180.951 224.117 180.87 224.972H166.03Z" fill="#263238"/>
<path d="M166.31 224.417H168.999L180.77 224.355C180.92 224.355 180.889 224.13 180.739 224.13H179.94C179.944 224.12 179.944 224.109 179.94 224.099C179.775 223.845 179.664 223.559 179.615 223.26C179.566 222.961 179.58 222.656 179.656 222.362C179.732 222.069 179.868 221.794 180.055 221.556C180.243 221.318 180.478 221.122 180.745 220.98C180.87 220.911 180.745 220.712 180.602 220.78C180.319 220.935 180.071 221.146 179.873 221.4C179.674 221.654 179.529 221.945 179.446 222.256C179.363 222.568 179.345 222.893 179.391 223.211C179.437 223.53 179.548 223.836 179.716 224.111H178.056L166.292 224.174C166.129 224.192 166.161 224.423 166.31 224.417Z" fill="#FF9933"/>
<path d="M195.36 127.966C194.343 136.759 192.814 145.487 190.782 154.103C190.058 157.296 189.226 160.702 188.287 164.32C190.825 185.292 180.888 215.59 180.888 215.59L175.567 215.472C175.567 215.472 174.9 181.612 175.524 163.884C176.553 134.84 180.09 107.174 180.09 107.174L194.587 107.118C194.587 107.118 197.12 111.485 195.36 127.966Z" fill="#FF9933"/>
<path opacity="0.2" d="M195.361 127.966C194.343 136.759 192.814 145.487 190.782 154.103C187.732 142.488 193.277 117.698 193.277 117.698L195.361 127.966Z" fill="black"/>
<path d="M174.975 216.726L174.806 214.442H181.905L181.506 216.726H174.975Z" fill="#263238"/>
<path d="M203.158 213.787L201.567 220.344H198.118L197.962 213.787H203.158Z" fill="#FF8B7B"/>
<path d="M188.099 224.972C188.287 222.839 189.222 222.202 190.383 222.128C191.543 222.053 195.872 220.612 195.872 220.612C195.872 220.612 196.77 219.258 197.562 218.984C198.355 218.709 199.122 219.514 199.122 219.514L201.287 219.252C201.287 219.252 201.91 218.279 202.384 219.127C203.077 220.456 203.008 224.117 202.927 224.972H188.099Z" fill="#263238"/>
<path d="M188.387 224.417H191.075L202.846 224.355C202.996 224.355 202.965 224.13 202.815 224.13H202.023V224.099C201.856 223.846 201.744 223.56 201.695 223.261C201.645 222.963 201.658 222.657 201.733 222.363C201.808 222.069 201.944 221.795 202.131 221.556C202.318 221.318 202.554 221.122 202.821 220.98C202.946 220.911 202.821 220.712 202.684 220.78C202.401 220.935 202.152 221.145 201.953 221.399C201.754 221.652 201.608 221.943 201.525 222.255C201.442 222.566 201.422 222.891 201.468 223.21C201.514 223.53 201.624 223.836 201.792 224.111H200.114L188.349 224.174C188.199 224.192 188.231 224.423 188.387 224.417Z" fill="#FF9933"/>
<path d="M190.37 108.297C190.37 108.297 193.077 148.382 193.963 164.32C194.98 182.523 197.257 213.55 197.562 215.584H203.064C202.441 216.208 210.126 188.349 207.025 165.68C209.932 143.997 213.469 128.115 208.897 107.667L190.37 108.297Z" fill="#FF9933"/>
<path d="M196.914 216.726L196.745 214.442H203.85L203.445 216.726H196.914Z" fill="#263238"/>
<path d="M210.563 109.264C199.004 113.082 179.572 111.828 179.572 109.177C179.572 101.722 182.211 93.3324 181.506 88.473C176.035 84.6492 180.308 81.1933 179.834 75.5293C179.671 73.4385 180.295 71.3621 181.584 69.7081C182.873 68.0541 184.735 66.942 186.802 66.5903C187.788 66.4218 188.811 66.2534 189.821 66.1224L190.445 66.0476C193.137 65.7387 195.846 65.6115 198.554 65.667C199.546 65.667 200.569 65.667 201.636 65.6982C202.703 65.7294 203.744 65.7606 204.755 65.8355C205.623 65.8993 206.469 66.1442 207.237 66.5545C208.005 66.9648 208.678 67.5313 209.214 68.2176C209.75 68.9039 210.136 69.6947 210.348 70.5393C210.56 71.3839 210.593 72.2635 210.444 73.1214C209.555 78.0967 208.992 83.1248 208.76 88.1736C208.71 89.2153 208.679 90.2197 208.666 91.2053C208.596 94.6614 208.753 98.1183 209.134 101.554C209.134 101.623 209.134 101.685 209.134 101.747C209.296 103.114 209.502 104.374 209.758 105.528C209.826 105.889 209.908 106.233 209.989 106.576C210.095 107.293 210.375 108.547 210.563 109.264Z" fill="#263238"/>
<path opacity="0.2" d="M203.239 74.7682L209.009 83.4577C209.096 82.416 209.203 81.3493 209.327 80.2701L203.239 74.7682Z" fill="black"/>
<path d="M189.815 75.5854C189.815 75.683 189.776 75.7766 189.707 75.8457C189.638 75.9147 189.545 75.9535 189.447 75.9535C189.349 75.9535 189.256 75.9147 189.187 75.8457C189.118 75.7766 189.079 75.683 189.079 75.5854C189.079 75.4878 189.118 75.3942 189.187 75.3252C189.256 75.2562 189.349 75.2174 189.447 75.2174C189.545 75.2174 189.638 75.2562 189.707 75.3252C189.776 75.3942 189.815 75.4878 189.815 75.5854Z" fill="#FF9933"/>
<path d="M189.59 78.9165C189.591 78.9653 189.582 79.0139 189.564 79.0592C189.546 79.1046 189.519 79.1459 189.485 79.1807C189.451 79.2156 189.41 79.2433 189.365 79.2621C189.32 79.281 189.271 79.2908 189.222 79.2907C189.123 79.2907 189.028 79.2513 188.958 79.1811C188.888 79.1109 188.848 79.0157 188.848 78.9165C188.848 78.8676 188.858 78.8192 188.877 78.7742C188.896 78.7291 188.923 78.6883 188.958 78.654C188.993 78.6197 189.034 78.5928 189.08 78.5746C189.125 78.5565 189.174 78.5476 189.222 78.5484C189.271 78.5476 189.319 78.5565 189.364 78.5747C189.409 78.5929 189.45 78.62 189.485 78.6543C189.519 78.6887 189.546 78.7296 189.564 78.7746C189.582 78.8197 189.591 78.8679 189.59 78.9165Z" fill="#FF9933"/>
<path d="M189.222 82.678C189.426 82.678 189.59 82.5132 189.59 82.3099C189.59 82.1067 189.426 81.9419 189.222 81.9419C189.019 81.9419 188.854 82.1067 188.854 82.3099C188.854 82.5132 189.019 82.678 189.222 82.678Z" fill="#FF9933"/>
<path d="M198.511 65.667C195.778 70.4765 189.335 73.3584 189.335 73.3584C188.468 71.2001 188.711 67.7443 189.821 66.1224L190.445 66.0476C193.122 65.7406 195.817 65.6135 198.511 65.667Z" fill="#FF8B7B"/>
<path d="M194.624 46.791C194.624 46.791 199.559 51.5069 197.288 56.8528C196.297 59.2986 194.377 61.2522 191.948 62.2861L194.624 46.791Z" fill="#263238"/>
<path d="M186.721 45.612C186.721 45.612 181.874 44.8011 180.838 50.1408C179.803 55.4805 180.059 57.4267 181.462 58.7554C183.334 60.502 186.272 58.5994 186.272 58.5994L186.721 45.612Z" fill="#263238"/>
<path d="M189.746 67.5572C189.72 67.6328 189.686 67.7058 189.647 67.7755C188.711 69.2414 189.728 70.5888 191.325 70.4703C191.48 70.4591 191.634 70.4383 191.786 70.4079C192.364 70.2902 192.892 69.996 193.296 69.5658C194.527 68.2433 195.86 67.0191 197.282 65.9041C194.868 64.6128 193.988 60.0279 193.77 57.1709L190.027 61.9305L189.328 62.966C189.671 63.5452 189.943 64.1629 190.139 64.8062C190.303 65.262 190.353 65.751 190.285 66.2305C190.216 66.71 190.031 67.1655 189.746 67.5572Z" fill="#FF8B7B"/>
<path d="M196.914 65.6608C198.229 65.3356 199.603 65.3356 200.918 65.6608L197.288 71.8988C195.373 70.5077 193.183 72.3167 189.335 73.3522C192.52 71.5334 195.142 68.8722 196.914 65.6608Z" fill="#FF9933"/>
<path d="M196.914 65.6608C198.229 65.3356 199.603 65.3356 200.918 65.6608L197.288 71.8988C195.373 70.5077 193.183 72.3167 189.335 73.3522C192.52 71.5334 195.142 68.8722 196.914 65.6608Z" fill="#FF9933"/>
<path d="M190.308 65.9478C190.308 65.9478 188.087 65.5423 186.802 66.5716C186.337 68.1803 185.99 69.8212 185.766 71.4808C185.766 71.4808 187.9 70.4141 189.335 73.3522C189.335 73.3585 188.605 68.6987 190.308 65.9478Z" fill="#FF9933"/>
<path d="M190.308 65.9478C190.308 65.9478 188.087 65.5423 186.802 66.5716C186.337 68.1803 185.99 69.8212 185.766 71.4808C185.766 71.4808 187.9 70.4141 189.335 73.3522C189.335 73.3585 188.605 68.6987 190.308 65.9478Z" fill="#FF9933"/>
<g opacity="0.2">
<path d="M190.145 64.7875C189.949 64.1441 189.677 63.5264 189.335 62.9473L190.033 61.9118L192.391 61.9617C191.977 63.127 191.187 64.1212 190.145 64.7875Z" fill="black"/>
</g>
<path d="M194.456 52.0558C194.83 56.7592 195.08 58.7429 193.115 61.4627C190.146 65.5548 184.382 64.9621 182.648 60.4583C181.076 56.4037 180.726 49.386 184.943 46.9032C189.16 44.4205 194.082 47.3461 194.456 52.0558Z" fill="#FF8B7B"/>
<path d="M193.42 55.1311C195.785 54.5073 194.855 52.0683 194.855 52.0683L191.381 52.6047C191.381 52.6047 191.062 55.7549 193.42 55.1311Z" fill="#263238"/>
<path d="M183.396 47.3212C183.396 47.3212 183.939 49.9162 187.139 50.0534C190.339 50.1907 190.052 54.9128 193.626 54.1642C197.201 53.4157 196.121 47.9263 194.612 46.766C193.102 45.6058 186.964 43.0482 183.396 47.3212Z" fill="#263238"/>
<path d="M190.882 44.9445C190.882 44.9445 193.202 38.0828 198.592 40.7963C203.981 43.5098 199.253 50.5712 195.835 49.6542C192.416 48.7372 190.882 44.9445 190.882 44.9445Z" fill="#263238"/>
<path d="M184.606 59.3043C185.609 58.7299 186.546 58.0481 187.401 57.2708C187.401 57.2708 187.738 59.0548 186.54 59.716C186.225 59.904 185.851 59.966 185.492 59.8896C185.134 59.8133 184.817 59.6042 184.606 59.3043Z" fill="#FFFFF0"/>
<path d="M186.715 54.183C186.764 54.5635 186.609 54.9003 186.359 54.9315C186.109 54.9627 185.866 54.6882 185.816 54.3077C185.766 53.9272 185.916 53.5904 186.166 53.5592C186.415 53.528 186.658 53.8025 186.715 54.183Z" fill="#263238"/>
<path d="M182.853 54.8067C182.903 55.1873 182.747 55.5179 182.498 55.5553C182.248 55.5927 182.005 55.312 181.955 54.9315C181.905 54.551 182.055 54.2141 182.304 54.1767C182.554 54.1393 182.797 54.4262 182.853 54.8005" fill="#263238"/>
<path d="M182.417 54.183L181.469 54.052C181.469 54.052 182.036 54.6758 182.417 54.183Z" fill="#263238"/>
<path d="M184.269 54.7007C184.269 54.7007 183.758 55.7986 183.172 56.7717C183.126 56.8449 183.097 56.9277 183.087 57.0136C183.077 57.0996 183.087 57.1867 183.116 57.2683C183.145 57.3499 183.192 57.4239 183.253 57.4848C183.315 57.5457 183.389 57.592 183.471 57.6201C183.876 57.7464 184.295 57.826 184.719 57.8571L184.269 54.7007Z" fill="#FF5652"/>
<path d="M196.571 55.05C196.453 55.4633 196.25 55.8471 195.973 56.1761C195.697 56.505 195.354 56.7718 194.967 56.9588C193.969 57.3893 193.296 56.3351 193.42 55.1311C193.539 54.0582 194.194 52.5299 195.292 52.6359C196.39 52.742 196.932 53.9896 196.596 55.075" fill="#FF8B7B"/>
<path d="M187.763 52.6297C187.7 52.6294 187.639 52.6049 187.594 52.5611C187.409 52.3447 187.175 52.1754 186.911 52.0669C186.648 51.9585 186.362 51.9141 186.078 51.9373C186.049 51.9426 186.019 51.9421 185.991 51.9359C185.962 51.9297 185.934 51.9179 185.91 51.9011C185.886 51.8843 185.865 51.8629 185.849 51.838C185.833 51.8132 185.822 51.7855 185.816 51.7564C185.811 51.7273 185.812 51.6974 185.818 51.6685C185.824 51.6396 185.836 51.6122 185.853 51.5879C185.869 51.5636 185.891 51.5428 185.916 51.5268C185.94 51.5107 185.968 51.4997 185.997 51.4944C186.353 51.4525 186.714 51.4964 187.049 51.6223C187.384 51.7481 187.685 51.9524 187.925 52.218C187.947 52.2384 187.964 52.263 187.976 52.2904C187.988 52.3178 187.994 52.3472 187.994 52.377C187.994 52.4069 187.988 52.4363 187.976 52.4637C187.964 52.4911 187.947 52.5157 187.925 52.5361C187.905 52.5561 187.882 52.5719 187.856 52.5827C187.831 52.5934 187.803 52.5988 187.775 52.5985" fill="#263238"/>
<path d="M181.082 53.3159C181.036 53.32 180.99 53.31 180.95 53.2873C180.911 53.2645 180.879 53.2301 180.859 53.1886C180.839 53.1472 180.833 53.1007 180.84 53.0554C180.848 53.0101 180.869 52.9682 180.901 52.9354C181.12 52.6499 181.404 52.4214 181.73 52.2694C182.056 52.1173 182.413 52.0462 182.772 52.062C182.832 52.0678 182.887 52.097 182.925 52.1433C182.963 52.1895 182.981 52.2489 182.975 52.3084C182.969 52.368 182.94 52.4228 182.894 52.4608C182.848 52.4989 182.788 52.517 182.729 52.5112C182.446 52.5046 182.166 52.565 181.911 52.6875C181.656 52.81 181.434 52.9912 181.263 53.2161C181.224 53.2644 181.168 53.2957 181.107 53.3034" fill="#263238"/>
<path d="M186.278 53.5591L185.33 53.4219C185.33 53.4219 185.897 54.0457 186.278 53.5591Z" fill="#263238"/>
<path d="M215.141 95.1227C213.201 98.2417 211.043 101.361 208.903 104.436L212.172 107.38C215.095 104.775 217.842 101.979 220.393 99.009C221.753 97.4628 223.003 95.8245 224.136 94.1059C224.429 93.6443 224.716 93.1702 224.997 92.6338C225.309 92.0466 225.574 91.4354 225.789 90.806C225.93 90.3997 226.036 89.9824 226.107 89.5584C226.217 88.9185 226.217 88.2646 226.107 87.6247C226.009 87.0567 225.839 86.5034 225.602 85.9779C225.452 85.6251 225.281 85.2815 225.091 84.9486C224.51 83.945 223.853 82.9877 223.126 82.0854C222.471 81.2432 221.816 80.4635 221.154 79.7025C219.813 78.2054 218.472 76.7644 217.075 75.3858C214.305 72.6224 211.461 70.0274 208.442 67.5384L202.678 74.2942L210.98 81.7797C212.34 83.0273 213.706 84.2749 214.979 85.5225C215.603 86.1463 216.226 86.7701 216.85 87.3939C217.363 87.9351 217.846 88.5036 218.298 89.0968C218.26 89.2029 218.223 89.3214 218.179 89.4337C218.048 89.7643 217.892 90.1261 217.73 90.4941C216.948 92.0809 216.084 93.6258 215.141 95.1227Z" fill="#263238"/>
<path d="M209.146 103.057C209.146 103.057 205.46 104.43 204.892 105.147C204.325 105.864 207.943 109.944 209.346 110.512C210.75 111.079 210.032 109.389 210.032 109.389C210.032 109.389 211.848 109.813 212.69 108.434C213.532 107.056 212.54 103.288 209.146 103.057Z" fill="#FF8B7B"/>
<path d="M120.58 210.712V220.356L124.472 220.662L126.381 211.635L120.58 210.712Z" fill="#FFC3BD"/>
<path d="M123.343 219.757C123.343 219.757 124.591 217.405 125.289 217.655C125.988 217.905 126.306 220.774 126.306 220.774C126.306 220.774 130.236 222.084 131.328 222.153C132.419 222.221 133.318 222.845 133.455 224.985H120.05C120.05 224.985 120.143 220.15 120.168 219.321C120.193 218.491 121.372 219.526 121.372 219.526L123.343 219.757Z" fill="#263238"/>
<path d="M120.199 221.148C120.438 221.28 120.648 221.46 120.815 221.676C120.983 221.892 121.104 222.14 121.173 222.404C121.241 222.669 121.255 222.944 121.213 223.214C121.171 223.484 121.074 223.743 120.929 223.974C120.921 223.985 120.915 223.998 120.912 224.011C120.909 224.025 120.909 224.038 120.911 224.052C120.914 224.065 120.919 224.078 120.927 224.09C120.935 224.101 120.945 224.111 120.956 224.118C120.968 224.125 120.981 224.13 120.994 224.132C121.008 224.134 121.022 224.134 121.035 224.13C121.048 224.126 121.061 224.12 121.072 224.112C121.082 224.103 121.091 224.092 121.098 224.08C121.261 223.827 121.37 223.544 121.42 223.247C121.47 222.951 121.458 222.647 121.387 222.355C121.315 222.063 121.184 221.789 121.002 221.549C120.821 221.309 120.592 221.109 120.33 220.961C120.218 220.893 120.087 221.08 120.199 221.148Z" fill="#FFFFF0"/>
<path d="M120.181 224.205L130.698 224.317H133.137C133.274 224.317 133.305 224.105 133.137 224.105L122.62 223.993H120.174C120.037 223.993 120.012 224.205 120.174 224.205H120.181Z" fill="#FFFFF0"/>
<path d="M125.726 221.604C125.829 221.448 125.962 221.315 126.117 221.213C126.273 221.111 126.447 221.041 126.631 221.009C126.814 220.976 127.002 220.981 127.183 221.023C127.364 221.065 127.535 221.144 127.685 221.254C127.785 221.342 127.916 221.155 127.816 221.073C127.124 220.506 126.182 220.749 125.558 221.498C125.464 221.61 125.633 221.716 125.726 221.604Z" fill="#FFFFF0"/>
<path d="M126.836 221.984C126.939 221.829 127.072 221.696 127.227 221.594C127.383 221.491 127.558 221.422 127.741 221.389C127.924 221.356 128.112 221.361 128.293 221.404C128.474 221.446 128.645 221.525 128.795 221.635C128.895 221.716 129.026 221.535 128.926 221.454C128.234 220.886 127.292 221.13 126.668 221.878C126.574 221.984 126.743 222.096 126.836 221.984Z" fill="#FFFFF0"/>
<path d="M127.984 222.302C128.086 222.146 128.219 222.013 128.374 221.91C128.53 221.807 128.705 221.737 128.888 221.704C129.072 221.672 129.26 221.677 129.441 221.72C129.623 221.762 129.793 221.842 129.943 221.953C130.043 222.034 130.174 221.853 130.074 221.772C129.382 221.204 128.44 221.448 127.816 222.19C127.722 222.302 127.891 222.408 127.984 222.302Z" fill="#FFFFF0"/>
<path d="M118.24 115.122C118.353 116.843 118.116 122.127 118.346 124.965C118.789 130.373 119.376 137.385 119.844 144.409C120.386 152.518 120.773 160.684 120.58 166.335C120.081 180.851 120.193 213.744 120.193 213.744H126.487C126.487 213.744 133.879 181.057 135.264 166.335C136.418 154.14 135.807 122.719 135.613 115.122H118.24Z" fill="#263238"/>
<path opacity="0.2" d="M118.24 115.122C118.353 116.843 118.116 122.127 118.346 124.965C118.789 130.373 119.376 137.385 119.844 144.409C120.386 152.518 120.773 160.684 120.58 166.335C120.081 180.851 120.193 213.744 120.193 213.744H126.487C126.487 213.744 133.879 181.057 135.264 166.335C136.418 154.14 135.807 122.719 135.613 115.122H118.24Z" fill="#FFFFF0"/>
<path opacity="0.2" d="M118.347 124.965C118.79 130.373 119.376 137.385 119.844 144.409C122.963 135.239 120.062 121.378 120.062 121.378L118.347 124.965Z" fill="black"/>
<path d="M119.644 213.962H127.03L127.573 211.604L119.451 211.504L119.644 213.962Z" fill="#FF9933"/>
<path d="M88.3983 208.909L86.9261 218.441L90.725 219.345L93.9875 210.712L88.3983 208.909Z" fill="#FFC3BD"/>
<path d="M89.7456 218.273C89.7456 218.273 91.3176 216.139 91.9913 216.495C92.665 216.85 92.5215 219.72 92.5215 219.72C92.5215 219.72 96.2019 221.591 97.2748 221.853C98.3478 222.115 99.1462 222.839 98.9466 224.972L85.6972 222.926C85.6972 222.926 86.5268 218.16 86.6765 217.343C86.8263 216.526 87.8306 217.736 87.8306 217.736L89.7456 218.273Z" fill="#263238"/>
<path d="M86.427 219.171C86.6432 219.338 86.823 219.547 86.9553 219.785C87.0877 220.024 87.1698 220.288 87.1967 220.559C87.2236 220.831 87.1946 221.105 87.1116 221.365C87.0286 221.625 86.8933 221.866 86.714 222.071C86.6266 222.184 86.7764 222.315 86.8637 222.202C87.0634 221.978 87.2152 221.716 87.3097 221.43C87.4042 221.145 87.4393 220.844 87.4131 220.545C87.3868 220.246 87.2996 219.955 87.1568 219.691C87.0141 219.427 86.8188 219.195 86.583 219.009C86.4832 218.921 86.3272 219.083 86.427 219.171Z" fill="#FFFFF0"/>
<path d="M85.9403 222.19L96.314 223.899L98.7281 224.298C98.8654 224.298 98.9215 224.118 98.7905 224.093L88.4105 222.377L85.9964 221.978C85.8655 221.978 85.8031 222.165 85.9403 222.19Z" fill="#FFFFF0"/>
<path d="M91.8228 220.462C91.9475 220.324 92.0989 220.214 92.2678 220.137C92.4368 220.059 92.6196 220.018 92.8053 220.013C92.9909 220.009 93.1755 220.043 93.3476 220.113C93.5198 220.182 93.6759 220.286 93.8065 220.418C93.8939 220.512 94.0498 220.35 93.9625 220.256C93.3699 219.595 92.403 219.689 91.6669 220.331C91.5608 220.425 91.7106 220.556 91.8228 220.462Z" fill="#FFFFF0"/>
<path d="M92.8646 220.974C92.9892 220.836 93.1408 220.725 93.31 220.647C93.4792 220.57 93.6624 220.529 93.8483 220.525C94.0342 220.522 94.2189 220.556 94.3909 220.627C94.5629 220.698 94.7185 220.803 94.8483 220.936C94.9356 221.03 95.0915 220.868 95.0104 220.774C94.3866 220.107 93.4447 220.206 92.7149 220.843C92.6026 220.942 92.7585 221.073 92.8646 220.974Z" fill="#FFFFF0"/>
<path d="M93.95 221.498C94.0742 221.359 94.2254 221.248 94.3944 221.17C94.5633 221.092 94.7464 221.05 94.9324 221.046C95.1183 221.042 95.3031 221.076 95.4753 221.146C95.6475 221.216 95.8035 221.321 95.9337 221.454C96.021 221.547 96.1769 221.385 96.0896 221.292C95.4658 220.624 94.5239 220.724 93.794 221.367C93.688 221.46 93.8377 221.591 93.95 221.498Z" fill="#FFFFF0"/>
<path d="M110.568 167.608C106.675 181.862 93.6007 212.69 93.6007 212.69L87.3627 211.61C87.3627 211.61 93.8252 179.535 96.8008 165.325C99.4893 152.499 102.415 123.05 103.394 114.279L124.217 116.151C123.106 123.636 113.768 155.781 110.537 167.602L110.568 167.608Z" fill="#263238"/>
<path opacity="0.2" d="M110.568 167.608C106.675 181.862 93.6007 212.69 93.6007 212.69L87.3627 211.61C87.3627 211.61 93.8252 179.535 96.8008 165.325C99.4893 152.499 102.415 123.05 103.394 114.279L124.217 116.151C123.106 123.636 113.768 155.781 110.537 167.602L110.568 167.608Z" fill="#FFFFF0"/>
<path d="M86.8199 211.735L94.0933 213.001L95.0353 210.775L86.9259 209.296L86.8199 211.735Z" fill="#FF9933"/>
<path d="M138.764 72.167C138.414 75.1799 137.84 81.5239 137.279 88.7038C137.073 91.4111 136.861 94.2494 136.655 97.0565C136.431 100.306 136.243 103.425 136.1 106.264C136.044 107.411 135.994 108.516 135.95 109.557C135.751 114.729 135.751 118.503 136.038 119.638C119.925 126.163 102.421 117.729 102.421 117.729C103.457 109.295 104.498 99.7076 104.498 99.7076C104.991 96.1145 105.465 92.484 105.889 89.0594C105.921 88.7849 105.958 88.5042 105.989 88.236C106.195 86.5517 106.382 84.9299 106.557 83.3953L106.619 82.8277C106.956 79.8023 107.243 77.1262 107.368 74.9866C107.655 70.9506 110.1 67.2016 113.749 66.5279C114.853 66.322 116.045 66.1411 117.28 66.0039C117.573 65.9602 117.904 65.9353 118.172 65.9041C121.657 65.5192 125.165 65.3753 128.671 65.4737H129.176H129.444C129.587 65.4737 129.737 65.4737 129.881 65.4737C131.273 65.5296 132.662 65.6587 134.041 65.8604C134.766 65.9628 135.464 66.2074 136.094 66.5802C136.724 66.9529 137.274 67.4465 137.713 68.0325C138.152 68.6185 138.47 69.2854 138.651 69.9949C138.831 70.7044 138.869 71.4426 138.764 72.167Z" fill="#FF9933"/>
<path opacity="0.3" d="M127.878 74.2692C127.882 74.3718 127.855 74.4731 127.801 74.5604C127.747 74.6477 127.668 74.7169 127.575 74.7593C127.481 74.8017 127.377 74.8153 127.276 74.7985C127.175 74.7817 127.081 74.7351 127.006 74.6648C126.931 74.5944 126.879 74.5034 126.856 74.4034C126.833 74.3033 126.841 74.1987 126.877 74.1028C126.914 74.007 126.978 73.9242 127.062 73.8649C127.146 73.8057 127.245 73.7727 127.348 73.7701C127.484 73.7668 127.616 73.8173 127.716 73.9107C127.815 74.0041 127.873 74.133 127.878 74.2692Z" fill="#FFFFF0"/>
<path opacity="0.3" d="M127.959 77.463C127.963 77.5656 127.936 77.667 127.882 77.7542C127.828 77.8415 127.749 77.9107 127.656 77.9531C127.562 77.9955 127.458 78.0092 127.357 77.9923C127.256 77.9755 127.162 77.929 127.087 77.8586C127.012 77.7883 126.96 77.6973 126.937 77.5972C126.914 77.4972 126.922 77.3926 126.958 77.2967C126.995 77.2008 127.059 77.118 127.143 77.0588C127.227 76.9995 127.327 76.9665 127.429 76.964C127.565 76.9606 127.698 77.0111 127.797 77.1046C127.896 77.198 127.954 77.3268 127.959 77.463Z" fill="#FFFFF0"/>
<path opacity="0.3" d="M128.065 80.6569C128.069 80.7594 128.042 80.8608 127.988 80.948C127.934 81.0353 127.855 81.1045 127.762 81.1469C127.668 81.1893 127.564 81.203 127.463 81.1861C127.362 81.1693 127.268 81.1228 127.193 81.0524C127.118 80.9821 127.066 80.8911 127.043 80.7911C127.02 80.691 127.028 80.5864 127.064 80.4905C127.101 80.3946 127.165 80.3118 127.249 80.2526C127.333 80.1933 127.433 80.1604 127.535 80.1578C127.671 80.1544 127.804 80.205 127.903 80.2984C128.002 80.3918 128.06 80.5206 128.065 80.6569Z" fill="#FFFFF0"/>
<path opacity="0.2" d="M118.241 80.8877C118.241 80.8877 118.864 94.7859 119.937 95.8588C121.01 96.9317 134.072 102.184 134.072 102.184C126.587 101.317 119.906 100.138 116.606 97.6179C115.402 94.2494 117.13 87.1755 118.241 80.8877Z" fill="black"/>
<path opacity="0.2" d="M136.119 106.264C136.062 107.412 136.013 108.516 135.969 109.557C131.359 109.258 114.242 109.021 109.539 102.259C106.788 98.2978 108.135 82.1478 108.135 82.1478C109.822 87.7129 112.907 92.7532 117.095 96.788C121.282 100.823 126.434 103.718 132.058 105.197L136.119 106.264Z" fill="black"/>
<path d="M161.607 87.8118C159.598 87.6933 157.59 87.581 155.65 87.4001C154.695 87.3065 153.728 87.2067 152.911 87.082L152.531 87.0134C152.481 86.9529 152.427 86.8966 152.369 86.8449C151.951 86.4457 151.308 85.7782 150.728 85.0983C150.148 84.4184 149.524 83.6636 148.919 82.9088C147.703 81.4054 146.499 79.8272 145.295 78.2428C142.899 75.0677 140.485 71.8052 138.052 68.6613L129.943 74.5125C132.326 77.9683 134.84 81.2183 137.541 84.4308C138.888 86.034 140.279 87.606 141.752 89.1779C142.5 89.9577 143.261 90.7249 144.085 91.5109C144.977 92.3816 145.932 93.1863 146.942 93.9188C147.241 94.1309 147.565 94.3617 148.033 94.6112L148.401 94.8108L148.863 95.0167C149.013 95.079 149.262 95.1664 149.487 95.2287L149.705 95.2849L149.892 95.3286C150.622 95.4873 151.366 95.5792 152.113 95.603C153.323 95.6654 154.402 95.603 155.488 95.603C157.633 95.5095 159.711 95.3535 161.782 95.1414C164.318 94.8836 166.841 94.5758 169.348 94.2182L170.028 93.9125L170.652 93.6194C170.783 93.4349 170.904 93.2433 171.014 93.0455C171.432 92.3468 171.875 91.4922 172.299 90.6189C172.636 89.9327 172.979 89.2216 173.303 88.498C169.404 88.2048 165.475 88.0301 161.607 87.8118ZM152.1 86.8886H152.138C152.218 86.9081 152.298 86.9331 152.375 86.9634H152.443C152.326 86.9539 152.211 86.9287 152.1 86.8886Z" fill="#FF9933"/>
<path opacity="0.2" d="M139.119 86.2523L137.709 76.4899L137.422 84.2811L139.119 86.2523Z" fill="black"/>
<path d="M129.513 43.8342C128.349 43.4901 127.126 43.3884 125.921 43.5354C124.717 43.6824 123.555 44.0749 122.507 44.6888C121.135 45.5184 119.975 46.7223 120.112 48.4315C120.527 51.9604 121.14 55.4633 121.946 58.9238L134.908 52.062C134.908 52.062 135.676 48.6935 133.979 46.6787C132.824 45.287 131.262 44.2922 129.513 43.8342Z" fill="#263238"/>
<path d="M124.51 43.8217C123.699 43.8167 122.896 43.9804 122.151 44.3026C121.407 44.6248 120.738 45.0983 120.187 45.6931C118.771 47.3461 120.517 51.588 120.517 51.588L124.51 43.8217Z" fill="#263238"/>
<path d="M123.193 44.3207C123.193 44.3207 123.692 42.5803 128.982 42.5803C134.272 42.5803 137.497 42.518 136.83 45.5683C135.95 49.6105 129.481 48.1321 129.481 48.1321L123.193 44.3207Z" fill="#263238"/>
<path d="M128.084 63.4526V63.4962L127.379 65.7357C127.312 66.1899 127.285 66.6491 127.298 67.108C127.312 67.4784 127.352 67.8473 127.417 68.2122C127.885 68.917 128.041 70.4765 126.281 70.4017C124.042 70.3143 120.043 67.0644 119.956 66.0725C121.129 63.0658 122.189 59.3293 122.158 56.4037L124.578 59.2794L128.084 63.4526Z" fill="#FFC3BD"/>
<g opacity="0.2">
<path d="M128.065 63.5025L127.36 65.7419C125.994 65.0432 124.591 63.596 124.329 62.0927C124.142 61.0135 124.672 60.0279 125.109 59.9905L128.065 63.5025Z" fill="black"/>
</g>
<path d="M133.942 59.0174C133.786 59.5039 133.617 59.978 133.436 60.4521C131.833 64.6128 126.575 64.7625 123.499 61.5001C123.219 61.2011 122.96 60.8821 122.726 60.5457C120.792 57.7448 121.403 55.68 121.927 50.9642C122.037 49.866 122.426 48.814 123.056 47.9085C123.687 47.0029 124.539 46.2738 125.531 45.7905C126.524 45.3072 127.623 45.0858 128.725 45.1474C129.827 45.2089 130.895 45.5514 131.827 46.1422C135.67 48.5688 135.495 54.1455 133.942 59.0174Z" fill="#FFC3BD"/>
<path d="M128.153 56.9152C129.145 57.4851 130.168 58.0015 131.216 58.4622C131.083 58.6589 130.911 58.826 130.711 58.953C130.51 59.0799 130.286 59.1639 130.051 59.1997C129.817 59.2354 129.578 59.2222 129.348 59.1607C129.119 59.0993 128.905 58.991 128.72 58.8427C128.444 58.6151 128.242 58.3097 128.141 57.9661C128.039 57.6225 128.044 57.2564 128.153 56.9152Z" fill="#FFFFF0"/>
<path d="M132.195 45.6682C130.005 44.0525 125.489 43.541 123.562 45.6682C121.634 47.7953 121.846 51.3697 121.846 51.3697C121.843 51.7578 121.988 52.1325 122.252 52.4176C122.306 52.4699 122.356 52.5262 122.401 52.5861L124.734 52.8231C124.859 51.8562 125.134 50.0971 125.776 49.9661C126.986 49.7166 126.069 48.4253 126.288 47.6581C126.98 45.1629 133.773 46.4105 134.74 50.1096C134.46 48.3688 133.555 46.7898 132.195 45.6682Z" fill="#263238"/>
<path d="M119.37 53.7151C119.505 54.8999 120.104 55.983 121.035 56.728C122.283 57.7074 123.53 56.728 123.668 55.2496C123.811 53.9085 123.337 51.7876 121.846 51.3883C121.517 51.3045 121.172 51.3047 120.843 51.3889C120.514 51.4731 120.211 51.6386 119.963 51.8702C119.715 52.1018 119.528 52.3922 119.421 52.7145C119.315 53.0369 119.29 53.3809 119.351 53.7151" fill="#FFC3BD"/>
<path d="M128.92 53.3907C128.858 53.7525 129.001 54.0831 129.238 54.1206C129.475 54.158 129.718 53.9023 129.781 53.5405C129.843 53.1786 129.7 52.848 129.463 52.8106C129.226 52.7732 128.982 53.0289 128.92 53.3907Z" fill="#263238"/>
<path d="M132.756 54.0457C132.694 54.4075 132.831 54.7381 133.068 54.7755C133.305 54.813 133.549 54.5572 133.611 54.1954C133.673 53.8336 133.536 53.503 133.299 53.4656C133.062 53.4282 132.819 53.6839 132.756 54.0457Z" fill="#263238"/>
<path d="M134.316 52.8605C134.282 52.8548 134.25 52.8403 134.224 52.8184C134.198 52.7965 134.178 52.7679 134.166 52.7358C134.134 52.6032 134.074 52.479 133.99 52.3715C133.906 52.2639 133.8 52.1754 133.68 52.112C133.43 52.0214 133.156 52.0214 132.906 52.112C132.86 52.1287 132.809 52.127 132.763 52.1073C132.718 52.0875 132.682 52.0513 132.663 52.0059C132.654 51.983 132.649 51.9585 132.65 51.9338C132.65 51.9092 132.655 51.8848 132.665 51.8622C132.675 51.8396 132.689 51.8192 132.707 51.8021C132.725 51.785 132.746 51.7716 132.769 51.7626C133.112 51.6287 133.493 51.6287 133.836 51.7626C134 51.8437 134.147 51.9583 134.265 52.0989C134.383 52.2396 134.47 52.4034 134.522 52.5798C134.531 52.6031 134.535 52.628 134.534 52.653C134.533 52.6779 134.527 52.7024 134.517 52.7251C134.506 52.7478 134.491 52.7681 134.473 52.785C134.455 52.8018 134.433 52.8148 134.409 52.8231C134.381 52.8421 134.349 52.8549 134.316 52.8605Z" fill="#263238"/>
<path d="M128.047 51.7751C128.015 51.7692 127.985 51.7564 127.959 51.7377C127.938 51.7222 127.92 51.7027 127.906 51.6801C127.892 51.6576 127.883 51.6326 127.879 51.6064C127.875 51.5803 127.876 51.5537 127.882 51.528C127.889 51.5024 127.9 51.4782 127.916 51.457C128.151 51.1321 128.501 50.9091 128.895 50.8332C129.093 50.8089 129.295 50.8263 129.486 50.8843C129.677 50.9423 129.854 51.0397 130.005 51.17C130.03 51.1851 130.051 51.2051 130.068 51.2289C130.084 51.2527 130.095 51.2797 130.101 51.3082C130.106 51.3366 130.105 51.3658 130.099 51.394C130.092 51.4221 130.079 51.4485 130.062 51.4714C130.044 51.4944 130.022 51.5133 129.996 51.5271C129.971 51.5408 129.943 51.549 129.914 51.5512C129.885 51.5534 129.856 51.5494 129.829 51.5396C129.802 51.5299 129.777 51.5144 129.756 51.4944C129.648 51.4002 129.522 51.329 129.386 51.285C129.25 51.241 129.106 51.2253 128.964 51.2386C128.68 51.2986 128.427 51.4551 128.246 51.6815C128.226 51.715 128.196 51.7417 128.161 51.7584C128.125 51.775 128.085 51.7808 128.047 51.7751Z" fill="#263238"/>
<path d="M131.415 53.3283C131.587 54.2842 131.878 55.2148 132.282 56.098C132.862 57.2208 130.841 56.9152 130.841 56.9152L131.415 53.3283Z" fill="#ED847E"/>
<path d="M141.496 104.024L141.04 108.497C136.399 108.532 131.762 108.242 127.161 107.63C124.789 107.328 122.438 106.886 120.118 106.307C118.876 106.007 117.655 105.625 116.463 105.166C115.799 104.912 115.149 104.622 114.517 104.299C113.766 103.922 113.055 103.471 112.396 102.951C112.202 102.789 112.021 102.646 111.822 102.452L111.522 102.172L111.223 101.841C111.014 101.6 110.818 101.348 110.637 101.086C110.43 100.776 110.246 100.451 110.088 100.113C109.906 99.7308 109.762 99.3318 109.657 98.9216L109.514 98.354C109.42 97.986 109.37 97.6741 109.295 97.331C109.046 96.0148 108.884 94.8358 108.746 93.5882C108.478 91.2053 108.341 88.8785 108.241 86.5642L108.141 83.1022V79.6651C108.141 77.357 108.21 75.0926 108.372 72.7659L118.353 73.1277C118.353 77.5317 118.247 82.0168 118.203 86.4083C118.203 88.6041 118.203 90.7749 118.203 92.9083C118.203 93.9562 118.272 95.0042 118.365 95.9149C118.365 96.1083 118.365 96.3267 118.422 96.5013C118.878 96.8413 119.362 97.1418 119.869 97.3996C120.741 97.8492 121.637 98.2531 122.551 98.6097C124.472 99.3708 126.531 100.032 128.621 100.656C132.819 101.91 137.192 102.983 141.496 104.024Z" fill="#FF9933"/>
<path d="M140.828 104.124C140.828 104.124 145.469 102.908 146.442 103.107C147.54 103.332 147.035 109.114 145.613 109.907C144.19 110.699 140.66 108.135 140.66 108.135C139.849 106.251 140.105 104.71 140.828 104.124Z" fill="#FFC3BD"/>
<path d="M140.828 104.124C141.429 103.485 142.15 102.97 142.949 102.608C143.991 102.24 145.014 101.698 145.488 101.885C145.962 102.072 144.34 103.319 144.34 103.319L140.828 104.124Z" fill="#FFC3BD"/>
<path d="M146.449 103.107C146.449 103.107 149.299 103.912 150.192 105.091C151.084 106.27 148.545 105.553 148.545 105.553C148.545 105.553 151.514 106.638 150.291 108.909C149.668 110.019 146.262 110.237 144.677 110.038C144.721 110.038 144.721 105.203 146.449 103.107Z" fill="#FFC3BD"/>
<path d="M120.623 64.2074C119.949 64.2491 119.295 64.4543 118.718 64.8054C118.141 65.1564 117.658 65.6427 117.311 66.2222L123.462 73.4582C123.462 73.4582 123.418 70.8445 126.793 70.3393C126.793 70.4016 122.264 67.0768 120.623 64.2074Z" fill="#FF9933"/>
<path opacity="0.3" d="M120.623 64.2074C119.949 64.2491 119.295 64.4543 118.718 64.8054C118.141 65.1564 117.658 65.6427 117.311 66.2222L123.462 73.4582C123.462 73.4582 123.418 70.8445 126.793 70.3393C126.793 70.4016 122.264 67.0768 120.623 64.2074Z" fill="#FFFFF0"/>
<path d="M126.793 70.4017C126.793 70.4017 127.186 66.3407 127.454 65.4737L127.803 64.3633C127.803 64.3633 130.224 64.4007 131.053 65.6109L130.729 71.799C129.582 70.9574 128.213 70.4715 126.793 70.4017Z" fill="#FF9933"/>
<path opacity="0.3" d="M126.793 70.4017C126.793 70.4017 127.186 66.3407 127.454 65.4737L127.803 64.3633C127.803 64.3633 130.224 64.4007 131.053 65.6109L130.729 71.799C129.582 70.9574 128.213 70.4715 126.793 70.4017Z" fill="#FFFFF0"/>
</svg>
