<svg width="306" height="229" viewBox="0 0 306 229" fill="none" xmlns="http://www.w3.org/2000/svg">
<path d="M306 200.369H0V200.522H306V200.369Z" fill="#EBEBEB"/>
<path d="M275.339 210.216H262.071V210.369H275.339V210.216Z" fill="#EBEBEB"/>
<path d="M210.938 207.046H190.063V207.199H210.938V207.046Z" fill="#EBEBEB"/>
<path d="M269.965 204.536H242.713V204.689H269.965V204.536Z" fill="#EBEBEB"/>
<path d="M105.888 207.621H99.0706V207.774H105.888V207.621Z" fill="#EBEBEB"/>
<path d="M93.6176 207.621H70.1229V207.774H93.6176V207.621Z" fill="#EBEBEB"/>
<path d="M57.5342 205.038H40.5818V205.191H57.5342V205.038Z" fill="#EBEBEB"/>
<path d="M145.044 173.074H26.8729C25.9471 173.072 25.0598 172.703 24.4058 172.048C23.7518 171.393 23.3845 170.505 23.3845 169.579V3.46392C23.3925 2.54349 23.7634 1.6634 24.4166 1.01483C25.0697 0.366256 25.9524 0.00157675 26.8729 0H145.044C145.971 0 146.86 0.368172 147.515 1.02352C148.17 1.67887 148.538 2.56772 148.538 3.49452V169.579C148.538 170.506 148.17 171.395 147.515 172.05C146.86 172.705 145.971 173.074 145.044 173.074ZM26.8729 0.1224C25.9877 0.124022 25.1393 0.476788 24.514 1.10327C23.8887 1.72975 23.5375 2.57875 23.5375 3.46392V169.579C23.5375 170.464 23.8887 171.313 24.514 171.94C25.1393 172.566 25.9877 172.919 26.8729 172.921H145.044C145.93 172.919 146.779 172.566 147.405 171.94C148.031 171.314 148.384 170.465 148.385 169.579V3.46392C148.384 2.57819 148.031 1.7292 147.405 1.1029C146.779 0.476589 145.93 0.124018 145.044 0.1224H26.8729Z" fill="#EBEBEB"/>
<path d="M277.426 173.074H159.249C158.322 173.072 157.434 172.703 156.779 172.048C156.124 171.393 155.756 170.505 155.754 169.579V3.46392C155.764 2.54293 156.136 1.66285 156.79 1.01445C157.444 0.366042 158.328 0.00155955 159.249 0H277.426C278.345 0.00318515 279.226 0.368576 279.878 1.01698C280.53 1.66538 280.9 2.54454 280.908 3.46392V169.579C280.908 170.504 280.542 171.391 279.889 172.046C279.236 172.701 278.35 173.07 277.426 173.074ZM159.249 0.1224C158.363 0.124018 157.514 0.476589 156.888 1.1029C156.261 1.7292 155.909 2.57819 155.907 3.46392V169.579C155.909 170.465 156.261 171.314 156.888 171.94C157.514 172.566 158.363 172.919 159.249 172.921H277.426C278.311 172.919 279.16 172.566 279.787 171.94C280.413 171.314 280.766 170.465 280.767 169.579V3.46392C280.766 2.57819 280.413 1.7292 279.787 1.1029C279.16 0.476589 278.311 0.124018 277.426 0.1224H159.249Z" fill="#EBEBEB"/>
<path d="M44.2721 16.2057H42.3871V200.369H44.2721V16.2057Z" fill="#E0E0E0"/>
<path d="M120.142 16.2057H44.2782V200.369H120.142V16.2057Z" fill="#F5F5F5"/>
<path d="M116.145 200.369L116.145 20.202L48.2746 20.202L48.2746 200.369H116.145Z" fill="#F0F0F0"/>
<path d="M99.2174 108.165H108.324C108.936 108.163 109.523 107.92 109.956 107.488C110.389 107.056 110.634 106.47 110.637 105.858C110.636 105.245 110.391 104.657 109.958 104.224C109.524 103.79 108.937 103.546 108.324 103.544H99.2174C98.6054 103.548 98.0195 103.793 97.5873 104.226C97.1552 104.659 96.9118 105.246 96.9102 105.858C96.9134 106.469 97.1575 107.054 97.5895 107.486C98.0215 107.918 98.6065 108.162 99.2174 108.165Z" fill="#E0E0E0"/>
<path d="M99.8783 106.892H109.009C109.621 106.889 110.207 106.644 110.639 106.21C111.072 105.777 111.315 105.19 111.317 104.578C111.313 103.968 111.069 103.383 110.637 102.951C110.205 102.519 109.62 102.274 109.009 102.271H99.8783C99.2674 102.274 98.6824 102.519 98.2504 102.951C97.8184 103.383 97.5743 103.968 97.5711 104.578C97.5727 105.19 97.8161 105.777 98.2483 106.21C98.6805 106.644 99.2664 106.889 99.8783 106.892Z" fill="white"/>
<path d="M116.145 196.366L116.145 20.202H115.111L115.111 196.366H116.145Z" fill="#F0F0F0"/>
<path d="M175.148 117.834L266.905 117.834V22.8704L175.148 22.8704V117.834Z" fill="#E6E6E6"/>
<path d="M173.104 117.834L264.861 117.834V22.8704L173.104 22.8704V117.834Z" fill="#F5F5F5"/>
<path d="M261.202 113.728V26.9832L176.764 26.9832V113.728H261.202Z" fill="white"/>
<path d="M178.306 113.722V26.9771H176.764V113.722H178.306Z" fill="#E6E6E6"/>
<path d="M174.616 72.7485L263.344 72.7485V67.2283L174.616 67.2283V72.7485Z" fill="#F5F5F5"/>
<path d="M169.114 16.0649H270.89C271.039 16.0649 271.182 16.1242 271.288 16.2298C271.393 16.3354 271.453 16.4786 271.453 16.6279C271.453 16.7773 271.393 16.9205 271.288 17.0261C271.182 17.1317 271.039 17.191 270.89 17.191H169.114C168.965 17.191 168.821 17.1317 168.716 17.0261C168.61 16.9205 168.551 16.7773 168.551 16.6279C168.551 16.4786 168.61 16.3354 168.716 16.2298C168.821 16.1242 168.965 16.0649 169.114 16.0649Z" fill="#E6E6E6"/>
<path d="M165.736 16.6279C165.736 17.1847 165.901 17.729 166.21 18.192C166.52 18.6549 166.959 19.0157 167.474 19.2288C167.988 19.4419 168.554 19.4976 169.1 19.389C169.646 19.2804 170.148 19.0123 170.542 18.6186C170.935 18.2248 171.203 17.7232 171.312 17.1771C171.421 16.631 171.365 16.065 171.152 15.5506C170.939 15.0362 170.578 14.5965 170.115 14.2872C169.652 13.9778 169.108 13.8127 168.551 13.8127C168.181 13.8127 167.815 13.8855 167.474 14.027C167.132 14.1685 166.822 14.3758 166.56 14.6373C166.299 14.8987 166.092 15.209 165.95 15.5506C165.809 15.8921 165.736 16.2582 165.736 16.6279Z" fill="#E6E6E6"/>
<path d="M266.14 19.7861C266.342 19.7845 266.535 19.7032 266.677 19.5599C266.82 19.4166 266.899 19.2229 266.899 19.0211V17.3871C266.898 17.1863 266.817 16.9942 266.675 16.8522C266.533 16.7102 266.341 16.6298 266.14 16.6282C265.94 16.6298 265.748 16.7102 265.606 16.8522C265.464 16.9942 265.383 17.1863 265.382 17.3871V19.0211C265.382 19.2229 265.461 19.4166 265.603 19.5599C265.746 19.7032 265.939 19.7845 266.14 19.7861Z" fill="#E6E6E6"/>
<path d="M177.615 19.7861C177.816 19.7845 178.009 19.7032 178.152 19.5599C178.294 19.4166 178.373 19.2229 178.373 19.0211V17.3871C178.372 17.1863 178.291 16.9942 178.149 16.8522C178.007 16.7102 177.815 16.6298 177.615 16.6282C177.416 16.6329 177.227 16.7148 177.088 16.8564C176.948 16.9981 176.869 17.1884 176.868 17.3871V19.0211C176.868 19.2208 176.946 19.4127 177.085 19.5556C177.225 19.6986 177.415 19.7813 177.615 19.7861Z" fill="#E6E6E6"/>
<path opacity="0.5" d="M169.291 103.722L263.344 103.722V16.6282L169.291 16.6282V103.722Z" fill="#E0E0E0"/>
<path d="M254.262 16.6279C254.26 17.1864 254.425 17.7328 254.735 18.1977C255.044 18.6626 255.485 19.0251 256 19.2394C256.516 19.4537 257.084 19.5101 257.632 19.4014C258.18 19.2928 258.683 19.0239 259.078 18.629C259.473 18.2341 259.742 17.7308 259.85 17.1829C259.959 16.6351 259.903 16.0673 259.688 15.5515C259.474 15.0358 259.111 14.5952 258.647 14.2856C258.182 13.9761 257.635 13.8115 257.077 13.8127C256.33 13.8127 255.614 14.1093 255.086 14.6373C254.558 15.1652 254.262 15.8813 254.262 16.6279Z" fill="#E6E6E6"/>
<path d="M251.41 198.539H271.642V138.93H251.41V198.539Z" fill="#F0F0F0"/>
<path d="M138.796 200.369L270.278 200.369V198.539L138.796 198.539V200.369Z" fill="#F0F0F0"/>
<path d="M251.41 138.93H137.431V198.539H251.41V138.93Z" fill="#F5F5F5"/>
<path d="M243.447 162.425H145.381V175.044H243.447V162.425Z" fill="#F0F0F0"/>
<path d="M243.447 178.673H145.381V191.293H243.447V178.673Z" fill="#F0F0F0"/>
<path d="M172.455 164.628H216.379C216.74 164.626 217.085 164.482 217.34 164.226C217.594 163.97 217.737 163.624 217.737 163.263C217.736 162.903 217.592 162.559 217.338 162.304C217.083 162.05 216.739 161.906 216.379 161.905H172.455C172.096 161.906 171.751 162.05 171.497 162.304C171.242 162.559 171.098 162.903 171.097 163.263C171.097 163.624 171.24 163.97 171.494 164.226C171.749 164.482 172.095 164.626 172.455 164.628Z" fill="#F5F5F5"/>
<path d="M243.447 146.182H145.381V158.802H243.447V146.182Z" fill="#F0F0F0"/>
<path d="M172.455 148.355H216.379C216.739 148.353 217.083 148.21 217.338 147.955C217.592 147.701 217.736 147.356 217.737 146.996C217.737 146.635 217.594 146.289 217.34 146.033C217.085 145.778 216.74 145.633 216.379 145.631H172.455C172.095 145.633 171.749 145.778 171.494 146.033C171.24 146.289 171.097 146.635 171.097 146.996C171.098 147.356 171.242 147.701 171.497 147.955C171.751 148.21 172.096 148.353 172.455 148.355Z" fill="#F5F5F5"/>
<path d="M172.455 180.846H216.379C216.739 180.844 217.083 180.701 217.338 180.446C217.592 180.192 217.736 179.847 217.737 179.487C217.737 179.127 217.594 178.78 217.34 178.525C217.085 178.269 216.74 178.124 216.379 178.123H172.455C172.095 178.124 171.749 178.269 171.494 178.525C171.24 178.78 171.097 179.127 171.097 179.487C171.098 179.847 171.242 180.192 171.497 180.446C171.751 180.701 172.096 180.844 172.455 180.846Z" fill="#F5F5F5"/>
<path d="M135.637 138.936H251.41V137.235H135.637V138.936Z" fill="#F0F0F0"/>
<path d="M273.564 137.229H251.403V138.93H273.564V137.229Z" fill="#E6E6E6"/>
<path d="M237.248 93.5382H234.647V135.693H237.248V93.5382Z" fill="#E6E6E6"/>
<path d="M245.014 137.229H226.875L228.19 135.344H243.698L245.014 137.229Z" fill="#E6E6E6"/>
<path d="M242.695 112.039C242.609 112.039 242.524 112.022 242.445 111.989C242.366 111.956 242.294 111.907 242.234 111.847C242.174 111.786 242.126 111.713 242.094 111.634C242.061 111.555 242.045 111.47 242.046 111.384V91.6102C242.045 91.5245 242.061 91.4395 242.094 91.3601C242.126 91.2806 242.174 91.2084 242.234 91.1475C242.294 91.0866 242.366 91.0383 242.445 91.0053C242.524 90.9723 242.609 90.9553 242.695 90.9554C242.867 90.957 243.032 91.0267 243.154 91.1493C243.275 91.2719 243.343 91.4376 243.343 91.6102V111.384C243.343 111.557 243.275 111.722 243.154 111.845C243.032 111.967 242.867 112.037 242.695 112.039Z" fill="#E0E0E0"/>
<path d="M217.009 98.4525C217.009 98.4525 217.486 79.8355 235.944 79.8355C254.402 79.8355 254.916 98.4525 254.916 98.4525H217.009Z" fill="white"/>
<path d="M153 228.007C218.534 228.007 271.661 224.905 271.661 221.079C271.661 217.253 218.534 214.151 153 214.151C87.4655 214.151 34.3393 217.253 34.3393 221.079C34.3393 224.905 87.4655 228.007 153 228.007Z" fill="#F5F5F5"/>
<path d="M128.208 38.8071C124.157 36.3591 128.961 33.911 127.749 31.3345C125.246 25.9612 129.665 21.7322 137.174 24.6025C144.818 27.4973 143.502 29.5414 147.755 28.6478C152.009 27.7543 151.525 30.9123 150.974 31.8731C156.531 32.2158 160.424 37.9502 152.706 48.0605C146.366 56.3653 148.165 60.3862 148.165 60.3862L131.58 40.282C131.58 40.282 131.115 35.1473 130.283 32.5402C130.283 35.6981 126.366 36.1387 128.208 38.8071Z" fill="#263238"/>
<path d="M150.895 26.9281C153.3 28.4948 152.309 30.9122 148.526 32.6748L150.258 33.8988C154.102 32.326 154.469 27.9624 150.895 26.9281Z" fill="#263238"/>
<path d="M153.612 46.8059C150.76 51.2123 147.933 56.9223 151.017 56.0777C149.218 59.9333 145.258 59.2663 144.536 55.7656C143.814 52.265 153.612 46.8059 153.612 46.8059Z" fill="#263238"/>
<path d="M136.476 108.777C136.476 108.777 93.33 126.109 93.4708 147.633C93.991 171.831 94.0828 212.848 94.0828 212.848H100.203C100.203 212.848 112.394 177.719 110.423 150.32C139.75 138.263 152.7 133.128 152.7 133.128L154.536 110.631L136.476 108.777Z" fill="#FF9933"/>
<path opacity="0.2" d="M142.559 137.192C149.457 134.408 152.682 133.128 152.682 133.128L153.569 122.217C146.446 125.937 142.027 130.968 142.559 137.192Z" fill="black"/>
<path d="M141.097 110.631C141.097 110.631 152.945 147.81 164.965 168.074C174.604 184.292 221.269 211.312 222.682 212.37L226.177 208.405C226.177 208.405 205.73 178.814 183.692 163.031C179.499 144.776 173.897 126.875 166.935 109.487L141.097 110.631Z" fill="#FF9933"/>
<path opacity="0.4" d="M223.613 207.04C223.59 207.039 223.569 207.034 223.548 207.025C223.528 207.015 223.511 207.002 223.496 206.985C191.574 171.164 180.173 163.171 180.044 163.098C180.027 163.086 180.013 163.071 180.002 163.053C179.992 163.035 179.985 163.015 179.983 162.994C179.953 162.786 177.015 142.437 163.459 115.356C163.446 115.333 163.439 115.306 163.439 115.279C163.439 115.253 163.446 115.226 163.459 115.203C163.473 115.182 163.492 115.164 163.515 115.151C163.537 115.138 163.562 115.131 163.588 115.129C167.431 115.099 168.19 113.024 168.196 113.006C168.211 112.968 168.239 112.938 168.275 112.92C168.312 112.902 168.353 112.898 168.392 112.908C168.411 112.914 168.429 112.924 168.445 112.937C168.46 112.951 168.473 112.967 168.482 112.985C168.491 113.003 168.497 113.023 168.498 113.044C168.499 113.064 168.497 113.084 168.49 113.104C168.459 113.196 167.7 115.313 163.839 115.435C176.917 141.678 180.051 161.58 180.246 162.884C181.146 163.526 192.878 172.211 223.698 206.783C223.726 206.811 223.742 206.85 223.742 206.89C223.742 206.93 223.726 206.968 223.698 206.997C223.676 207.021 223.645 207.036 223.613 207.04Z" fill="white"/>
<path d="M232.842 215.687C229.996 213.013 227.266 208.637 223.98 203.349C223.874 203.178 223.733 203.03 223.566 202.917C223.399 202.803 223.21 202.726 223.012 202.69C222.813 202.655 222.609 202.661 222.413 202.709C222.217 202.757 222.034 202.846 221.875 202.97C219.531 204.806 214.898 208.668 216.281 210.02C219.604 213.251 221.63 215.412 216.22 216.14C213.129 216.556 215.136 219.549 217.444 219.549C223.178 219.549 222.768 219.457 226.012 219.347C228.772 219.255 229.433 219.598 231.654 219.549C233.478 219.512 234.396 217.138 232.842 215.687Z" fill="#263238"/>
<path d="M103.085 215.155C102.608 213.319 101.947 213.931 102.939 208.288C102.99 207.999 102.981 207.702 102.914 207.417C102.846 207.131 102.721 206.862 102.545 206.626C102.37 206.391 102.148 206.193 101.894 206.047C101.639 205.9 101.358 205.807 101.066 205.773C97.9079 205.412 92.6141 205.075 92.7671 206.887C93.1527 211.569 88.8748 215.859 81.9837 216.354C78.9237 216.575 80.6128 219.555 82.8711 219.549C88.5137 219.549 92.5162 219.243 95.7231 219.31C98.4403 219.365 99.4501 219.598 101.641 219.549C103.428 219.506 103.624 217.26 103.085 215.155Z" fill="#263238"/>
<path d="M131.58 49.3824L130.472 50.9613C130.472 50.9613 128.08 55.3432 124.732 56.9222L123.985 56.2123C123.386 55.6421 122.924 54.9445 122.631 54.1711C122.339 53.3977 122.224 52.5684 122.296 51.7447L123.698 47.4607L126.115 44.878C126.442 44.5309 126.889 44.3212 127.366 44.2917C127.842 44.2621 128.312 44.4149 128.679 44.7189L131.237 46.8364C131.61 47.1362 131.853 47.5674 131.916 48.0411C131.98 48.5147 131.86 48.9948 131.58 49.3824Z" fill="#FFB573"/>
<path d="M139.952 75.6983L139.028 76.0349L138.184 76.3226C137.62 76.5123 137.057 76.6775 136.501 76.8428C135.374 77.1732 134.242 77.4548 133.098 77.6996C130.772 78.2114 128.411 78.547 126.035 78.7032C123.514 78.8886 120.979 78.7777 118.483 78.3728C115.66 77.9458 112.96 76.9214 110.564 75.3678L110.289 75.1842C109.535 74.688 108.942 73.9821 108.585 73.1535C108.227 72.3249 108.119 71.4098 108.275 70.5208C108.499 69.2689 108.884 68.0511 109.42 66.8978C109.871 65.9167 110.386 64.9661 110.962 64.052C112.02 62.3996 113.202 60.8303 114.499 59.3579C115.76 57.9381 117.068 56.6019 118.422 55.3493C119.781 54.0797 121.212 52.8884 122.706 51.7814C123.222 51.4158 123.848 51.2394 124.479 51.2818C125.11 51.3243 125.707 51.583 126.169 52.0144C126.632 52.4458 126.931 53.0235 127.017 53.65C127.103 54.2764 126.97 54.9134 126.641 55.4534L126.574 55.5635C125.668 56.965 124.689 58.4216 123.783 59.8475C122.877 61.2735 121.984 62.7178 121.176 64.1315C120.381 65.4952 119.663 66.903 119.028 68.3482C118.753 68.9809 118.52 69.6311 118.33 70.2944C118.181 70.7706 118.094 71.2644 118.073 71.7632L115.79 66.9161C117.088 67.5065 118.481 67.857 119.903 67.9504C120.743 68.0245 121.588 68.0429 122.431 68.0055C123.306 68.0055 124.205 67.932 125.117 67.8219C126.989 67.6019 128.846 67.275 130.68 66.8427C131.623 66.6346 132.553 66.3898 133.483 66.1389L134.866 65.7411L135.54 65.5452L136.152 65.3555L136.433 65.2698C137.759 64.9726 139.147 65.1756 140.332 65.8399C141.517 66.5041 142.414 67.5827 142.852 68.8685C143.29 70.1542 143.238 71.5565 142.705 72.8058C142.172 74.0552 141.196 75.0635 139.964 75.6371L139.952 75.6983Z" fill="#FFB573"/>
<path d="M138.049 64.6335C133.374 65.3003 128.745 66.2527 124.187 67.4854C126.409 73.838 123.74 81.4329 130.999 83.2689C138.257 85.1049 145.075 63.8195 138.049 64.6335Z" fill="#263238"/>
<path d="M128.141 76.4268C127.957 79.4868 123.245 87.2163 129.487 90.8394C130.185 96.7207 132.871 108.067 136.543 110.631C140.374 113.691 151.629 112.565 166.183 110.791C166.359 110.77 166.529 110.713 166.683 110.625C166.836 110.536 166.971 110.418 167.077 110.276C167.183 110.134 167.26 109.972 167.302 109.799C167.344 109.627 167.35 109.448 167.321 109.273C165.925 100.852 163 90.9557 165.485 72.0816C165.629 70.9911 165.541 69.8825 165.228 68.8281C164.915 67.7737 164.383 66.7972 163.667 65.9623C162.951 65.1273 162.067 64.4526 161.072 63.9822C160.078 63.5117 158.996 63.2562 157.896 63.2321C156.672 63.2321 155.344 63.1953 153.998 63.2321C148.783 63.3667 144.505 63.5258 139.971 64.2847C138.465 64.5356 136.911 64.8416 135.43 65.166C130.117 66.3288 128.563 69.3398 128.141 76.4268Z" fill="#263238"/>
<path d="M139.089 72.9138C139.897 74.9517 139.873 77.1978 138.3 77.62C136.727 78.0423 137.7 74.3826 139.089 72.9138Z" fill="#FFB573"/>
<path opacity="0.2" d="M165.093 75.4904L158.404 70.5577C158.337 75.2273 161.207 83.3057 164.567 89.1074C164.429 84.5617 164.605 80.0119 165.093 75.4904Z" fill="black"/>
<path d="M147.002 49.0458C147.002 53.6603 150.638 60.4535 154.022 63.232C148.282 64.2995 143.073 67.2784 139.242 71.6837C137.241 66.9774 139.995 64.2846 139.995 64.2846C142.443 62.5221 141.421 61.2246 139.897 57.9076L147.002 49.0458Z" fill="#FFB573"/>
<path opacity="0.2" d="M143.71 53.1524L139.891 57.9076C140.27 58.7094 140.607 59.407 140.882 60.0068C142.767 59.7192 144.469 57.2161 144.995 55.5147C145.362 54.3336 144.995 53.5318 143.71 53.1524Z" fill="black"/>
<path d="M131.39 45.2514C131.592 45.8742 131.656 46.5333 131.578 47.1832C131.5 47.833 131.281 48.4582 130.938 49.0152C130.02 50.3433 128.245 49.4069 127.4 47.6933C126.635 46.1511 126.176 43.6052 127.639 42.9197C129.102 42.2343 130.895 43.5378 131.39 45.2514Z" fill="#FFB573"/>
<path opacity="0.2" d="M131.39 45.2514C131.592 45.8742 131.656 46.5333 131.578 47.1832C131.5 47.833 131.281 48.4582 130.938 49.0152C130.02 50.3433 128.245 49.4069 127.4 47.6933C126.635 46.1511 126.176 43.6052 127.639 42.9197C129.102 42.2343 130.895 43.5378 131.39 45.2514Z" fill="black"/>
<path d="M149.414 39.7802C149.787 47.3384 150.105 50.533 146.807 54.7987C141.85 61.2185 132.657 59.9945 130.069 52.6873C127.743 46.1083 127.523 34.8475 134.408 31.0653C141.189 27.3137 149.034 32.1914 149.414 39.7802Z" fill="#FFB573"/>
<path d="M152.706 40.5391C149.646 47.62 146.684 46.3898 145.13 43.544C143.367 40.3066 143.673 36.812 146.268 34.976C139.891 33.14 132.565 39.5048 130.13 33.9968C127.376 27.7912 140.803 27.1792 145.13 29.315C152.315 32.8769 154.475 38.2808 152.706 40.5391Z" fill="#263238"/>
<path d="M137.896 42.3076C137.963 42.9196 137.694 43.452 137.284 43.4949C136.874 43.5377 136.507 43.0787 136.439 42.4667C136.372 41.8547 136.641 41.3223 137.051 41.2794C137.461 41.2366 137.829 41.6956 137.896 42.3076Z" fill="#263238"/>
<path d="M135.05 51.255C135.068 51.3533 135.065 51.4542 135.043 51.5515C135.02 51.6487 134.977 51.7402 134.917 51.8203C134.858 51.9003 134.782 51.9672 134.695 52.0169C134.609 52.0665 134.513 52.0977 134.413 52.1087C134.314 52.1196 134.214 52.11 134.118 52.0804C134.023 52.0509 133.934 52.002 133.859 51.9369C133.783 51.8718 133.721 51.7917 133.678 51.7018C133.634 51.6119 133.61 51.514 133.606 51.4142C133.588 51.3159 133.591 51.215 133.614 51.1177C133.636 51.0205 133.679 50.929 133.739 50.8489C133.799 50.7689 133.874 50.7019 133.961 50.6523C134.047 50.6027 134.143 50.5715 134.243 50.5605C134.342 50.5496 134.443 50.5592 134.538 50.5887C134.633 50.6183 134.722 50.6672 134.797 50.7323C134.873 50.7974 134.935 50.8775 134.978 50.9674C135.022 51.0573 135.046 51.1552 135.05 51.255Z" fill="#263238"/>
<path d="M130.387 43.244C130.454 43.856 130.185 44.3885 129.775 44.4313C129.365 44.4741 128.997 44.0151 128.93 43.4031C128.863 42.7911 129.132 42.2587 129.542 42.2159C129.952 42.173 130.319 42.632 130.387 43.244Z" fill="#263238"/>
<path d="M129.744 42.2282L128.233 41.9651C128.233 41.9651 129.083 43.0299 129.744 42.2282Z" fill="#263238"/>
<path d="M132.914 44.2539C132.914 44.2539 132.168 47.0018 131.164 48.3972C132.058 49.0581 133.392 48.5624 133.392 48.5624L132.914 44.2539Z" fill="#ED893E"/>
<path d="M152.309 45.9491C152.045 46.62 151.642 47.2272 151.126 47.7305C150.61 48.2337 149.993 48.6216 149.316 48.8684C147.578 49.4375 146.623 47.5464 147.033 45.5697C147.406 43.7888 148.753 41.353 150.528 41.659C152.302 41.965 153.043 44.1865 152.309 45.9491Z" fill="#FFB573"/>
<path d="M139.45 39.0397C139.402 39.0335 139.355 39.0166 139.314 38.9901C139.273 38.9637 139.238 38.9284 139.212 38.8867C138.972 38.5014 138.645 38.178 138.257 37.943C137.869 37.708 137.43 37.5679 136.978 37.5342C136.882 37.5327 136.791 37.4944 136.722 37.4271C136.654 37.3599 136.614 37.269 136.611 37.1731C136.61 37.1255 136.619 37.0782 136.637 37.034C136.654 36.9898 136.681 36.9497 136.715 36.916C136.748 36.8823 136.789 36.8557 136.833 36.8379C136.877 36.82 136.924 36.8112 136.972 36.8121C137.545 36.8435 138.102 37.0122 138.596 37.3041C139.09 37.5959 139.507 38.0023 139.812 38.4889C139.838 38.5287 139.856 38.5732 139.865 38.62C139.874 38.6668 139.874 38.7149 139.864 38.7615C139.854 38.8082 139.836 38.8524 139.809 38.8918C139.782 38.9311 139.747 38.9648 139.707 38.9908C139.631 39.0398 139.539 39.0574 139.45 39.0397Z" fill="#263238"/>
<path d="M128.122 40.3065C128.076 40.3099 128.03 40.3035 127.987 40.2877C127.944 40.2719 127.904 40.247 127.871 40.2147C127.836 40.1838 127.806 40.1459 127.785 40.1034C127.764 40.0609 127.752 40.0146 127.749 39.9672C127.746 39.9199 127.753 39.8724 127.768 39.8277C127.784 39.783 127.809 39.7418 127.841 39.7068C128.216 39.273 128.689 38.9354 129.222 38.7225C129.754 38.5095 130.33 38.4273 130.901 38.4828C130.996 38.4974 131.081 38.5491 131.138 38.6266C131.195 38.7041 131.218 38.8009 131.204 38.8959C131.189 38.9908 131.137 39.0761 131.06 39.1329C130.983 39.1897 130.886 39.2134 130.791 39.1988C130.338 39.162 129.883 39.2338 129.463 39.4084C129.044 39.583 128.672 39.8552 128.379 40.2025C128.346 40.2359 128.305 40.2623 128.261 40.2802C128.217 40.298 128.17 40.307 128.122 40.3065Z" fill="#263238"/>
<path d="M137.235 41.2918L135.717 41.0286C135.717 41.0286 136.599 42.0935 137.235 41.2918Z" fill="#263238"/>
<path d="M183.876 109.126L184.996 116.758L191.477 113.624C191.477 113.624 190.632 107.461 186.832 106.935L183.876 109.126Z" fill="#FFB573"/>
<path d="M189.953 119.052L191.14 118.3C191.451 118.101 191.72 117.843 191.931 117.541C192.143 117.238 192.292 116.897 192.371 116.536C192.45 116.176 192.457 115.803 192.392 115.44C192.327 115.077 192.19 114.73 191.991 114.42L191.477 113.624L184.995 116.757L186.219 118.373C186.643 118.934 187.262 119.315 187.954 119.441C188.645 119.566 189.359 119.428 189.953 119.052Z" fill="#FFB573"/>
<path d="M164.279 66.3163C167.296 69.0581 170.142 71.91 172.951 74.8843C174.359 76.3531 175.744 77.8607 177.107 79.407C178.484 80.9554 179.806 82.5221 181.183 84.3397L181.33 84.5295L181.532 84.8171C181.666 85.0068 181.807 85.2088 181.893 85.3557L182.18 85.8453L182.419 86.2859C182.725 86.8979 182.97 87.3997 183.196 87.9261C183.643 88.9787 184.016 89.9885 184.371 90.9861C185.093 92.9812 185.663 94.9641 186.207 96.9347C187.312 100.875 188.206 104.871 188.888 108.905C189 109.552 188.876 110.218 188.538 110.781C188.201 111.345 187.673 111.768 187.049 111.975C186.426 112.182 185.75 112.158 185.142 111.908C184.535 111.658 184.038 111.199 183.741 110.613C181.905 107.051 180.204 103.416 178.484 99.8662C177.645 98.0791 176.758 96.3227 175.907 94.6275C175.473 93.7829 175.032 92.9567 174.592 92.2101C174.301 91.6461 173.937 91.1233 173.508 90.6556C172.321 89.3887 170.907 88.0179 169.518 86.6653L165.234 82.5833C162.376 79.8599 159.475 77.1059 156.666 74.3091C155.78 73.2711 155.311 71.9411 155.35 70.577C155.388 69.2128 155.932 67.9116 156.876 66.9256C157.819 65.9395 159.095 65.3387 160.456 65.2397C161.817 65.1407 163.166 65.5506 164.243 66.3898L164.279 66.3163Z" fill="#FFB573"/>
<path d="M157.094 63.2074C163.545 63.3237 167.358 66.2674 171.893 72.6444C163.765 72.6873 163.716 85.0558 154.695 78.8746C148.52 74.664 150.02 63.0727 157.094 63.2074Z" fill="#263238"/>
</svg>
