<svg width="306" height="229" viewBox="0 0 306 229" fill="none" xmlns="http://www.w3.org/2000/svg">
<path d="M306 201.242H0V201.397H306V201.242Z" fill="#EBEBEB"/>
<path d="M275.339 211.132H255.069V211.287H275.339V211.132Z" fill="#EBEBEB"/>
<path d="M184.481 211.212H179.163V211.367H184.481V211.212Z" fill="#EBEBEB"/>
<path d="M254.451 205.428H216.85V205.582H254.451V205.428Z" fill="#EBEBEB"/>
<path d="M137.786 209.054H130.02V209.209H137.786V209.054Z" fill="#EBEBEB"/>
<path d="M124.573 209.054H102.033V209.209H124.573V209.054Z" fill="#EBEBEB"/>
<path d="M47.6686 206.46H32.1055V206.615H47.6686V206.46Z" fill="#EBEBEB"/>
<path d="M97.1734 206.46H51.3407V206.615H97.1734V206.46Z" fill="#EBEBEB"/>
<path d="M145.044 173.828H26.873C25.9473 173.826 25.06 173.455 24.406 172.797C23.752 172.139 23.3846 171.248 23.3846 170.318V3.47901C23.3927 2.55457 23.7636 1.67065 24.4167 1.01925C25.0699 0.367852 25.9526 0.00158362 26.873 0H145.044C145.971 0 146.86 0.369776 147.515 1.02798C148.17 1.68618 148.539 2.5789 148.539 3.50974V170.318C148.539 171.249 148.17 172.141 147.515 172.8C146.86 173.458 145.971 173.828 145.044 173.828ZM26.873 0.122934C25.9879 0.124562 25.1395 0.478865 24.5142 1.10808C23.8889 1.73729 23.5376 2.58999 23.5376 3.47901V170.318C23.5376 171.207 23.8889 172.06 24.5142 172.689C25.1395 173.318 25.9879 173.672 26.873 173.674H145.044C145.93 173.672 146.779 173.318 147.405 172.689C148.031 172.06 148.384 171.207 148.386 170.318V3.47901C148.384 2.58942 148.031 1.73673 147.405 1.1077C146.779 0.478665 145.93 0.124559 145.044 0.122934H26.873Z" fill="#EBEBEB"/>
<path d="M277.426 173.828H159.249C158.322 173.826 157.434 173.456 156.779 172.798C156.124 172.14 155.756 171.248 155.754 170.318V3.47901C155.764 2.55401 156.136 1.6701 156.79 1.01887C157.444 0.367637 158.328 0.00156635 159.249 0H277.426C278.345 0.00319903 279.226 0.370182 279.878 1.02141C280.53 1.67263 280.9 2.55563 280.908 3.47901V170.318C280.908 171.247 280.542 172.137 279.889 172.795C279.236 173.453 278.35 173.824 277.426 173.828ZM159.249 0.122934C158.363 0.124559 157.514 0.478665 156.888 1.1077C156.261 1.73673 155.909 2.58942 155.907 3.47901V170.318C155.909 171.207 156.261 172.06 156.888 172.689C157.514 173.318 158.363 173.672 159.249 173.674H277.426C278.311 173.672 279.16 173.318 279.787 172.689C280.413 172.06 280.766 171.207 280.767 170.318V3.47901C280.766 2.58942 280.413 1.73673 279.787 1.1077C279.16 0.478665 278.311 0.124559 277.426 0.122934H159.249Z" fill="#EBEBEB"/>
<path d="M116.757 119.559L265.498 119.559V10.4372L116.757 10.4372V119.559Z" fill="#E6E6E6"/>
<path d="M110.184 119.559L263.974 119.559V10.4372L110.184 10.4372V119.559Z" fill="#F0F0F0"/>
<path d="M254.763 110.314V19.6816L119.383 19.6816V110.314L254.763 110.314Z" fill="#FAFAFA"/>
<path d="M221.856 110.308L191.036 19.6816H161.605L192.425 110.308H221.856Z" fill="#FFFFF0"/>
<path d="M186.103 110.308L155.283 19.6816H143.814L174.634 110.308H186.103Z" fill="#FFFFF0"/>
<path d="M120.558 110.314V19.6816H119.389V110.314H120.558Z" fill="#E6E6E6"/>
<path d="M39.5167 89.8764H92.0386L92.0386 15.09H39.5167L39.5167 89.8764Z" fill="#E0E0E0"/>
<path d="M35.8018 89.8764H89.9393L89.9393 15.09H35.8018L35.8018 89.8764Z" fill="#F5F5F5"/>
<path d="M84.5967 83.9758V20.9787L41.1447 20.9787L41.1447 83.9758H84.5967Z" fill="#FFFFF0"/>
<path d="M59.9332 142.234C63.8316 132.571 73.1034 128.975 76.3103 122.872C80.5025 114.881 80.478 102.889 76.9223 98.5679C73.8133 94.8061 63.5317 120.229 62.375 123.068C59.2017 130.733 57.2162 138.84 56.4876 147.108C56.5733 141.14 56.6528 135.657 56.7202 131.428C56.9405 117.635 57.2098 113.197 57.3322 111.832C57.7606 111.162 58.2685 110.388 58.5562 109.988C61.047 106.466 66.5672 102.268 69.3274 97.148C73.3543 89.6675 72.7056 80.718 69.8782 77.3865C66.9222 73.9013 61.7018 82.1379 58.9295 90.2945C56.1571 98.4511 57.3383 106.276 56.561 113.037C56.4019 114.365 56.2306 119.411 56.0776 126.418C55.233 118.883 53.5561 113.836 50.4533 109.128C46.6344 103.344 43.3357 96.2998 40.19 97.2095C37.0444 98.1192 38.7335 107.444 41.2243 113.984C43.452 119.811 54.3762 125.625 55.9858 130.309C55.796 139.8 55.6247 151.823 55.5084 163.028C54.6455 157.244 55.2391 156.758 51.7018 147.901C49.6026 142.639 41.004 136.149 39.9636 139.763C38.9232 143.377 40.496 150.212 43.7458 155.007C46.3712 158.867 52.1914 158.86 53.5378 161.258C53.8499 161.817 54.8903 163.962 55.4839 165.192C55.3432 178.862 55.282 190.934 55.3493 195.046L55.9123 195.089C55.9123 194.026 55.9552 187.098 56.0653 177.878C57.479 172.961 66.9956 170.127 69.9332 165.032C72.9932 159.703 75.2209 153.482 73.899 149.321C72.7974 145.848 64.107 150.55 60.6125 156.322C58.2685 160.157 56.8364 164.245 56.1694 169.74C56.2489 163.47 56.3407 156.734 56.4264 150.378C57.1424 148.78 58.752 145.129 59.9332 142.234Z" fill="#E6E6E6"/>
<path d="M65.5207 201.242H45.5205C44.992 201.241 44.4798 201.057 44.0706 200.721C43.6614 200.385 43.3802 199.918 43.2745 199.398L41.8546 192.391H69.1927L67.7728 199.416C67.6611 199.933 67.3768 200.396 66.9672 200.728C66.5575 201.06 66.0471 201.241 65.5207 201.242Z" fill="#F0F0F0"/>
<path d="M69.768 195.089H41.2794C40.9494 195.088 40.6312 194.966 40.3853 194.745C40.1393 194.524 39.9827 194.22 39.9452 193.89L39.3332 188.696C39.3126 188.508 39.3317 188.317 39.3893 188.136C39.4469 187.956 39.5417 187.789 39.6676 187.648C39.7934 187.506 39.9474 187.393 40.1197 187.315C40.2919 187.238 40.4785 187.197 40.6674 187.197H70.3127C70.5018 187.196 70.6889 187.236 70.8616 187.314C71.0343 187.391 71.1888 187.504 71.3148 187.646C71.4408 187.788 71.5355 187.954 71.5928 188.135C71.65 188.317 71.6684 188.508 71.6468 188.696L71.0348 193.89C70.9991 194.208 70.8521 194.503 70.6202 194.723C70.3882 194.942 70.0862 195.072 69.768 195.089Z" fill="#F0F0F0"/>
<path d="M248.246 196.761H254.359V130.69H248.246V196.761Z" fill="#F0F0F0"/>
<path d="M123.661 201.162L252.016 201.162V196.761L123.661 196.761V201.162Z" fill="#F0F0F0"/>
<path d="M248.252 130.69H121.317V196.761H248.252V130.69Z" fill="#F5F5F5"/>
<path d="M249.69 130.69H256.006V126.523H249.69V130.69Z" fill="#E0E0E0"/>
<path d="M249.69 126.523H119.67V130.69H249.69V126.523Z" fill="#EBEBEB"/>
<path d="M239.139 159.198H130.423C129.125 159.198 127.879 158.68 126.961 157.758C126.043 156.836 125.527 155.585 125.527 154.281V140.144C125.527 138.84 126.043 137.589 126.961 136.667C127.879 135.745 129.125 135.226 130.423 135.226H239.139C240.437 135.226 241.683 135.745 242.601 136.667C243.519 137.589 244.035 138.84 244.035 140.144V154.281C244.035 155.585 243.519 156.836 242.601 157.758C241.683 158.68 240.437 159.198 239.139 159.198ZM130.423 136.456C129.449 136.456 128.515 136.844 127.827 137.536C127.138 138.228 126.751 139.166 126.751 140.144V154.281C126.751 155.259 127.138 156.197 127.827 156.889C128.515 157.581 129.449 157.969 130.423 157.969H239.139C240.113 157.969 241.047 157.581 241.735 156.889C242.424 156.197 242.811 155.259 242.811 154.281V140.144C242.811 139.166 242.424 138.228 241.735 137.536C241.047 136.844 240.113 136.456 239.139 136.456H130.423Z" fill="#FFFFF0"/>
<path d="M239.139 188.819H130.423C129.125 188.819 127.879 188.301 126.961 187.379C126.043 186.457 125.527 185.206 125.527 183.902V169.765C125.527 168.46 126.043 167.21 126.961 166.288C127.879 165.365 129.125 164.847 130.423 164.847H239.139C240.437 164.847 241.683 165.365 242.601 166.288C243.519 167.21 244.035 168.46 244.035 169.765V183.902C244.035 185.206 243.519 186.457 242.601 187.379C241.683 188.301 240.437 188.819 239.139 188.819ZM130.423 166.027C129.449 166.027 128.515 166.416 127.827 167.108C127.138 167.799 126.751 168.737 126.751 169.715V183.853C126.751 184.831 127.138 185.769 127.827 186.461C128.515 187.152 129.449 187.541 130.423 187.541H239.139C240.113 187.541 241.047 187.152 241.735 186.461C242.424 185.769 242.811 184.831 242.811 183.853V169.715C242.811 168.737 242.424 167.799 241.735 167.108C241.047 166.416 240.113 166.027 239.139 166.027H130.423Z" fill="#FFFFF0"/>
<path d="M214.433 149.364H155.13C154.709 149.364 154.305 149.196 154.007 148.898C153.709 148.6 153.54 148.195 153.539 147.772V146.604C153.54 146.181 153.709 145.776 154.007 145.478C154.305 145.18 154.709 145.012 155.13 145.012H214.433C214.854 145.012 215.257 145.18 215.556 145.478C215.854 145.776 216.022 146.181 216.024 146.604V147.772C216.022 148.195 215.854 148.6 215.556 148.898C215.257 149.196 214.854 149.364 214.433 149.364ZM155.13 146.291C155.034 146.292 154.942 146.331 154.874 146.398C154.806 146.466 154.766 146.557 154.763 146.653V147.821C154.766 147.917 154.806 148.009 154.874 148.076C154.942 148.144 155.034 148.182 155.13 148.184H214.433C214.529 148.184 214.621 148.146 214.69 148.078C214.759 148.01 214.798 147.918 214.8 147.821V146.653C214.798 146.556 214.759 146.464 214.69 146.396C214.621 146.328 214.529 146.29 214.433 146.291H155.13Z" fill="#FFFFF0"/>
<path d="M214.433 178.985H155.13C154.709 178.985 154.305 178.817 154.007 178.519C153.709 178.22 153.54 177.815 153.539 177.393V176.225C153.54 175.802 153.709 175.397 154.007 175.099C154.305 174.8 154.709 174.633 155.13 174.633H214.433C214.854 174.633 215.257 174.8 215.556 175.099C215.854 175.397 216.022 175.802 216.024 176.225V177.393C216.022 177.815 215.854 178.22 215.556 178.519C215.257 178.817 214.854 178.985 214.433 178.985ZM155.13 175.862C155.034 175.864 154.942 175.902 154.874 175.97C154.806 176.037 154.766 176.129 154.763 176.225V177.393C154.766 177.489 154.806 177.58 154.874 177.648C154.942 177.715 155.034 177.754 155.13 177.755H214.433C214.529 177.755 214.621 177.717 214.69 177.649C214.759 177.582 214.798 177.489 214.8 177.393V176.225C214.798 176.128 214.759 176.036 214.69 175.968C214.621 175.9 214.529 175.862 214.433 175.862H155.13Z" fill="#FFFFF0"/>
<path d="M149.94 229C215.475 229 268.601 225.885 268.601 222.042C268.601 218.199 215.475 215.084 149.94 215.084C84.4056 215.084 31.2794 218.199 31.2794 222.042C31.2794 225.885 84.4056 229 149.94 229Z" fill="#F5F5F5"/>
<path d="M229.372 69.3053L229.139 72.9243L229.749 72.964L229.982 69.345L229.372 69.3053Z" fill="#FF9933"/>
<path d="M230.301 54.6071L229.537 66.5008L230.148 66.5403L230.911 54.6466L230.301 54.6071Z" fill="#FF9933"/>
<path d="M223.037 37.3348H151.097C149.249 37.3674 147.481 38.09 146.135 39.3617C144.79 40.6335 143.964 42.363 143.82 44.213L134.524 188.352C134.456 189.236 134.572 190.124 134.864 190.96C135.156 191.796 135.618 192.562 136.22 193.21C136.823 193.857 137.553 194.371 138.364 194.72C139.175 195.069 140.049 195.245 140.931 195.236H212.86C214.71 195.206 216.483 194.483 217.832 193.21C219.181 191.937 220.009 190.205 220.155 188.352L229.445 44.213C229.513 43.3297 229.397 42.4419 229.105 41.606C228.813 40.7701 228.351 40.0044 227.748 39.3575C227.146 38.7106 226.416 38.1968 225.605 37.8485C224.794 37.5003 223.919 37.3254 223.037 37.3348Z" fill="#FF9933"/>
<path opacity="0.7" d="M220.755 37.3348H151.097C149.249 37.3674 147.481 38.09 146.135 39.3617C144.79 40.6335 143.964 42.363 143.82 44.213L134.524 188.352C134.456 189.236 134.572 190.124 134.864 190.96C135.156 191.796 135.618 192.562 136.22 193.21C136.823 193.857 137.553 194.371 138.364 194.72C139.175 195.069 140.049 195.245 140.931 195.236H210.577C212.428 195.206 214.2 194.483 215.549 193.21C216.898 191.937 217.726 190.205 217.872 188.352L227.162 44.213C227.23 43.3297 227.114 42.4419 226.822 41.606C226.53 40.7701 226.068 40.0044 225.466 39.3575C224.863 38.7106 224.133 38.1968 223.322 37.8485C222.511 37.5003 221.637 37.3254 220.755 37.3348Z" fill="#FFFFF0"/>
<path d="M214.879 184.584H138.257C137.97 184.585 137.687 184.526 137.424 184.412C137.161 184.298 136.924 184.131 136.727 183.922C136.531 183.712 136.38 183.464 136.283 183.193C136.186 182.922 136.146 182.634 136.164 182.347L144.573 51.9148C144.607 51.3821 144.842 50.8824 145.229 50.5172C145.617 50.1519 146.128 49.9483 146.66 49.9479H223.288C223.575 49.9481 223.859 50.0074 224.122 50.1221C224.385 50.2368 224.622 50.4044 224.818 50.6147C225.014 50.8249 225.166 51.0733 225.262 51.3445C225.359 51.6157 225.4 51.9039 225.381 52.1914L216.972 182.617C216.938 183.151 216.703 183.652 216.314 184.017C215.925 184.383 215.412 184.585 214.879 184.584Z" fill="#FFFFF0"/>
<path d="M197.854 45.6822H170.001C169.858 45.6834 169.716 45.6548 169.584 45.598C169.453 45.5413 169.334 45.4577 169.236 45.3525C169.139 45.2473 169.064 45.1229 169.016 44.987C168.969 44.8512 168.95 44.707 168.961 44.5635C168.989 44.2654 169.125 43.9878 169.342 43.783C169.56 43.5781 169.844 43.4601 170.142 43.4509H197.994C198.137 43.4488 198.279 43.4766 198.411 43.5327C198.543 43.5887 198.661 43.6718 198.759 43.7765C198.857 43.8812 198.932 44.0053 198.98 44.1408C199.027 44.2763 199.046 44.4202 199.035 44.5635C199.008 44.8627 198.873 45.1417 198.655 45.3478C198.438 45.5539 198.153 45.6729 197.854 45.6822Z" fill="#FFFFF0"/>
<path d="M176.115 190.061C176.07 190.798 175.749 191.49 175.217 191.999C174.684 192.507 173.98 192.795 173.245 192.802C172.892 192.806 172.542 192.736 172.217 192.597C171.893 192.459 171.599 192.255 171.357 191.998C171.114 191.74 170.926 191.436 170.806 191.102C170.685 190.769 170.634 190.415 170.656 190.061C170.702 189.325 171.024 188.635 171.556 188.127C172.089 187.62 172.793 187.334 173.526 187.326C173.879 187.322 174.229 187.391 174.554 187.529C174.878 187.666 175.172 187.87 175.414 188.127C175.657 188.383 175.845 188.688 175.966 189.02C176.086 189.353 176.137 189.708 176.115 190.061Z" fill="#FFFFF0"/>
<path opacity="0.2" d="M206.532 86.0533H141.103L136.941 150.532H206.532C208.348 150.529 210.088 149.803 211.373 148.514C212.657 147.225 213.381 145.477 213.386 143.654V92.956C213.388 91.128 212.667 89.3741 211.382 88.0798C210.096 86.7855 208.352 86.0566 206.532 86.0533Z" fill="#FF9933"/>
<path d="M200.436 80.343H120.252C116.466 80.343 113.397 83.4252 113.397 87.2273V137.943C113.397 141.745 116.466 144.828 120.252 144.828H200.436C204.222 144.828 207.29 141.745 207.29 137.943V87.2273C207.29 83.4252 204.222 80.343 200.436 80.343Z" fill="#FF9933"/>
<path d="M111.206 79.5994C111.046 79.5987 110.892 79.5347 110.778 79.4212L109.676 78.3209C109.561 78.2052 109.496 78.0482 109.496 77.8845C109.496 77.7208 109.561 77.5638 109.676 77.4481C109.792 77.3323 109.948 77.2673 110.111 77.2673C110.274 77.2673 110.43 77.3323 110.545 77.4481L111.641 78.5545C111.755 78.6697 111.819 78.8254 111.819 78.9878C111.819 79.1502 111.755 79.306 111.641 79.4212C111.584 79.4781 111.516 79.5232 111.441 79.5538C111.367 79.5844 111.287 79.5999 111.206 79.5994Z" fill="#FF9933"/>
<path d="M109.548 83.4596H108C107.837 83.4596 107.682 83.3948 107.567 83.2795C107.452 83.1643 107.388 83.0079 107.388 82.8449C107.388 82.6819 107.452 82.5255 107.567 82.4103C107.682 82.295 107.837 82.2302 108 82.2302H109.548C109.71 82.2302 109.866 82.295 109.981 82.4103C110.096 82.5255 110.16 82.6819 110.16 82.8449C110.16 83.0079 110.096 83.1643 109.981 83.2795C109.866 83.3948 109.71 83.4596 109.548 83.4596Z" fill="#FF9933"/>
<path d="M115.105 77.9398C114.95 77.9402 114.8 77.8814 114.687 77.7752C114.573 77.6691 114.504 77.5236 114.493 77.3682L114.383 75.8131C114.377 75.7323 114.387 75.6512 114.413 75.5744C114.438 75.4975 114.478 75.4265 114.531 75.3654C114.584 75.3043 114.649 75.2543 114.721 75.2182C114.793 75.1822 114.872 75.1608 114.952 75.1554C115.113 75.1452 115.272 75.1997 115.394 75.3068C115.515 75.4139 115.59 75.565 115.601 75.727L115.717 77.2821C115.723 77.3629 115.713 77.444 115.687 77.5208C115.662 77.5976 115.621 77.6686 115.569 77.7298C115.516 77.7909 115.451 77.8409 115.379 77.8769C115.307 77.913 115.228 77.9344 115.148 77.9398H115.105Z" fill="#FF9933"/>
<path d="M167.192 138.195L191.813 162.917V138.195H167.192Z" fill="#FF9933"/>
<path d="M173.943 127.365L172.719 122.147C172.409 120.775 172.409 119.351 172.719 117.979L174.42 110.548C175.116 107.379 174.739 104.067 173.349 101.138C171.959 98.2082 169.635 95.8286 166.745 94.3759C166.8 94.2392 166.847 94.0997 166.886 93.958C166.987 93.5071 166.998 93.0409 166.919 92.5858C166.84 92.1306 166.672 91.6956 166.426 91.3055C166.18 90.9154 165.859 90.5778 165.483 90.3121C165.107 90.0463 164.682 89.8576 164.233 89.7567C163.784 89.6558 163.32 89.6447 162.867 89.724C162.414 89.8033 161.981 89.9715 161.592 90.2189C161.204 90.4663 160.868 90.7882 160.603 91.1661C160.338 91.544 160.151 91.9705 160.05 92.4213C160.02 92.565 160.001 92.711 159.995 92.8577C156.765 92.9338 153.653 94.0899 151.151 96.1429C148.649 98.1959 146.9 101.029 146.182 104.192L144.524 111.63C144.219 112.999 143.613 114.282 142.749 115.385L139.45 119.596C139.128 120.009 138.914 120.497 138.83 121.015C138.746 121.533 138.794 122.064 138.969 122.559C139.145 123.053 139.442 123.495 139.833 123.843C140.224 124.192 140.697 124.435 141.207 124.55L170.277 131.09C170.785 131.2 171.312 131.18 171.811 131.031C172.309 130.882 172.762 130.609 173.127 130.238C173.493 129.867 173.759 129.409 173.902 128.906C174.044 128.404 174.058 127.874 173.943 127.365Z" fill="#FFFFF0"/>
<path d="M151.99 128.976C151.769 128.927 151.539 128.933 151.321 128.995C151.103 129.056 150.904 129.171 150.741 129.328C150.577 129.485 150.455 129.681 150.385 129.897C150.314 130.113 150.298 130.344 150.338 130.568C150.505 131.555 150.961 132.471 151.647 133.197C152.334 133.924 153.221 134.429 154.194 134.648C155.167 134.866 156.183 134.789 157.113 134.426C158.043 134.063 158.844 133.43 159.414 132.608C159.544 132.423 159.627 132.208 159.655 131.983C159.684 131.758 159.656 131.53 159.576 131.318C159.495 131.106 159.364 130.917 159.194 130.768C159.024 130.619 158.82 130.514 158.6 130.463L151.99 128.976Z" fill="#FFFFF0"/>
<path d="M129.664 118.631C129.513 118.632 129.363 118.595 129.23 118.523C129.096 118.451 128.982 118.346 128.899 118.219C126.009 113.869 124.957 108.545 125.975 103.417C126.993 98.2882 129.998 93.776 134.328 90.8724C134.531 90.7371 134.779 90.6883 135.018 90.7367C135.256 90.7851 135.466 90.9268 135.601 91.1306C135.736 91.3343 135.784 91.5835 135.736 91.8233C135.688 92.0631 135.547 92.2738 135.344 92.4091C131.424 95.0461 128.706 99.1381 127.788 103.786C126.87 108.434 127.827 113.258 130.448 117.199C130.583 117.402 130.633 117.65 130.586 117.89C130.539 118.13 130.399 118.341 130.197 118.477C130.039 118.581 129.853 118.635 129.664 118.631Z" fill="#FFFFF0"/>
<path d="M133.551 116.012C133.4 116.011 133.252 115.973 133.12 115.901C132.988 115.83 132.875 115.726 132.792 115.6C130.592 112.287 129.791 108.232 130.566 104.326C131.34 100.421 133.627 96.9833 136.923 94.7694C137.023 94.702 137.136 94.6552 137.255 94.6315C137.373 94.6078 137.495 94.6079 137.613 94.6315C137.732 94.6552 137.845 94.7021 137.945 94.7696C138.046 94.837 138.132 94.9236 138.199 95.0245C138.266 95.1254 138.313 95.2386 138.336 95.3576C138.36 95.4766 138.36 95.5991 138.336 95.7181C138.313 95.8371 138.266 95.9503 138.199 96.0512C138.132 96.1521 138.045 96.2387 137.945 96.3061C135.052 98.2453 133.044 101.259 132.363 104.685C131.683 108.111 132.385 111.668 134.316 114.574C134.451 114.777 134.501 115.026 134.454 115.265C134.407 115.505 134.267 115.716 134.065 115.852C133.913 115.955 133.734 116.01 133.551 116.012Z" fill="#FFFFF0"/>
<path d="M137.443 113.4C137.293 113.401 137.145 113.364 137.013 113.293C136.88 113.222 136.767 113.12 136.684 112.994C135.934 111.867 135.413 110.601 135.151 109.271C134.888 107.941 134.89 106.572 135.154 105.242C135.419 103.913 135.943 102.649 136.695 101.522C137.446 100.396 138.412 99.4297 139.536 98.6786C139.738 98.5525 139.981 98.5102 140.214 98.5605C140.446 98.6108 140.65 98.7498 140.783 98.9483C140.915 99.1467 140.966 99.3891 140.924 99.6243C140.882 99.8595 140.751 100.069 140.558 100.209C139.636 100.827 138.844 101.622 138.228 102.547C137.612 103.473 137.183 104.511 136.967 105.603C136.75 106.695 136.75 107.819 136.966 108.911C137.182 110.003 137.611 111.042 138.226 111.968C138.36 112.171 138.409 112.419 138.362 112.659C138.315 112.898 138.176 113.109 137.975 113.246C137.818 113.351 137.632 113.404 137.443 113.4Z" fill="#FFFFF0"/>
<path d="M182.59 131.594C182.385 131.594 182.186 131.524 182.025 131.396C181.863 131.269 181.749 131.091 181.701 130.89C181.652 130.69 181.672 130.479 181.756 130.291C181.841 130.104 181.986 129.95 182.168 129.855C186.361 127.679 189.522 123.92 190.957 119.404C192.391 114.888 191.982 109.985 189.818 105.772C189.752 105.664 189.709 105.543 189.692 105.418C189.675 105.292 189.683 105.164 189.717 105.042C189.752 104.92 189.81 104.807 189.89 104.708C189.97 104.61 190.069 104.53 190.181 104.472C190.293 104.414 190.416 104.379 190.542 104.371C190.668 104.363 190.794 104.381 190.913 104.424C191.032 104.467 191.14 104.534 191.232 104.621C191.324 104.708 191.396 104.813 191.446 104.93C192.628 107.232 193.346 109.745 193.561 112.326C193.776 114.907 193.482 117.505 192.696 119.972C191.911 122.439 190.649 124.727 188.984 126.704C187.318 128.681 185.28 130.309 182.988 131.496C182.864 131.557 182.728 131.59 182.59 131.594Z" fill="#FFFFF0"/>
<path d="M180.442 127.42C180.237 127.42 180.037 127.35 179.876 127.223C179.715 127.095 179.601 126.917 179.552 126.717C179.504 126.516 179.523 126.306 179.608 126.118C179.693 125.93 179.838 125.776 180.02 125.681C181.551 124.888 182.912 123.799 184.024 122.478C185.136 121.156 185.978 119.627 186.502 117.979C187.025 116.33 187.22 114.594 187.075 112.869C186.93 111.145 186.448 109.466 185.656 107.929C185.544 107.712 185.523 107.458 185.597 107.225C185.671 106.991 185.834 106.797 186.051 106.685C186.268 106.572 186.52 106.551 186.752 106.625C186.985 106.699 187.178 106.863 187.29 107.081C188.192 108.833 188.742 110.747 188.907 112.712C189.072 114.678 188.85 116.657 188.253 118.536C187.656 120.415 186.696 122.158 185.429 123.665C184.161 125.171 182.61 126.412 180.864 127.316C180.734 127.386 180.589 127.421 180.442 127.42Z" fill="#FFFFF0"/>
<path d="M178.294 123.247C178.09 123.244 177.892 123.172 177.732 123.044C177.572 122.916 177.459 122.738 177.411 122.538C177.363 122.338 177.382 122.128 177.465 121.941C177.549 121.753 177.692 121.599 177.872 121.501C178.857 120.992 179.733 120.293 180.449 119.443C181.164 118.593 181.706 117.61 182.044 116.55C182.381 115.49 182.506 114.373 182.413 113.264C182.32 112.155 182.01 111.076 181.501 110.087C181.389 109.869 181.368 109.616 181.442 109.382C181.516 109.149 181.679 108.955 181.896 108.842C182.112 108.73 182.365 108.708 182.597 108.783C182.83 108.857 183.023 109.021 183.135 109.239C184.381 111.673 184.613 114.504 183.783 117.111C182.952 119.718 181.126 121.887 178.704 123.142C178.577 123.208 178.437 123.244 178.294 123.247Z" fill="#FFFFF0"/>
<path d="M124.456 43.5491H119.781C119.659 43.5522 119.543 43.5984 119.452 43.6794C119.362 43.7604 119.302 43.871 119.285 43.9917L118.306 53.3592C118.299 53.4156 118.304 53.4729 118.321 53.5272C118.338 53.5815 118.366 53.6316 118.404 53.6741C118.441 53.7166 118.487 53.7505 118.539 53.7736C118.591 53.7966 118.647 53.8083 118.704 53.8079H123.379C123.502 53.8046 123.619 53.7576 123.71 53.6753C123.8 53.5931 123.859 53.481 123.875 53.3592L124.854 43.9917C124.861 43.9355 124.856 43.8785 124.839 43.8245C124.822 43.7705 124.794 43.7208 124.756 43.6788C124.719 43.6368 124.672 43.6035 124.621 43.5811C124.569 43.5587 124.513 43.5478 124.456 43.5491Z" fill="#FF9933"/>
<path opacity="0.4" d="M124.034 43.5491H119.781C119.659 43.5523 119.543 43.5984 119.452 43.6794C119.362 43.7604 119.302 43.871 119.285 43.9917L118.306 53.3592C118.299 53.4157 118.304 53.473 118.321 53.5273C118.338 53.5816 118.366 53.6316 118.404 53.6741C118.441 53.7166 118.487 53.7505 118.539 53.7736C118.591 53.7966 118.647 53.8084 118.704 53.8079H122.988C123.109 53.8044 123.226 53.7572 123.315 53.6748C123.405 53.5925 123.463 53.4805 123.477 53.3592L124.456 43.9917C124.465 43.9332 124.461 43.8734 124.443 43.817C124.425 43.7606 124.394 43.709 124.354 43.6663C124.313 43.6235 124.263 43.5907 124.207 43.5704C124.152 43.5501 124.093 43.5429 124.034 43.5491Z" fill="#FFFFF0"/>
<path d="M101.023 216.762C101.635 216.762 102.247 216.67 102.462 216.387C102.514 216.311 102.542 216.221 102.542 216.129C102.542 216.037 102.514 215.946 102.462 215.871C102.372 215.733 102.235 215.634 102.076 215.594C101.244 215.367 99.5545 216.362 99.4811 216.405C99.462 216.417 99.4471 216.435 99.4383 216.456C99.4296 216.477 99.4274 216.5 99.4321 216.522C99.4367 216.547 99.4484 216.569 99.4659 216.587C99.4834 216.604 99.5058 216.616 99.5301 216.62C100.023 216.71 100.523 216.757 101.023 216.762ZM101.77 215.797C101.845 215.787 101.921 215.787 101.996 215.797C102.094 215.82 102.179 215.88 102.235 215.963C102.321 216.11 102.296 216.184 102.235 216.221C102.021 216.547 100.766 216.553 99.8422 216.424C100.436 216.085 101.092 215.872 101.77 215.797Z" fill="#FF9933"/>
<path d="M99.5174 216.621H99.5663C100.178 216.35 101.292 215.274 101.176 214.709C101.176 214.58 101.047 214.414 100.723 214.383C100.608 214.37 100.492 214.381 100.382 214.415C100.271 214.449 100.169 214.505 100.08 214.58C99.4684 215.102 99.4011 216.424 99.395 216.498C99.3942 216.519 99.3988 216.541 99.4085 216.56C99.4181 216.579 99.4324 216.596 99.4501 216.608C99.4709 216.619 99.4942 216.623 99.5174 216.621ZM100.643 214.604H100.711C100.925 214.604 100.943 214.709 100.943 214.734C101.017 215.072 100.246 215.92 99.652 216.289C99.6895 215.724 99.9037 215.186 100.264 214.752C100.37 214.661 100.504 214.609 100.643 214.604Z" fill="#FF9933"/>
<path d="M99.0158 204.979H94.0586V216.504H99.0158V204.979Z" fill="#FF8B7B"/>
<path d="M58.1096 211.009L63.0607 211.55L66.2859 200.363L61.3349 199.822L58.1096 211.009Z" fill="#FF8B7B"/>
<path d="M65.3619 212.674C65.9739 212.834 66.5859 212.902 66.8613 212.674C66.9286 212.612 66.9743 212.529 66.9919 212.438C67.0095 212.348 66.9981 212.254 66.9592 212.17C66.9341 212.094 66.8941 212.023 66.8416 211.962C66.7891 211.9 66.7251 211.85 66.6532 211.814C65.8882 211.39 63.991 211.925 63.9115 211.943C63.8882 211.949 63.8674 211.963 63.852 211.981C63.8367 212 63.8275 212.023 63.8258 212.047C63.8258 212.072 63.8327 212.096 63.8457 212.117C63.8587 212.137 63.8772 212.154 63.8992 212.164C64.3715 212.376 64.8608 212.546 65.3619 212.674ZM66.3289 211.937C66.4032 211.955 66.4751 211.982 66.5431 212.017C66.6338 212.06 66.704 212.137 66.7389 212.232C66.7879 212.398 66.7389 212.459 66.7389 212.496C66.4452 212.748 65.215 212.447 64.3399 212.091C64.987 211.912 65.6626 211.862 66.3289 211.943V211.937Z" fill="#FF9933"/>
<path d="M63.9235 212.176H63.9725C64.5845 212.06 65.9921 211.31 66.0166 210.744C66.0166 210.609 65.9676 210.425 65.6555 210.314C65.5456 210.274 65.4288 210.257 65.3121 210.263C65.1955 210.27 65.0812 210.3 64.9762 210.351C64.254 210.701 63.8501 211.968 63.8317 212.017C63.8215 212.034 63.8162 212.055 63.8162 212.075C63.8162 212.096 63.8215 212.116 63.8317 212.133C63.8421 212.148 63.856 212.159 63.8721 212.167C63.8881 212.174 63.9059 212.178 63.9235 212.176ZM65.5147 210.523H65.5882C65.7901 210.597 65.784 210.683 65.784 210.707C65.784 211.052 64.8048 211.672 64.1316 211.875C64.3011 211.344 64.6357 210.881 65.0863 210.554C65.2208 210.492 65.3729 210.481 65.5147 210.523Z" fill="#FF9933"/>
<path d="M63.3239 211.089L57.9077 209.527C57.8146 209.499 57.7147 209.505 57.6253 209.543C57.5358 209.581 57.4625 209.65 57.4181 209.736L55.4229 213.713C55.3763 213.814 55.3524 213.924 55.3528 214.035C55.3532 214.146 55.3779 214.255 55.4252 214.356C55.4726 214.456 55.5413 214.545 55.6266 214.615C55.7119 214.686 55.8116 214.737 55.9187 214.764C57.8159 215.274 58.7645 215.434 61.1451 216.117C62.6078 216.541 65.5883 217.561 67.614 218.145C69.6397 218.729 70.3863 216.817 69.603 216.399C66.0901 214.525 64.964 213.013 64.0338 211.611C63.8669 211.357 63.6151 211.172 63.3239 211.089Z" fill="#263238"/>
<path d="M98.9609 215.926H93.5508C93.4535 215.925 93.359 215.959 93.2848 216.022C93.2106 216.085 93.1616 216.174 93.1469 216.27L92.3574 220.665C92.3397 220.775 92.3459 220.887 92.3755 220.994C92.4052 221.101 92.4576 221.2 92.5292 221.285C92.6007 221.37 92.6897 221.438 92.79 221.485C92.8903 221.532 92.9995 221.556 93.1101 221.556C95.0624 221.519 97.8776 221.403 100.332 221.403C103.202 221.403 104.769 221.562 108.135 221.562C110.167 221.562 110.644 219.497 109.781 219.307C105.87 218.458 103.612 218.366 100.173 216.289C99.8073 216.063 99.3894 215.938 98.9609 215.926Z" fill="#263238"/>
<path opacity="0.2" d="M99.0158 204.979H94.0586V210.922H99.0158V204.979Z" fill="black"/>
<path opacity="0.2" d="M61.3346 199.828L66.2856 200.363L64.4925 206.571L59.6699 205.593L61.3346 199.828Z" fill="black"/>
<path d="M90.864 90.3558C90.864 90.3558 88.1284 127.936 85.6804 142.184C82.9814 157.791 67.2775 205.575 67.2775 205.575L58.2811 203.921C58.2811 203.921 69.6215 159.051 70.8761 143.598C72.2408 126.83 73.881 92.2674 73.881 92.2674L90.864 90.3558Z" fill="#FF9933"/>
<path opacity="0.3" d="M86.2556 105.968C86.7452 103.903 87.8713 106.503 89.181 111.009C88.1895 122.159 86.8982 135.073 85.662 142.191C85.3866 143.783 84.9704 145.713 84.438 147.901C84.9092 131.993 84.9276 111.556 86.2556 105.968Z" fill="black"/>
<path d="M100.209 89.3355C100.209 89.3355 103.802 127.113 103.924 142.289C104.053 158.08 100.815 209.773 100.815 209.773H92.4123C92.4123 209.773 89.8908 159.002 88.8443 143.494C87.6999 126.59 82.8834 91.2471 82.8834 91.2471L100.209 89.3355Z" fill="#FF9933"/>
<path d="M69.1562 202.532C69.1929 202.532 67.7425 205.809 67.7425 205.809L57.62 203.965L58.232 200.922L69.1562 202.532Z" fill="#263238"/>
<path d="M102.284 206.411C102.32 206.411 101.959 209.915 101.959 209.915H91.7511L91.335 206.792L102.284 206.411Z" fill="#263238"/>
<path d="M74.1256 55.6641C73.4524 56.9733 72.7118 58.3502 72.0386 59.7086L69.9823 63.8023C69.3152 65.1668 68.6604 66.5375 68.03 67.9082C67.3997 69.2789 66.806 70.6435 66.2981 72.008L66.2491 69.8567C66.6069 70.9614 67.0362 72.0415 67.5343 73.0899C67.773 73.6308 68.079 74.1471 68.3422 74.6818C68.6053 75.2166 68.9542 75.7268 69.2663 76.2308C69.9156 77.2727 70.6183 78.28 71.3716 79.2488C71.751 79.7344 72.1304 80.2323 72.5344 80.6994C72.9383 81.1666 73.3789 81.6522 73.7584 82.0517L73.8808 82.1869C74.1627 82.4979 74.3252 82.8995 74.3392 83.3198C74.3531 83.7402 74.2176 84.1518 73.9569 84.4809C73.6962 84.81 73.3274 85.0352 72.9165 85.116C72.5055 85.1969 72.0794 85.1282 71.7143 84.9222C71.0817 84.5643 70.4688 84.1724 69.8783 83.7482C69.2663 83.3425 68.7277 82.9184 68.1769 82.4697C67.0743 81.5613 66.0393 80.5731 65.0802 79.5131C64.1011 78.436 63.2108 77.2807 62.418 76.0587C61.6034 74.8138 60.895 73.5019 60.3005 72.1371C60.0386 71.5579 59.993 70.9034 60.172 70.2931L60.2576 70.0042C60.7228 68.4 61.243 66.8449 61.8182 65.3205C62.3935 63.7961 63.0055 62.3025 63.6542 60.8334C64.303 59.3644 64.9823 57.9138 65.6983 56.4816C66.4144 55.0494 67.1365 53.648 67.9627 52.2158C68.4193 51.3961 69.1795 50.7906 70.0781 50.5307C70.9767 50.2707 71.9412 50.3775 72.7619 50.8277C73.5826 51.2779 74.1933 52.0352 74.4612 52.935C74.7292 53.8348 74.6327 54.8045 74.1929 55.6333L74.1256 55.6641Z" fill="#FF8B7B"/>
<path d="M77.6386 53.4759C77.8834 58.1658 72.5835 66.7772 72.5835 66.7772L61.6715 61.3006C62.9976 57.416 65.0499 53.8215 67.7181 50.7099C73.4892 44.3051 77.4122 49.1732 77.6386 53.4759Z" fill="#263238"/>
<path d="M70.2455 84.0433L72.4426 87.7313L77.0142 84.7932C76.2157 83.356 74.9652 82.2254 73.4585 81.5785C73.1101 81.4667 72.7333 81.484 72.3965 81.6272C72.0597 81.7704 71.7851 82.0301 71.6225 82.3591L70.2455 84.0433Z" fill="#FF8B7B"/>
<path d="M74.2723 89.3048L76.3959 88.9053C76.5747 88.8721 76.7451 88.8037 76.8974 88.704C77.0497 88.6043 77.1809 88.4753 77.2833 88.3244C77.3857 88.1735 77.4574 88.0038 77.4941 87.825C77.5309 87.6462 77.532 87.4618 77.4975 87.2825L77.014 84.8239L72.4424 87.762L72.7484 88.5057C72.8736 88.7935 73.093 89.0296 73.3701 89.175C73.6473 89.3203 73.9656 89.3661 74.2723 89.3048Z" fill="#FF8B7B"/>
<path d="M87.1672 29.9095C87.21 30.3091 87.4609 30.6225 87.718 30.598C87.975 30.5734 88.1464 30.2353 88.0974 29.8358C88.0485 29.4362 87.8037 29.1228 87.5466 29.1412C87.2896 29.1596 87.1182 29.5039 87.1672 29.9095Z" fill="#263238"/>
<path d="M87.4246 30.6225C88.0435 31.8164 88.8151 32.9239 89.7196 33.9172C89.1076 34.6363 87.8836 34.4273 87.8836 34.4273L87.4246 30.6225Z" fill="#FF5652"/>
<path d="M85.4538 27.7889C85.4856 27.7937 85.5181 27.7912 85.5488 27.7816C85.5795 27.7721 85.6077 27.7556 85.6313 27.7336C85.8434 27.5341 86.1012 27.3899 86.3818 27.3138C86.6625 27.2377 86.9575 27.232 87.2408 27.2972C87.2697 27.3065 87.3003 27.3097 87.3305 27.3066C87.3607 27.3035 87.3899 27.2941 87.4164 27.2791C87.4428 27.2641 87.4659 27.2438 87.4841 27.2194C87.5023 27.195 87.5154 27.1671 87.5223 27.1374C87.5377 27.0763 87.5291 27.0117 87.4983 26.9568C87.4676 26.9019 87.417 26.8609 87.3571 26.8424C86.9993 26.7566 86.626 26.7599 86.2698 26.8521C85.9135 26.9442 85.5851 27.1223 85.313 27.371C85.2902 27.3928 85.2721 27.419 85.2597 27.4481C85.2474 27.4771 85.241 27.5084 85.241 27.54C85.241 27.5716 85.2474 27.6029 85.2597 27.6319C85.2721 27.661 85.2902 27.6872 85.313 27.709C85.33 27.7311 85.3512 27.7496 85.3754 27.7633C85.3995 27.777 85.4262 27.7857 85.4538 27.7889Z" fill="#263238"/>
<path d="M74.8295 34.3598C75.9984 37.9187 77.5529 44.4772 75.3374 47.108C75.3374 47.108 76.794 50.6915 83.5015 50.1199C90.8884 49.5052 86.5615 46.1553 86.5615 46.1553C82.4122 45.5406 82.1306 42.5349 82.4733 39.6644L74.8295 34.3598Z" fill="#FF8B7B"/>
<path d="M73.7522 48.4049C73.0606 47.2923 72.2895 46.02 73.5992 45.5467C75.0374 45.0242 83.1158 44.176 85.9922 44.889C88.8686 45.602 88.2811 47.9623 88.2811 47.9623L73.7522 48.4049Z" fill="#FF9933"/>
<path d="M97.406 49.9046C98.4586 50.8757 99.597 51.9514 100.729 52.9349C101.861 53.9183 103.006 54.9264 104.156 55.8976C105.307 56.8687 106.482 57.7846 107.663 58.6759C108.844 59.5671 110.044 60.3785 111.243 61.1345L108.795 60.901C109.813 60.6284 110.775 60.1813 111.641 59.5794C112.653 58.8693 113.592 58.0601 114.444 57.1638C115.363 56.2195 116.223 55.2199 117.021 54.1704C117.431 53.6356 117.841 53.0947 118.245 52.5353C118.649 51.976 119.016 51.3859 119.352 50.8696L119.42 50.7713C119.652 50.4147 120.004 50.1539 120.412 50.0366C120.82 49.9192 121.257 49.9531 121.642 50.1319C122.027 50.3108 122.335 50.6228 122.51 51.011C122.686 51.3992 122.716 51.8377 122.596 52.2465C122.363 53.0455 122.119 53.7278 121.837 54.4408C121.556 55.1538 121.262 55.8545 120.931 56.543C120.261 57.9473 119.477 59.2938 118.587 60.569C117.653 61.9213 116.565 63.1591 115.344 64.257C113.992 65.4685 112.425 66.4113 110.723 67.0353C110.358 67.1646 109.971 67.2197 109.584 67.1976C109.198 67.1754 108.819 67.0764 108.471 66.9062L108.269 66.8017C106.749 66.0517 105.274 65.2143 103.85 64.2939C102.461 63.3904 101.115 62.4499 99.8173 61.4419C98.5198 60.4338 97.2652 59.4135 96.0412 58.3685C94.8172 57.3236 93.6422 56.2295 92.4488 55.0063C91.8138 54.3411 91.4599 53.4547 91.4614 52.5331C91.463 51.6115 91.8198 50.7263 92.4571 50.0632C93.0943 49.4001 93.9625 49.0106 94.8795 48.9764C95.7965 48.9423 96.691 49.2661 97.3754 49.88L97.406 49.9046Z" fill="#FF8B7B"/>
<path d="M93.6669 46.7147C93.6669 46.7147 99.8359 52.7261 100.552 89.9073C90.6865 92.3106 81.1943 93.1958 73.8626 92.2615C73.5137 87.5961 72.9935 71.4058 68.2811 54.3366C68.0787 53.6176 68.0273 52.8643 68.1302 52.1243C68.233 51.3844 68.4879 50.674 68.8787 50.0382C69.2694 49.4024 69.7874 48.8552 70.3999 48.4312C71.0124 48.0072 71.706 47.7157 72.4366 47.5752C73.373 47.3908 74.3583 47.2249 75.3375 47.0958C79.0575 46.5614 82.8051 46.2433 86.5616 46.1431C88.9406 46.1626 91.3151 46.3536 93.6669 46.7147Z" fill="#263238"/>
<path d="M88.8809 53.193C89.4929 57.846 97.4489 66.7894 97.4489 66.7894L106.892 56.9548C104.087 53.997 101.054 51.2655 97.8222 48.7859C90.9005 43.5919 88.3301 48.8781 88.8809 53.193Z" fill="#263238"/>
<path d="M121.984 53.8816L125.142 50.9742L121.36 47.0711C120.109 48.141 119.248 49.5985 118.912 51.214C118.875 51.5833 118.972 51.9536 119.186 52.2564C119.4 52.5592 119.716 52.7741 120.075 52.8613L121.984 53.8816Z" fill="#FF8B7B"/>
<path d="M126.305 48.8597L125.491 46.8497C125.422 46.6773 125.319 46.5204 125.189 46.3886C125.058 46.2567 124.903 46.1524 124.732 46.0819C124.56 46.0114 124.377 45.9761 124.192 45.9781C124.007 45.9802 123.824 46.0195 123.655 46.0937L121.335 47.071L125.117 50.9741L125.778 50.5254C126.043 50.351 126.241 50.0901 126.337 49.7866C126.432 49.4831 126.421 49.1558 126.305 48.8597Z" fill="#FF8B7B"/>
<path d="M73.887 30.1187C74.7744 35.036 75.0437 37.9495 77.7977 40.2914C81.941 43.8134 87.657 41.072 88.2017 36.0502C88.7158 31.5263 87.1797 24.2425 82.198 22.6566C77.2163 21.0708 72.9996 25.2013 73.887 30.1187Z" fill="#FF8B7B"/>
<path d="M83.5383 31.8888C85.258 32.2822 86.5983 30.2845 86.7819 29.719C85.9435 29.7989 84.4563 29.3687 84.1625 28.9876C85.0805 29.0675 85.9679 27.9304 86.0781 27.494C85.1041 27.3051 84.2415 26.7429 83.6729 25.9266C85.1601 25.8958 86.9471 23.265 85.3131 20.9109C83.679 18.5567 76.8491 20.5298 75.8883 18.8517C74.4562 19.6877 75.7292 20.8002 75.7292 20.8002C75.7292 20.8002 66.0657 22.6442 70.5211 26.3876C67.253 26.6826 66.794 30.5611 69.5174 32.5342C72.2408 34.5073 72.3815 35.8104 71.2983 35.6506C71.7328 36.4865 73.6728 36.5972 73.783 35.7858C74.242 37.4884 75.5639 39.7934 78.6117 39.4185C81.6594 39.0435 84.646 34.7593 83.5383 31.8888Z" fill="#263238"/>
<path d="M71.3654 25.8159C69.0642 26.1355 68.0177 24.8324 68.593 23.683C65.7411 25.1459 68.8562 28.3791 71.3654 25.8159Z" fill="#263238"/>
<path d="M81.1576 31.139C81.5536 32.1691 82.2541 33.0529 83.165 33.6714C84.389 34.4828 85.4967 33.6714 85.2886 32.4421C85.0989 31.3111 84.236 29.5224 82.963 29.2028C82.6994 29.1159 82.4165 29.1064 82.1477 29.1755C81.8789 29.2446 81.6353 29.3894 81.4457 29.5928C81.256 29.7962 81.1281 30.0498 81.0771 30.3237C81.0261 30.5976 81.054 30.8805 81.1576 31.139Z" fill="#FF8B7B"/>
<path d="M236.709 204.389C232.181 193.656 230.351 181.031 235.534 181.554C240.853 182.07 240.228 201.1 241.091 203.19C239.433 204.622 236.709 204.389 236.709 204.389Z" fill="#FF9933"/>
<path d="M238.178 184.025C237.064 188.118 235.883 194.443 234.984 199.803C235.498 201.34 236.079 202.877 236.709 204.389C236.709 204.389 239.427 204.622 241.097 203.19C240.412 201.543 240.657 189.348 238.178 184.025Z" fill="#263238"/>
<path d="M238.203 202.422C236.783 179.617 240.651 158.479 250.834 159.432C259.574 160.255 246.832 198.648 247.077 203.073C243.074 204.634 238.203 202.422 238.203 202.422Z" fill="#FF9933"/>
<path d="M244.8 202.274C246.397 185.881 255.008 166.753 258.705 173.145C263.399 181.259 251.361 200.584 251.036 203.762C248.025 204.413 244.8 202.274 244.8 202.274Z" fill="#FF9933"/>
<path d="M243.191 165.523C242.156 165.351 241.581 164.706 241.648 163.79C241.722 162.757 242.566 161.731 243.35 161.718C243.729 161.718 244.366 161.915 244.525 163.335L243.913 163.409C243.839 162.733 243.637 162.333 243.368 162.333C242.952 162.333 242.315 163.095 242.266 163.833C242.224 164.448 242.566 164.792 243.295 164.915L243.191 165.523Z" fill="#FF9933"/>
<path d="M254.182 169.648C253.737 169.612 253.312 169.447 252.958 169.174L253.288 168.664C253.858 169.033 254.298 169.131 254.47 168.922C254.727 168.591 254.549 167.619 254.017 167.109C253.588 166.697 253.086 166.728 252.53 167.22L252.132 166.753C252.275 166.591 252.449 166.459 252.645 166.367C252.84 166.274 253.051 166.223 253.267 166.215C253.483 166.206 253.698 166.242 253.899 166.32C254.1 166.398 254.284 166.516 254.439 166.667C255.186 167.38 255.436 168.683 254.947 169.304C254.856 169.419 254.74 169.51 254.606 169.57C254.473 169.63 254.328 169.657 254.182 169.648Z" fill="#FF9933"/>
<path d="M239.182 178.929C238.811 178.956 238.444 178.845 238.149 178.619C237.853 178.393 237.651 178.066 237.579 177.7C237.334 176.698 237.823 175.462 238.57 175.204C238.919 175.087 239.592 175.075 240.18 176.384L239.616 176.643C239.341 176.028 239.004 175.696 238.766 175.788C238.374 175.923 238.001 176.839 238.154 177.552C238.295 178.167 238.766 178.376 239.463 178.265L239.555 178.88C239.432 178.907 239.308 178.923 239.182 178.929Z" fill="#FF9933"/>
<path d="M232.664 191.659C232.366 191.666 232.072 191.582 231.822 191.419C231.572 191.255 231.377 191.02 231.263 190.743C230.834 189.803 231.085 188.493 231.765 188.1C232.089 187.916 232.75 187.78 233.57 188.961L233.068 189.311C232.676 188.752 232.303 188.5 232.071 188.635C231.709 188.844 231.514 189.815 231.82 190.479C232.071 191.026 232.548 191.173 233.239 190.927L233.441 191.511C233.193 191.606 232.93 191.656 232.664 191.659Z" fill="#FF9933"/>
<path d="M243.508 173.102C243.445 173.102 243.383 173.083 243.331 173.047C242.951 172.836 242.66 172.493 242.511 172.083C242.363 171.673 242.367 171.223 242.523 170.816C242.7 170.407 243.004 170.067 243.388 169.846C243.773 169.624 244.219 169.533 244.659 169.586C245.038 169.654 245.926 169.992 245.987 171.627C245.987 171.709 245.955 171.787 245.897 171.844C245.84 171.902 245.762 171.934 245.681 171.934C245.6 171.934 245.522 171.902 245.465 171.844C245.407 171.787 245.375 171.709 245.375 171.627C245.338 170.773 245.051 170.256 244.549 170.164C244.244 170.14 243.94 170.211 243.678 170.369C243.415 170.526 243.209 170.762 243.086 171.043C242.866 171.566 243.086 172.094 243.698 172.531C243.752 172.568 243.792 172.622 243.813 172.684C243.834 172.746 243.834 172.813 243.815 172.876C243.795 172.938 243.756 172.993 243.703 173.031C243.65 173.07 243.586 173.09 243.521 173.09L243.508 173.102Z" fill="#FFFFF0"/>
<path d="M250.761 189.692C250.691 189.693 250.623 189.669 250.569 189.624C250.515 189.579 250.479 189.516 250.467 189.446C250.458 189.407 250.457 189.366 250.464 189.327C250.471 189.287 250.486 189.249 250.507 189.216C250.529 189.182 250.557 189.153 250.59 189.13C250.623 189.107 250.66 189.091 250.7 189.083C251.532 188.911 251.991 188.536 252.003 188.026C251.976 187.721 251.854 187.431 251.656 187.198C251.457 186.964 251.192 186.798 250.895 186.723C250.345 186.588 249.855 186.889 249.531 187.565C249.513 187.602 249.488 187.634 249.458 187.661C249.428 187.688 249.393 187.708 249.355 187.721C249.317 187.734 249.276 187.74 249.236 187.737C249.196 187.735 249.157 187.724 249.121 187.707C249.084 187.689 249.052 187.664 249.026 187.634C248.999 187.604 248.978 187.568 248.965 187.53C248.952 187.492 248.947 187.451 248.949 187.411C248.952 187.371 248.962 187.331 248.98 187.295C249.13 186.887 249.418 186.546 249.795 186.331C250.171 186.116 250.611 186.042 251.036 186.121C251.468 186.228 251.855 186.471 252.139 186.815C252.423 187.16 252.59 187.586 252.615 188.032C252.615 188.42 252.419 189.354 250.828 189.686L250.761 189.692Z" fill="#FFFFF0"/>
<path d="M259.365 184.51C259.01 184.51 258.539 184.301 258.013 183.509L258.521 183.164C258.9 183.73 259.261 183.988 259.5 183.859C259.867 183.662 260.112 182.691 259.788 182.015C259.555 181.468 259.078 181.308 258.38 181.535L258.19 180.952C259.182 180.626 259.99 180.952 260.351 181.775C260.761 182.722 260.485 184.025 259.794 184.4C259.663 184.474 259.515 184.512 259.365 184.51Z" fill="#FF9933"/>
<path d="M257.542 208.292C257.546 205.012 256.375 201.839 254.243 199.354C254.452 199.324 254.644 199.219 254.783 199.059C254.922 198.899 255 198.694 255.002 198.482C255 198.241 254.904 198.012 254.735 197.842C254.565 197.673 254.335 197.578 254.096 197.578H233.607C233.383 197.581 233.169 197.668 233.007 197.821C232.844 197.975 232.745 198.184 232.728 198.408C232.711 198.631 232.778 198.853 232.916 199.029C233.053 199.206 233.252 199.324 233.472 199.361C232.132 200.924 231.16 202.77 230.629 204.763C230.097 206.756 230.02 208.843 230.403 210.87C230.786 212.896 231.619 214.81 232.84 216.469C234.061 218.128 235.639 219.488 237.456 220.45C237.258 220.552 237.1 220.719 237.008 220.922C236.916 221.126 236.894 221.355 236.947 221.572C237 221.789 237.125 221.982 237.3 222.12C237.476 222.258 237.692 222.332 237.915 222.331H249.782C250.044 222.329 250.295 222.224 250.481 222.037C250.667 221.851 250.772 221.599 250.773 221.335C250.772 221.153 250.722 220.974 250.628 220.819C250.535 220.663 250.401 220.535 250.241 220.45C252.444 219.283 254.289 217.534 255.575 215.391C256.862 213.248 257.542 210.794 257.542 208.292Z" fill="#263238"/>
</svg>
