<svg width="306" height="229" viewBox="0 0 306 229" fill="none" xmlns="http://www.w3.org/2000/svg">
<path d="M306 200.369H0V200.522H306V200.369Z" fill="#E0E0E0"/>
<path d="M66.965 207.707H31.6098V207.86H66.965V207.707Z" fill="#E0E0E0"/>
<path d="M144.224 204.384H128.116V204.537H144.224V204.384Z" fill="#E0E0E0"/>
<path d="M181.495 204.304H150.111V204.457H181.495V204.304Z" fill="#E0E0E0"/>
<path d="M241.232 206.14H233.588V206.293H241.232V206.14Z" fill="#E0E0E0"/>
<path d="M207.193 206.14H176.703V206.293H207.193V206.14Z" fill="#E0E0E0"/>
<path d="M78.948 207.707H72.8892V207.86H78.948V207.707Z" fill="#E0E0E0"/>
<path d="M272.695 206.14H246.226V206.293H272.695V206.14Z" fill="#E0E0E0"/>
<path d="M145.044 173.074H26.8729C25.9472 173.072 25.0599 172.703 24.4059 172.048C23.7519 171.393 23.3845 170.505 23.3845 169.579V3.46392C23.3926 2.54349 23.7635 1.6634 24.4166 1.01483C25.0698 0.366256 25.9525 0.00157675 26.8729 0H145.044C145.971 0 146.86 0.368172 147.515 1.02352C148.17 1.67887 148.539 2.56772 148.539 3.49452V169.579C148.539 170.506 148.17 171.395 147.515 172.05C146.86 172.705 145.971 173.074 145.044 173.074ZM26.8729 0.1224C25.9878 0.124022 25.1394 0.476788 24.5141 1.10327C23.8887 1.72975 23.5375 2.57875 23.5375 3.46392V169.579C23.5375 170.464 23.8887 171.313 24.5141 171.94C25.1394 172.566 25.9878 172.919 26.8729 172.921H145.044C145.93 172.919 146.779 172.566 147.405 171.94C148.031 171.314 148.384 170.465 148.386 169.579V3.46392C148.384 2.57819 148.031 1.7292 147.405 1.1029C146.779 0.476589 145.93 0.124018 145.044 0.1224H26.8729Z" fill="#E0E0E0"/>
<path d="M277.426 173.074H159.249C158.322 173.072 157.435 172.703 156.78 172.048C156.125 171.393 155.756 170.505 155.754 169.579V3.46392C155.764 2.54293 156.136 1.66285 156.79 1.01445C157.444 0.366042 158.328 0.00155955 159.249 0H277.426C278.345 0.00318515 279.226 0.368576 279.878 1.01698C280.53 1.66538 280.9 2.54454 280.908 3.46392V169.579C280.908 170.504 280.542 171.391 279.889 172.046C279.236 172.701 278.351 173.07 277.426 173.074ZM159.249 0.1224C158.363 0.124018 157.514 0.476589 156.888 1.1029C156.261 1.7292 155.909 2.57819 155.907 3.46392V169.579C155.909 170.465 156.261 171.314 156.888 171.94C157.514 172.566 158.363 172.919 159.249 172.921H277.426C278.312 172.919 279.161 172.566 279.787 171.94C280.413 171.314 280.766 170.465 280.767 169.579V3.46392C280.766 2.57819 280.413 1.7292 279.787 1.1029C279.161 0.476589 278.312 0.124018 277.426 0.1224H159.249Z" fill="#E0E0E0"/>
<path d="M46.8912 50.0678C44.2229 44.3027 46.3404 40.2023 52.8582 40.2023C56.9525 40.2023 62.0382 41.818 66.9342 44.4435C67.4972 42.9441 69.064 42.0506 71.5915 42.0506C76.0408 42.0506 82.1791 44.8229 86.9894 48.7397C88.4727 47.7508 90.219 47.2305 92.0017 47.2464C96.2857 47.069 101.414 48.6663 105.9 51.2612C106.164 51.0119 106.474 50.8175 106.814 50.6893C107.153 50.5611 107.514 50.5017 107.877 50.5145C110.325 50.4166 113.648 52.0262 115.301 54.107C115.405 54.2416 115.49 54.364 115.582 54.4925H45.5938C45.4554 53.7049 45.5004 52.8959 45.7254 52.1285C45.9505 51.3611 46.3494 50.656 46.8912 50.0678Z" fill="#F5F5F5"/>
<path d="M126.268 22.6446C126.484 22.62 126.7 22.6077 126.917 22.6079C126.715 20.3557 127.884 18.9359 130.375 18.9359C132.174 18.9359 134.377 19.6886 136.629 20.9616C135.987 16.5919 138.043 13.7461 142.713 13.7461C146.476 13.7461 151.238 15.5821 155.944 18.6421C156.354 16.9285 157.743 15.9003 160.075 15.9003C164.163 15.9003 169.983 19.0705 174.647 23.5503C175.885 22.4379 177.493 21.8269 179.157 21.8367C183.056 21.6348 187.89 23.4585 192.181 26.4329C192.385 26.1572 192.653 25.9353 192.963 25.7861C193.272 25.6369 193.612 25.5648 193.955 25.5761C196.085 25.472 199.023 27.1061 200.724 29.3031H122.841C121.011 25.9433 122.468 23.0301 126.268 22.6446Z" fill="#F5F5F5"/>
<path d="M230.724 13.1027C229.01 9.43071 230.375 6.76851 234.555 6.76851C237.181 6.76851 240.437 7.80279 243.607 9.49191C243.962 8.53107 244.971 7.94967 246.593 7.94967C249.451 7.94967 253.386 9.73671 256.471 12.2337C257.424 11.6007 258.546 11.2681 259.69 11.279C262.42 11.1627 265.73 12.1847 268.607 13.8555C268.775 13.6944 268.974 13.5686 269.191 13.4856C269.409 13.4025 269.641 13.3639 269.874 13.372C270.785 13.4048 271.679 13.6269 272.5 14.0242C273.321 14.4214 274.05 14.985 274.641 15.6792L274.825 15.924H228.588C227.126 14.6266 228.741 13.1639 230.724 13.1027Z" fill="#F5F5F5"/>
<path d="M75.4045 133.734H54.5598V200.369H75.4045V133.734Z" fill="#EBEBEB"/>
<path d="M68.593 200.369H102.773L102.773 110.546H68.593L68.593 200.369Z" fill="#F5F5F5"/>
<path d="M120.515 110.545H102.773V200.368H120.515V110.545Z" fill="#EBEBEB"/>
<path d="M73.1891 110.545H102.773V101.616H73.1891V110.545Z" fill="#F5F5F5"/>
<path d="M73.1891 110.545H102.773V108.538H73.1891V110.545Z" fill="#EBEBEB"/>
<path d="M115.913 101.616H102.773V110.546H115.913V101.616Z" fill="#EBEBEB"/>
<path d="M77.7852 101.616H102.767V92.6874H77.7852V101.616Z" fill="#F5F5F5"/>
<path d="M77.7852 101.616H102.767V99.6091H77.7852V101.616Z" fill="#EBEBEB"/>
<path d="M111.317 92.6878H102.773V101.617H111.317V92.6878Z" fill="#EBEBEB"/>
<path d="M95.3797 80.2155H93.7212V92.6941H95.3797V80.2155Z" fill="#EBEBEB"/>
<path d="M114.848 200.369H139.812V126.164H114.848L114.848 200.369Z" fill="#F5F5F5"/>
<path d="M152.768 126.164H139.812V200.369H152.768V126.164Z" fill="#EBEBEB"/>
<path d="M146.286 147.363L165.215 163.594V200.369H146.286V147.363Z" fill="#F5F5F5"/>
<path d="M175.045 163.587H165.222V200.362H175.045V163.587Z" fill="#EBEBEB"/>
<path d="M175.044 163.594H165.215L146.286 147.363H156.115L175.044 163.594Z" fill="#EBEBEB"/>
<path d="M263.772 200.368C264.034 198.898 264.659 197.517 265.59 196.349C266.521 195.181 267.728 194.263 269.102 193.679C267.896 195.691 267.348 198.03 267.536 200.368H263.772Z" fill="#EBEBEB"/>
<path d="M87.2281 200.368C86.9656 198.898 86.3407 197.517 85.41 196.349C84.4792 195.181 83.2721 194.263 81.8976 193.679C83.1042 195.691 83.652 198.03 83.4643 200.368H87.2281Z" fill="#EBEBEB"/>
<path d="M43.5187 200.369C43.5187 200.369 43.2188 192.536 39.9446 190.259C41.2849 193.46 41.0034 200.369 41.0034 200.369H43.5187Z" fill="#EBEBEB"/>
<path d="M42.2892 200.369C42.2892 200.369 42.589 195.871 45.8632 194.567C44.523 196.403 44.8167 200.369 44.8167 200.369H42.2892Z" fill="#EBEBEB"/>
<path d="M90.0309 200.369C90.0309 200.369 89.7004 192.952 83.764 190.259C86.4201 194.066 86.2671 200.369 86.2671 200.369H90.0309Z" fill="#EBEBEB"/>
<path d="M236.41 190.332H221.41C221.248 190.332 221.092 190.267 220.977 190.152C220.862 190.038 220.798 189.882 220.798 189.72V174.738C220.798 174.576 220.862 174.42 220.977 174.305C221.092 174.19 221.248 174.126 221.41 174.126H236.41C236.572 174.126 236.728 174.19 236.843 174.305C236.957 174.42 237.022 174.576 237.022 174.738V189.72C237.022 189.882 236.957 190.038 236.843 190.152C236.728 190.267 236.572 190.332 236.41 190.332ZM222.022 189.108H235.798V175.35H222.022V189.108Z" fill="#E0E0E0"/>
<path d="M236.41 175.35H221.41C221.248 175.35 221.092 175.286 220.977 175.171C220.862 175.056 220.798 174.9 220.798 174.738V159.732C220.798 159.569 220.862 159.414 220.977 159.299C221.092 159.184 221.248 159.12 221.41 159.12H236.41C236.572 159.12 236.728 159.184 236.843 159.299C236.957 159.414 237.022 159.569 237.022 159.732V174.738C237.022 174.9 236.957 175.056 236.843 175.171C236.728 175.286 236.572 175.35 236.41 175.35ZM222.022 174.126H235.798V160.344H222.022V174.126Z" fill="#E0E0E0"/>
<path d="M236.41 190.332C236.249 190.33 236.095 190.264 235.982 190.149L220.975 175.149C220.86 175.034 220.795 174.877 220.795 174.714C220.795 174.551 220.86 174.395 220.975 174.28C221.091 174.164 221.247 174.1 221.41 174.1C221.573 174.1 221.729 174.164 221.844 174.28L236.845 189.31C236.959 189.425 237.023 189.58 237.023 189.742C237.023 189.904 236.959 190.059 236.845 190.173C236.726 190.281 236.57 190.338 236.41 190.332Z" fill="#E0E0E0"/>
<path d="M236.409 175.35C236.249 175.349 236.095 175.285 235.981 175.172L220.975 160.166C220.861 160.051 220.797 159.896 220.797 159.735C220.797 159.573 220.861 159.418 220.975 159.303C221.031 159.246 221.099 159.2 221.174 159.169C221.248 159.138 221.328 159.122 221.409 159.122C221.49 159.122 221.57 159.138 221.644 159.169C221.719 159.2 221.787 159.246 221.844 159.303L236.844 174.303C236.93 174.389 236.989 174.498 237.013 174.618C237.037 174.737 237.025 174.86 236.978 174.973C236.931 175.085 236.852 175.181 236.751 175.248C236.65 175.315 236.531 175.351 236.409 175.35Z" fill="#E0E0E0"/>
<path d="M236.41 160.344H221.41C221.248 160.344 221.092 160.279 220.977 160.165C220.862 160.05 220.798 159.894 220.798 159.732V144.732C220.798 144.569 220.862 144.414 220.977 144.299C221.092 144.184 221.248 144.12 221.41 144.12H236.41C236.572 144.12 236.728 144.184 236.843 144.299C236.957 144.414 237.022 144.569 237.022 144.732V159.732C237.022 159.894 236.957 160.05 236.843 160.165C236.728 160.279 236.572 160.344 236.41 160.344ZM222.022 159.12H235.798V145.344H222.022V159.12Z" fill="#E0E0E0"/>
<path d="M236.41 145.344H221.41C221.248 145.344 221.092 145.28 220.977 145.165C220.862 145.05 220.798 144.894 220.798 144.732V129.744C220.798 129.582 220.862 129.426 220.977 129.312C221.092 129.197 221.248 129.132 221.41 129.132H236.41C236.572 129.132 236.728 129.197 236.843 129.312C236.957 129.426 237.022 129.582 237.022 129.744V144.751C237.017 144.91 236.951 145.061 236.836 145.171C236.722 145.282 236.569 145.344 236.41 145.344ZM222.022 144.12H235.798V130.356H222.022V144.12Z" fill="#E0E0E0"/>
<path d="M236.409 160.344C236.249 160.343 236.095 160.279 235.981 160.166L220.975 145.16C220.861 145.045 220.797 144.89 220.797 144.729C220.797 144.567 220.861 144.412 220.975 144.297C221.031 144.24 221.099 144.194 221.174 144.163C221.248 144.132 221.328 144.116 221.409 144.116C221.49 144.116 221.57 144.132 221.644 144.163C221.719 144.194 221.787 144.24 221.844 144.297L236.844 159.303C236.958 159.418 237.022 159.573 237.022 159.735C237.022 159.896 236.958 160.052 236.844 160.166C236.787 160.223 236.719 160.268 236.644 160.298C236.57 160.329 236.49 160.344 236.409 160.344Z" fill="#E0E0E0"/>
<path d="M236.41 145.344C236.249 145.342 236.095 145.276 235.982 145.16L220.975 130.16C220.86 130.045 220.795 129.889 220.795 129.726C220.795 129.563 220.86 129.406 220.975 129.291C221.091 129.176 221.247 129.111 221.41 129.111C221.573 129.111 221.729 129.176 221.844 129.291L236.845 144.297C236.959 144.412 237.023 144.567 237.023 144.729C237.023 144.891 236.959 145.046 236.845 145.16C236.788 145.218 236.72 145.264 236.646 145.296C236.571 145.327 236.491 145.344 236.41 145.344Z" fill="#E0E0E0"/>
<path d="M236.41 130.356H221.41C221.248 130.356 221.092 130.292 220.977 130.177C220.862 130.062 220.798 129.906 220.798 129.744V114.719C220.798 114.557 220.862 114.401 220.977 114.287C221.092 114.172 221.248 114.107 221.41 114.107H236.41C236.572 114.107 236.728 114.172 236.843 114.287C236.957 114.401 237.022 114.557 237.022 114.719V129.744C237.022 129.906 236.957 130.062 236.843 130.177C236.728 130.292 236.572 130.356 236.41 130.356ZM222.022 129.132H235.798V115.331H222.022V129.132Z" fill="#E0E0E0"/>
<path d="M236.41 115.332H221.41C221.248 115.332 221.092 115.267 220.977 115.152C220.862 115.038 220.798 114.882 220.798 114.72V99.7196C220.798 99.5573 220.862 99.4016 220.977 99.2869C221.092 99.1721 221.248 99.1076 221.41 99.1076H236.41C236.572 99.1076 236.728 99.1721 236.843 99.2869C236.957 99.4016 237.022 99.5573 237.022 99.7196V114.72C237.022 114.882 236.957 115.038 236.843 115.152C236.728 115.267 236.572 115.332 236.41 115.332ZM222.022 114.108H235.798V100.332H222.022V114.108Z" fill="#E0E0E0"/>
<path d="M236.409 130.356C236.249 130.356 236.095 130.292 235.981 130.179L220.975 115.173C220.861 115.058 220.797 114.903 220.797 114.741C220.797 114.579 220.861 114.424 220.975 114.31C221.031 114.252 221.099 114.207 221.174 114.176C221.248 114.145 221.328 114.129 221.409 114.129C221.49 114.129 221.57 114.145 221.644 114.176C221.719 114.207 221.787 114.252 221.844 114.31L236.844 129.291C236.93 129.377 236.989 129.486 237.013 129.606C237.037 129.725 237.025 129.848 236.978 129.961C236.931 130.073 236.852 130.169 236.751 130.236C236.65 130.303 236.531 130.339 236.409 130.338V130.356Z" fill="#E0E0E0"/>
<path d="M221.41 65.2091H206.404C206.241 65.2091 206.086 65.1446 205.971 65.0299C205.856 64.9151 205.792 64.7594 205.792 64.5971V49.5725C205.792 49.4102 205.856 49.2545 205.971 49.1398C206.086 49.025 206.241 48.9605 206.404 48.9605H221.41C221.572 48.9605 221.728 49.025 221.843 49.1398C221.957 49.2545 222.022 49.4102 222.022 49.5725V64.5726C222.025 64.655 222.012 64.7373 221.983 64.8144C221.953 64.8915 221.909 64.9618 221.852 65.0213C221.794 65.0807 221.726 65.128 221.65 65.1603C221.574 65.1926 221.492 65.2092 221.41 65.2091ZM207.016 63.9851H220.798V50.1845H207.016V63.9851Z" fill="#E0E0E0"/>
<path d="M236.41 65.2087H221.41C221.248 65.2087 221.092 65.1442 220.977 65.0294C220.862 64.9146 220.798 64.759 220.798 64.5967C220.798 64.4344 220.862 64.2787 220.977 64.1639C221.092 64.0492 221.248 63.9847 221.41 63.9847H235.798V34.6087C235.798 34.4464 235.862 34.2907 235.977 34.1759C236.092 34.0612 236.248 33.9967 236.41 33.9967C236.572 33.9967 236.728 34.0612 236.843 34.1759C236.957 34.2907 237.022 34.4464 237.022 34.6087V64.5967C237.022 64.759 236.957 64.9146 236.843 65.0294C236.728 65.1442 236.572 65.2087 236.41 65.2087Z" fill="#E0E0E0"/>
<path d="M221.409 65.209C221.304 65.2097 221.201 65.1835 221.109 65.1329C221.017 65.0822 220.94 65.0088 220.885 64.9198C220.83 64.8307 220.798 64.7289 220.793 64.6241C220.789 64.5194 220.811 64.4152 220.858 64.3216L235.865 34.3336C235.938 34.1895 236.065 34.0802 236.219 34.0298C236.373 33.9793 236.54 33.9917 236.685 34.0643C236.83 34.1366 236.94 34.2636 236.992 34.4174C237.044 34.5711 237.032 34.7391 236.96 34.8844L221.954 64.8724C221.903 64.9733 221.825 65.0582 221.729 65.1176C221.633 65.177 221.522 65.2087 221.409 65.209Z" fill="#E0E0E0"/>
<path d="M206.403 65.2091H191.403C191.24 65.2091 191.085 65.1446 190.97 65.0299C190.855 64.9151 190.791 64.7594 190.791 64.5971V49.5725C190.791 49.4102 190.855 49.2545 190.97 49.1398C191.085 49.025 191.24 48.9605 191.403 48.9605H206.403C206.565 48.9605 206.721 49.025 206.835 49.1398C206.95 49.2545 207.015 49.4102 207.015 49.5725V64.5726C207.018 64.655 207.005 64.7373 206.975 64.8144C206.946 64.8915 206.902 64.9618 206.844 65.0213C206.787 65.0807 206.719 65.128 206.643 65.1603C206.567 65.1926 206.485 65.2092 206.403 65.2091ZM192.015 63.9851H205.791V50.1845H192.015V63.9851Z" fill="#E0E0E0"/>
<path d="M206.403 65.2081C206.283 65.2064 206.166 65.1696 206.067 65.1022C205.968 65.0349 205.891 64.9399 205.845 64.8292C205.8 64.7184 205.788 64.5967 205.81 64.4791C205.833 64.3615 205.89 64.2532 205.974 64.1677L220.974 49.1614C221.031 49.1041 221.099 49.0586 221.173 49.0275C221.248 48.9964 221.328 48.9804 221.409 48.9804C221.49 48.9804 221.57 48.9964 221.644 49.0275C221.719 49.0586 221.786 49.1041 221.843 49.1614C221.957 49.2761 222.021 49.4312 222.021 49.5929C222.021 49.7546 221.957 49.9097 221.843 50.0244L206.855 65.0306C206.796 65.0896 206.725 65.1357 206.647 65.1663C206.57 65.1968 206.486 65.211 206.403 65.2081Z" fill="#E0E0E0"/>
<path d="M251.416 65.2091H236.41C236.248 65.2091 236.092 65.1446 235.977 65.0299C235.862 64.9151 235.798 64.7594 235.798 64.5971V49.5725C235.798 49.4102 235.862 49.2545 235.977 49.1398C236.092 49.025 236.248 48.9605 236.41 48.9605H251.416C251.578 48.9605 251.734 49.025 251.849 49.1398C251.964 49.2545 252.028 49.4102 252.028 49.5725V64.5726C252.031 64.655 252.018 64.7373 251.989 64.8144C251.959 64.8915 251.915 64.9618 251.858 65.0213C251.801 65.0807 251.732 65.128 251.656 65.1603C251.58 65.1926 251.499 65.2092 251.416 65.2091ZM237.022 63.9851H250.804V50.1845H237.022V63.9851Z" fill="#E0E0E0"/>
<path d="M236.41 65.2081C236.29 65.2064 236.174 65.1696 236.074 65.1022C235.975 65.0349 235.898 64.9399 235.853 64.8292C235.807 64.7184 235.795 64.5967 235.818 64.4791C235.841 64.3615 235.898 64.2532 235.982 64.1677L250.982 49.1614C251.039 49.1041 251.106 49.0586 251.181 49.0275C251.255 48.9964 251.335 48.9804 251.416 48.9804C251.497 48.9804 251.577 48.9964 251.652 49.0275C251.726 49.0586 251.794 49.1041 251.851 49.1614C251.965 49.2761 252.029 49.4312 252.029 49.5929C252.029 49.7546 251.965 49.9097 251.851 50.0244L236.845 65.0306C236.787 65.0873 236.72 65.1322 236.645 65.1627C236.57 65.1931 236.491 65.2085 236.41 65.2081Z" fill="#E0E0E0"/>
<path d="M146.391 65.208C146.31 65.2085 146.23 65.1931 146.156 65.1626C146.081 65.1321 146.013 65.0873 145.956 65.0305C145.842 64.9159 145.778 64.7608 145.778 64.5991C145.778 64.4374 145.842 64.2823 145.956 64.1676L160.956 49.1614C161.04 49.0739 161.149 49.0159 161.268 48.9961L236.294 33.9899C236.392 33.9702 236.494 33.975 236.59 34.0038C236.686 34.0326 236.773 34.0846 236.844 34.1551L266.832 64.1431C266.896 64.198 266.948 64.2655 266.985 64.3415C267.022 64.4174 267.043 64.5001 267.046 64.5844C267.049 64.6686 267.035 64.7527 267.004 64.8312C266.973 64.9098 266.927 64.9811 266.867 65.0407C266.807 65.1004 266.736 65.1471 266.658 65.1778C266.579 65.2086 266.495 65.2228 266.411 65.2195C266.326 65.2163 266.244 65.1956 266.168 65.1589C266.092 65.1222 266.024 65.0701 265.969 65.0061L236.232 35.2567L161.697 50.1834L146.819 65.055C146.701 65.1592 146.548 65.214 146.391 65.208Z" fill="#E0E0E0"/>
<path d="M191.403 65.2091C191.323 65.2096 191.243 65.1942 191.168 65.1637C191.094 65.1332 191.026 65.0884 190.969 65.0317C190.855 64.917 190.791 64.7619 190.791 64.6002C190.791 64.4385 190.855 64.2834 190.969 64.1687L205.975 49.1625C206.092 49.0622 206.242 49.0098 206.396 49.0158C206.551 49.0217 206.697 49.0856 206.806 49.1946C206.915 49.3036 206.978 49.4497 206.984 49.6037C206.99 49.7577 206.938 49.9083 206.838 50.0254L191.831 65.0317C191.717 65.1447 191.564 65.2085 191.403 65.2091Z" fill="#E0E0E0"/>
<path d="M191.403 65.2091H176.396C176.234 65.2091 176.078 65.1446 175.964 65.0299C175.849 64.9151 175.784 64.7594 175.784 64.5971V49.5725C175.784 49.4102 175.849 49.2545 175.964 49.1398C176.078 49.025 176.234 48.9605 176.396 48.9605H191.403C191.565 48.9605 191.721 49.025 191.835 49.1398C191.95 49.2545 192.015 49.4102 192.015 49.5725V64.5726C192.018 64.655 192.005 64.7373 191.975 64.8144C191.946 64.8915 191.901 64.9618 191.844 65.0213C191.787 65.0807 191.719 65.128 191.643 65.1603C191.567 65.1926 191.485 65.2092 191.403 65.2091ZM177.008 63.9851H190.791V50.1845H177.008V63.9851Z" fill="#E0E0E0"/>
<path d="M176.397 65.2091H161.39C161.228 65.2091 161.072 65.1446 160.958 65.0299C160.843 64.9151 160.778 64.7594 160.778 64.5971V49.5725C160.778 49.4102 160.843 49.2545 160.958 49.1398C161.072 49.025 161.228 48.9605 161.39 48.9605H176.397C176.559 48.9605 176.714 49.025 176.829 49.1398C176.944 49.2545 177.009 49.4102 177.009 49.5725V64.5726C177.012 64.655 176.998 64.7373 176.969 64.8144C176.94 64.8915 176.895 64.9618 176.838 65.0213C176.781 65.0807 176.712 65.128 176.637 65.1603C176.561 65.1926 176.479 65.2092 176.397 65.2091ZM162.002 63.9851H175.785V50.1845H162.002V63.9851Z" fill="#E0E0E0"/>
<path d="M176.397 65.2091C176.316 65.2096 176.237 65.1942 176.162 65.1637C176.087 65.1332 176.02 65.0884 175.962 65.0317C175.848 64.917 175.784 64.7619 175.784 64.6002C175.784 64.4385 175.848 64.2834 175.962 64.1687L190.944 49.1625C191.061 49.0622 191.212 49.0098 191.366 49.0158C191.52 49.0217 191.666 49.0856 191.775 49.1946C191.884 49.3036 191.948 49.4497 191.954 49.6037C191.96 49.7577 191.907 49.9083 191.807 50.0254L176.807 65.0317C176.698 65.1404 176.551 65.2038 176.397 65.2091Z" fill="#E0E0E0"/>
<path d="M161.39 65.2081C161.271 65.2064 161.154 65.1696 161.055 65.1022C160.956 65.0349 160.879 64.9399 160.833 64.8292C160.787 64.7184 160.775 64.5967 160.798 64.4791C160.821 64.3615 160.878 64.2532 160.962 64.1677L175.962 49.1614C176.019 49.1041 176.087 49.0586 176.161 49.0275C176.236 48.9964 176.316 48.9804 176.397 48.9804C176.477 48.9804 176.557 48.9964 176.632 49.0275C176.707 49.0586 176.774 49.1041 176.831 49.1614C176.945 49.2761 177.009 49.4312 177.009 49.5929C177.009 49.7546 176.945 49.9097 176.831 50.0244L161.825 65.0306C161.768 65.0873 161.7 65.1322 161.625 65.1627C161.551 65.1931 161.471 65.2085 161.39 65.2081Z" fill="#E0E0E0"/>
<path d="M161.39 65.2091H146.39C146.228 65.2091 146.072 65.1446 145.958 65.0299C145.843 64.9151 145.778 64.7594 145.778 64.5971C145.778 64.4348 145.843 64.2791 145.958 64.1644C146.072 64.0496 146.228 63.9851 146.39 63.9851H160.778V49.5725C160.778 49.4102 160.843 49.2545 160.958 49.1398C161.072 49.025 161.228 48.9605 161.39 48.9605C161.553 48.9605 161.708 49.025 161.823 49.1398C161.938 49.2545 162.002 49.4102 162.002 49.5725V64.5726C162.006 64.655 161.992 64.7373 161.963 64.8144C161.934 64.8915 161.889 64.9618 161.832 65.0213C161.775 65.0807 161.706 65.128 161.63 65.1603C161.554 65.1926 161.473 65.2092 161.39 65.2091Z" fill="#E0E0E0"/>
<path d="M236.41 115.332C236.249 115.331 236.096 115.267 235.982 115.154L220.975 100.154C220.918 100.097 220.873 100.029 220.842 99.9547C220.811 99.8802 220.795 99.8003 220.795 99.7196C220.795 99.6389 220.811 99.559 220.842 99.4844C220.873 99.4099 220.918 99.3421 220.975 99.2851C221.032 99.228 221.1 99.1827 221.175 99.1518C221.249 99.121 221.329 99.1051 221.41 99.1051C221.491 99.1051 221.571 99.121 221.645 99.1518C221.72 99.1827 221.787 99.228 221.844 99.2851L236.845 114.291C236.959 114.406 237.023 114.561 237.023 114.723C237.023 114.884 236.959 115.04 236.845 115.154C236.787 115.211 236.72 115.256 236.645 115.286C236.57 115.317 236.491 115.332 236.41 115.332Z" fill="#E0E0E0"/>
<path d="M236.41 100.332H221.41C221.248 100.332 221.092 100.267 220.977 100.152C220.862 100.038 220.798 99.882 220.798 99.7197V84.7134C220.798 84.5511 220.862 84.3955 220.977 84.2807C221.092 84.1659 221.248 84.1014 221.41 84.1014H236.41C236.572 84.1014 236.728 84.1659 236.843 84.2807C236.957 84.3955 237.022 84.5511 237.022 84.7134V99.7197C237.022 99.882 236.957 100.038 236.843 100.152C236.728 100.267 236.572 100.332 236.41 100.332ZM222.022 99.1077H235.798V85.3254H222.022V99.1077Z" fill="#E0E0E0"/>
<path d="M236.41 85.3256H221.41C221.248 85.3256 221.092 85.2611 220.977 85.1463C220.862 85.0315 220.798 84.8759 220.798 84.7136V69.7135C220.798 69.5511 220.862 69.3955 220.977 69.2807C221.092 69.1659 221.248 69.1015 221.41 69.1015H236.41C236.572 69.1015 236.728 69.1659 236.843 69.2807C236.957 69.3955 237.022 69.5511 237.022 69.7135V84.7136C237.022 84.8759 236.957 85.0315 236.843 85.1463C236.728 85.2611 236.572 85.3256 236.41 85.3256ZM222.022 84.1016H235.798V70.3255H222.022V84.1016Z" fill="#E0E0E0"/>
<path d="M236.41 100.332C236.249 100.331 236.096 100.267 235.982 100.154L220.975 85.1479C220.918 85.0909 220.873 85.0231 220.842 84.9486C220.811 84.874 220.795 84.7941 220.795 84.7134C220.795 84.6327 220.811 84.5528 220.842 84.4782C220.873 84.4037 220.918 84.3359 220.975 84.2789C221.032 84.2218 221.1 84.1765 221.175 84.1457C221.249 84.1148 221.329 84.0989 221.41 84.0989C221.491 84.0989 221.571 84.1148 221.645 84.1457C221.72 84.1765 221.787 84.2218 221.844 84.2789L236.845 99.2851C236.931 99.3707 236.99 99.4801 237.014 99.5993C237.038 99.7185 237.025 99.8421 236.979 99.9543C236.932 100.067 236.853 100.162 236.752 100.23C236.651 100.297 236.532 100.332 236.41 100.332Z" fill="#E0E0E0"/>
<path d="M236.409 85.3255C236.249 85.3248 236.095 85.2611 235.981 85.148L220.975 70.1418C220.861 70.0271 220.797 69.872 220.797 69.7103C220.797 69.5486 220.861 69.3935 220.975 69.2788C221.031 69.2215 221.099 69.1759 221.174 69.1449C221.248 69.1138 221.328 69.0978 221.409 69.0978C221.49 69.0978 221.57 69.1138 221.644 69.1449C221.719 69.1759 221.787 69.2215 221.844 69.2788L236.844 84.279C236.93 84.3646 236.989 84.4739 237.013 84.5931C237.037 84.7123 237.025 84.8359 236.978 84.9482C236.931 85.0604 236.852 85.1563 236.751 85.2235C236.65 85.2907 236.531 85.3262 236.409 85.3255Z" fill="#E0E0E0"/>
<path d="M266.422 64.5967H146.391L161.391 69.713H266.422V64.5967Z" fill="#E0E0E0"/>
<path d="M266.422 70.3244H161.39C161.323 70.3241 161.257 70.3116 161.195 70.2877L146.188 65.1775C146.049 65.1318 145.931 65.0377 145.855 64.9123C145.779 64.7868 145.751 64.6384 145.776 64.4939C145.8 64.3494 145.876 64.2185 145.988 64.125C146.101 64.0314 146.244 63.9815 146.39 63.9841H266.422C266.584 63.9841 266.74 64.0486 266.855 64.1634C266.969 64.2781 267.034 64.4338 267.034 64.5961V69.7124C267.034 69.8748 266.969 70.0304 266.855 70.1452C266.74 70.26 266.584 70.3244 266.422 70.3244ZM161.494 69.1004H265.81V65.2081H150.081L161.494 69.1004Z" fill="#E0E0E0"/>
<path d="M210.301 90.7591H221.409V67.1543H210.301V90.7591Z" fill="#E0E0E0"/>
<path d="M210.296 67.1554H205.131V90.7603H210.296V67.1554Z" fill="#F5F5F5"/>
<path d="M223.062 200.363H244.935V189.739H223.062V200.363Z" fill="#E0E0E0"/>
<path d="M223.061 189.745H212.884V200.369H223.061V189.745Z" fill="#F5F5F5"/>
<path d="M251.416 90.9677C251.254 90.9677 251.098 90.9032 250.983 90.7884C250.869 90.6736 250.804 90.518 250.804 90.3557V67.1547C250.804 66.9924 250.869 66.8368 250.983 66.722C251.098 66.6072 251.254 66.5427 251.416 66.5427C251.578 66.5427 251.734 66.6072 251.849 66.722C251.964 66.8368 252.028 66.9924 252.028 67.1547V90.3557C252.028 90.518 251.964 90.6736 251.849 90.7884C251.734 90.9032 251.578 90.9677 251.416 90.9677Z" fill="#E0E0E0"/>
<path d="M251.415 93.7822C251.016 93.7822 250.625 93.6638 250.293 93.4419C249.961 93.22 249.702 92.9045 249.549 92.5355C249.397 92.1665 249.357 91.7604 249.435 91.3686C249.512 90.9769 249.705 90.617 249.987 90.3346C250.27 90.0521 250.63 89.8598 251.021 89.7818C251.413 89.7039 251.819 89.7439 252.188 89.8968C252.557 90.0496 252.873 90.3085 253.095 90.6406C253.317 90.9727 253.435 91.3632 253.435 91.7626C253.435 92.0279 253.383 92.2905 253.281 92.5355C253.18 92.7805 253.031 93.0032 252.843 93.1907C252.656 93.3782 252.433 93.527 252.188 93.6285C251.943 93.73 251.681 93.7822 251.415 93.7822ZM251.415 90.967C251.258 90.967 251.104 91.0137 250.973 91.1011C250.843 91.1885 250.741 91.3128 250.68 91.4582C250.62 91.6035 250.604 91.7635 250.635 91.9179C250.666 92.0722 250.742 92.2139 250.853 92.3252C250.964 92.4365 251.106 92.5123 251.26 92.543C251.414 92.5737 251.574 92.5579 251.72 92.4977C251.865 92.4375 251.989 92.3355 252.077 92.2047C252.164 92.0738 252.211 91.92 252.211 91.7626C252.211 91.6582 252.19 91.5547 252.15 91.4582C252.11 91.3616 252.052 91.2739 251.978 91.2001C251.904 91.1262 251.816 91.0676 251.72 91.0276C251.623 90.9876 251.52 90.967 251.415 90.967Z" fill="#E0E0E0"/>
<path d="M163.275 103.146C163.113 103.146 162.957 103.082 162.843 102.967C162.728 102.852 162.663 102.697 162.663 102.534V67.1547C162.663 66.9924 162.728 66.8368 162.843 66.722C162.957 66.6072 163.113 66.5427 163.275 66.5427C163.438 66.5427 163.593 66.6072 163.708 66.722C163.823 66.8368 163.887 66.9924 163.887 67.1547V102.534C163.887 102.697 163.823 102.852 163.708 102.967C163.593 103.082 163.438 103.146 163.275 103.146Z" fill="#E0E0E0"/>
<path d="M169.022 106.813C168.876 106.815 168.734 106.765 168.622 106.672C168.51 106.578 168.435 106.448 168.41 106.305C167.957 105.595 163.973 103.245 163.245 103.147C162.559 103.238 158.575 105.595 158.122 106.305C158.108 106.467 158.031 106.617 157.906 106.722C157.782 106.827 157.62 106.878 157.458 106.865C157.296 106.851 157.146 106.773 157.041 106.649C156.936 106.524 156.884 106.363 156.898 106.201C156.898 104.824 162.449 101.917 163.251 101.917C164.052 101.917 169.609 104.817 169.609 106.201C169.61 106.359 169.548 106.511 169.439 106.625C169.329 106.739 169.18 106.806 169.022 106.813Z" fill="#E0E0E0"/>
<path d="M175.644 151.047L184.622 142.069L182.706 138.397C182.872 138.03 183.025 137.663 183.165 137.284L187.101 136.06V123.379L183.165 122.155C183.018 121.782 182.872 121.408 182.706 121.041L184.616 117.369L175.644 108.409L171.972 110.319C171.605 110.154 171.237 110.001 170.864 109.86L169.64 105.925H156.929L155.705 109.86C155.332 110.001 154.964 110.154 154.597 110.319L150.925 108.409L141.984 117.381L143.899 121.053C143.728 121.42 143.581 121.794 143.434 122.167L139.499 123.391V136.084L143.434 137.308C143.581 137.687 143.728 138.055 143.893 138.422L141.984 142.094L150.962 151.072L154.634 149.156C155.001 149.322 155.374 149.475 155.748 149.615L156.972 153.55H169.671L170.895 149.615C171.268 149.475 171.635 149.322 172.002 149.156L175.644 151.047ZM169.983 136.402C168.662 137.724 166.978 138.625 165.145 138.99C163.312 139.355 161.411 139.168 159.685 138.453C157.958 137.738 156.482 136.526 155.443 134.972C154.405 133.418 153.85 131.591 153.85 129.722C153.85 127.853 154.405 126.026 155.443 124.472C156.482 122.918 157.958 121.707 159.685 120.992C161.411 120.277 163.312 120.09 165.145 120.455C166.978 120.82 168.662 121.72 169.983 123.042C170.86 123.92 171.555 124.963 172.028 126.11C172.501 127.257 172.744 128.486 172.742 129.727C172.739 130.968 172.492 132.197 172.015 133.342C171.537 134.487 170.838 135.527 169.958 136.402H169.983Z" fill="#E0E0E0"/>
<path d="M153 228.007C218.534 228.007 271.66 224.905 271.66 221.079C271.66 217.253 218.534 214.151 153 214.151C87.4652 214.151 34.3391 217.253 34.3391 221.079C34.3391 224.905 87.4652 228.007 153 228.007Z" fill="#F5F5F5"/>
<path d="M107.644 66.1879H100.007C99.6576 66.1882 99.3146 66.2799 99.0118 66.4538C98.709 66.6277 98.4571 66.8778 98.2809 67.1793L94.462 73.795C94.2875 74.0985 94.1956 74.4425 94.1956 74.7926C94.1956 75.1427 94.2875 75.4866 94.462 75.7901L98.2809 82.3997C98.4553 82.7032 98.7068 82.9552 99.0098 83.1303C99.3128 83.3055 99.6567 83.3976 100.007 83.3973H107.644C107.994 83.3976 108.338 83.3055 108.641 83.1303C108.944 82.9552 109.196 82.7032 109.37 82.3997L113.189 75.7901C113.364 75.4866 113.456 75.1427 113.456 74.7926C113.456 74.4425 113.364 74.0985 113.189 73.795L109.37 67.1793C109.194 66.8778 108.942 66.6277 108.639 66.4538C108.337 66.2799 107.994 66.1882 107.644 66.1879Z" fill="#FF9933"/>
<path opacity="0.5" d="M107.644 66.1879H100.007C99.6576 66.1882 99.3146 66.2799 99.0118 66.4538C98.709 66.6277 98.4571 66.8778 98.2809 67.1793L94.462 73.795C94.2875 74.0985 94.1956 74.4425 94.1956 74.7926C94.1956 75.1427 94.2875 75.4866 94.462 75.7901L98.2809 82.3997C98.4553 82.7032 98.7068 82.9552 99.0098 83.1303C99.3128 83.3055 99.6567 83.3976 100.007 83.3973H107.644C107.994 83.3976 108.338 83.3055 108.641 83.1303C108.944 82.9552 109.196 82.7032 109.37 82.3997L113.189 75.7901C113.364 75.4866 113.456 75.1427 113.456 74.7926C113.456 74.4425 113.364 74.0985 113.189 73.795L109.37 67.1793C109.194 66.8778 108.942 66.6277 108.639 66.4538C108.337 66.2799 107.994 66.1882 107.644 66.1879Z" fill="#FAFAF0"/>
<path d="M58.7521 44.2664L58.3176 43.8319L61.9896 40.1599L62.4241 40.5944L58.7521 44.2664ZM65.0741 37.9445L64.6396 37.51L72.314 29.8355L72.7486 30.2639L65.0741 37.9445Z" fill="#FF9933"/>
<path opacity="0.5" d="M58.7521 44.2664L58.3176 43.8319L61.9896 40.1599L62.4241 40.5944L58.7521 44.2664ZM65.0741 37.9445L64.6396 37.51L72.314 29.8355L72.7486 30.2639L65.0741 37.9445Z" fill="#FAFAF0"/>
<path d="M155.754 88.6419V60.9427L147.186 58.2561C146.88 57.436 146.544 56.6281 146.189 55.8081L150.356 47.8521L130.772 28.2681L122.816 32.4419C122.015 32.0808 121.213 31.7442 120.368 31.4321L117.682 22.8641H89.9641L87.2836 31.4321C86.4574 31.7442 85.6557 32.0808 84.8356 32.4419L76.8796 28.2681L57.2956 47.8521L61.4694 55.8081C61.1083 56.6098 60.7717 57.4115 60.4657 58.2561L51.8977 60.9427V88.6419L60.4657 91.3224C60.7779 92.1425 61.1145 92.9503 61.4694 93.7704L57.2956 101.726L76.8796 121.31L84.8356 117.137C85.6312 117.498 86.4329 117.834 87.2836 118.146L89.9641 126.714H117.663L120.35 118.146C121.17 117.834 121.972 117.498 122.798 117.137L130.754 121.31L150.338 101.726L146.164 93.7704C146.519 92.9748 146.862 92.167 147.168 91.3224L155.754 88.6419ZM124.438 74.7862C124.438 78.8629 123.229 82.848 120.964 86.2377C118.699 89.6273 115.48 92.2693 111.714 93.8293C107.947 95.3894 103.803 95.7976 99.8047 95.0023C95.8063 94.207 92.1336 92.2438 89.2509 89.3612C86.3683 86.4785 84.4052 82.8058 83.6098 78.8074C82.8145 74.8091 83.2227 70.6646 84.7828 66.8983C86.3429 63.1319 88.9848 59.9127 92.3744 57.6478C95.7641 55.3829 99.7492 54.174 103.826 54.174C109.292 54.1756 114.534 56.3478 118.399 60.213C122.264 64.0782 124.436 69.32 124.438 74.7862Z" fill="#FF9933"/>
<path opacity="0.5" d="M155.754 88.6419V60.9427L147.186 58.2561C146.88 57.436 146.544 56.6281 146.189 55.8081L150.356 47.8521L130.772 28.2681L122.816 32.4419C122.015 32.0808 121.213 31.7442 120.368 31.4321L117.682 22.8641H89.9641L87.2836 31.4321C86.4574 31.7442 85.6557 32.0808 84.8356 32.4419L76.8796 28.2681L57.2956 47.8521L61.4694 55.8081C61.1083 56.6098 60.7717 57.4115 60.4657 58.2561L51.8977 60.9427V88.6419L60.4657 91.3224C60.7779 92.1425 61.1145 92.9503 61.4694 93.7704L57.2956 101.726L76.8796 121.31L84.8356 117.137C85.6312 117.498 86.4329 117.834 87.2836 118.146L89.9641 126.714H117.663L120.35 118.146C121.17 117.834 121.972 117.498 122.798 117.137L130.754 121.31L150.338 101.726L146.164 93.7704C146.519 92.9748 146.862 92.167 147.168 91.3224L155.754 88.6419ZM124.438 74.7862C124.438 78.8629 123.229 82.848 120.964 86.2377C118.699 89.6273 115.48 92.2693 111.714 93.8293C107.947 95.3894 103.803 95.7976 99.8047 95.0023C95.8063 94.207 92.1336 92.2438 89.2509 89.3612C86.3683 86.4785 84.4052 82.8058 83.6098 78.8074C82.8145 74.8091 83.2227 70.6646 84.7828 66.8983C86.3429 63.1319 88.9848 59.9127 92.3744 57.6478C95.7641 55.3829 99.7492 54.174 103.826 54.174C109.292 54.1756 114.534 56.3478 118.399 60.213C122.264 64.0782 124.436 69.32 124.438 74.7862Z" fill="#FAFAF0"/>
<path d="M116.329 125.038H91.3284C91.2953 125.038 91.2631 125.027 91.2366 125.007C91.2101 124.987 91.1908 124.959 91.1815 124.928L88.7335 117.204C88.7213 117.165 88.7251 117.123 88.7441 117.087C88.763 117.051 88.7955 117.024 88.8345 117.011C88.8734 116.999 88.9156 117.003 88.9518 117.022C88.9879 117.041 89.0151 117.073 89.0273 117.112L91.4079 124.732H116.182L118.728 116.69C118.735 116.668 118.747 116.648 118.763 116.631C118.779 116.614 118.798 116.601 118.819 116.592L119.658 116.28C120.368 116.011 121.121 115.699 121.971 115.319L122.785 114.952C122.823 114.936 122.865 114.935 122.903 114.95C122.941 114.965 122.971 114.994 122.987 115.032C123.003 115.069 123.004 115.111 122.989 115.149C122.974 115.187 122.945 115.217 122.908 115.234L122.094 115.595C121.243 115.98 120.478 116.292 119.768 116.562L118.997 116.855L116.475 124.928C116.465 124.959 116.446 124.986 116.42 125.006C116.393 125.026 116.361 125.037 116.329 125.038ZM130.405 119.205C130.364 119.204 130.325 119.189 130.294 119.163C130.28 119.148 130.268 119.131 130.26 119.112C130.252 119.093 130.248 119.073 130.248 119.052C130.248 119.032 130.252 119.012 130.26 118.993C130.268 118.974 130.28 118.957 130.294 118.942L147.896 101.347L143.985 93.8809C143.974 93.8601 143.969 93.837 143.969 93.8136C143.969 93.7902 143.974 93.7671 143.985 93.7463L144.352 92.9323C144.719 92.1061 145.031 91.3472 145.307 90.6251L145.619 89.7866C145.628 89.7651 145.641 89.7458 145.658 89.7299C145.675 89.714 145.695 89.7021 145.717 89.6948L153.765 87.1795V62.4241L145.809 59.9394C145.787 59.9362 145.766 59.9282 145.747 59.916C145.729 59.9039 145.713 59.8879 145.701 59.869C145.689 59.8502 145.682 59.829 145.679 59.807C145.676 59.785 145.678 59.7626 145.685 59.7415C145.692 59.7203 145.703 59.7009 145.718 59.6846C145.733 59.6682 145.751 59.6553 145.772 59.6468C145.792 59.6382 145.815 59.6343 145.837 59.6351C145.859 59.636 145.881 59.6416 145.9 59.6517L153.942 62.1609C153.972 62.1721 153.998 62.192 154.017 62.2183C154.035 62.2445 154.046 62.2757 154.046 62.3078V87.308C154.047 87.3404 154.037 87.372 154.018 87.3984C153.999 87.4248 153.973 87.4446 153.942 87.4549L145.882 89.9641L145.594 90.7352C145.319 91.4635 144.982 92.2224 144.627 93.0608L144.297 93.8075L148.22 101.304C148.239 101.33 148.25 101.361 148.25 101.393C148.25 101.425 148.239 101.456 148.22 101.482L130.545 119.163C130.508 119.194 130.459 119.209 130.411 119.205H130.405ZM77.2401 119.205C77.1996 119.204 77.1607 119.189 77.13 119.163L59.4554 101.482C59.4378 101.456 59.4284 101.425 59.4284 101.393C59.4284 101.362 59.4378 101.331 59.4554 101.304L63.4151 93.7401C63.4346 93.7045 63.467 93.6776 63.5057 93.6651C63.5444 93.6525 63.5864 93.6553 63.6231 93.6728C63.6409 93.6824 63.6565 93.6954 63.6692 93.7111C63.6818 93.7268 63.6913 93.7448 63.697 93.7641C63.7027 93.7835 63.7045 93.8037 63.7023 93.8238C63.7001 93.8438 63.694 93.8632 63.6843 93.8809L59.7798 101.347L77.3748 118.942C77.3896 118.957 77.4014 118.974 77.4094 118.993C77.4175 119.012 77.4216 119.032 77.4216 119.052C77.4216 119.073 77.4175 119.093 77.4094 119.112C77.4014 119.131 77.3896 119.148 77.3748 119.163C77.3574 119.178 77.337 119.19 77.3149 119.197C77.2928 119.205 77.2695 119.207 77.2463 119.205H77.2401ZM87.6441 116.458H87.5891C86.9771 116.219 86.31 115.937 85.5695 115.607C85.5478 115.601 85.5276 115.591 85.5102 115.577C85.4928 115.563 85.4788 115.546 85.469 115.526C85.4592 115.505 85.4539 115.484 85.4535 115.461C85.4531 115.439 85.4576 115.417 85.4666 115.396C85.4757 115.376 85.4891 115.358 85.506 115.343C85.5228 115.328 85.5427 115.318 85.5641 115.311C85.5856 115.305 85.6082 115.304 85.6302 115.307C85.6523 115.311 85.6733 115.319 85.6919 115.331C86.4263 115.656 87.0811 115.944 87.6992 116.17C87.7183 116.177 87.7357 116.188 87.7504 116.203C87.765 116.217 87.7767 116.234 87.7847 116.253C87.7927 116.272 87.7968 116.292 87.7969 116.312C87.7969 116.333 87.7928 116.353 87.7849 116.372C87.772 116.401 87.7501 116.425 87.7226 116.44C87.695 116.456 87.6632 116.462 87.6319 116.458H87.6441ZM103.838 97.3999C97.8395 97.3885 92.0909 94.9978 87.8536 90.7525C83.6163 86.5072 81.2365 80.754 81.2365 74.7559C81.2365 74.7153 81.2526 74.6764 81.2813 74.6477C81.31 74.619 81.3489 74.6029 81.3895 74.6029C81.4301 74.6029 81.469 74.619 81.4977 74.6477C81.5264 74.6764 81.5425 74.7153 81.5425 74.7559C81.5425 79.1655 82.8501 83.476 85.2999 87.1424C87.7497 90.8088 91.2318 93.6665 95.3057 95.3539C99.3796 97.0414 103.862 97.4829 108.187 96.6227C112.512 95.7624 116.485 93.639 119.603 90.521C122.721 87.4029 124.844 83.4303 125.704 79.1055C126.565 74.7806 126.123 70.2978 124.436 66.2239C122.748 62.15 119.891 58.668 116.224 56.2181C112.558 53.7683 108.247 52.4607 103.838 52.4607C103.797 52.4607 103.758 52.4446 103.729 52.4159C103.701 52.3872 103.685 52.3483 103.685 52.3077C103.685 52.2672 103.701 52.2282 103.729 52.1996C103.758 52.1709 103.797 52.1547 103.838 52.1547C109.833 52.1547 115.584 54.5366 119.823 58.7763C124.063 63.0159 126.445 68.7662 126.445 74.762C126.445 80.7578 124.063 86.5081 119.823 90.7478C115.584 94.9875 109.833 97.3693 103.838 97.3693V97.3999ZM62.2217 90.8331C62.1897 90.8319 62.1589 90.8213 62.1328 90.8029C62.1067 90.7844 62.0866 90.7588 62.0748 90.7291L61.7871 89.9641L53.7026 87.4365C53.672 87.4262 53.6454 87.4064 53.6267 87.38C53.608 87.3536 53.5982 87.322 53.5986 87.2897V62.2895C53.5991 62.2573 53.6093 62.2261 53.6278 62.1999C53.6464 62.1737 53.6725 62.1537 53.7026 62.1426L61.4322 59.7313C61.4712 59.7195 61.5132 59.723 61.5496 59.7412C61.5861 59.7594 61.6141 59.7909 61.628 59.8292C61.6381 59.8689 61.633 59.911 61.6137 59.9472C61.5945 59.9834 61.5625 60.0111 61.524 60.0251L53.8862 62.4241V87.1979L61.934 89.7132C61.9556 89.72 61.9752 89.7319 61.9911 89.7479C62.0071 89.7638 62.019 89.7834 62.0258 89.805L62.3441 90.6434C62.3582 90.6808 62.3571 90.7222 62.3411 90.7588C62.3251 90.7954 62.2954 90.8243 62.2584 90.8393L62.2217 90.8331ZM62.2217 59.0091H62.1666C62.1291 58.9929 62.0993 58.9629 62.0834 58.9253C62.0674 58.8877 62.0665 58.8454 62.0809 58.8072C62.3747 58.0238 62.6929 57.2772 63.0295 56.5183C63.0468 56.482 63.0776 56.4539 63.1154 56.4402C63.1532 56.4264 63.1949 56.4281 63.2315 56.4449C63.25 56.4528 63.2668 56.4644 63.2808 56.4789C63.2948 56.4934 63.3059 56.5105 63.3133 56.5293C63.3207 56.5481 63.3243 56.5681 63.3239 56.5883C63.3235 56.6084 63.3191 56.6283 63.311 56.6468C62.9683 57.3935 62.6623 58.1401 62.3685 58.9173C62.3578 58.9506 62.3364 58.9795 62.3077 58.9994C62.2789 59.0193 62.2444 59.0292 62.2094 59.0275L62.2217 59.0091ZM144.346 55.5146H144.272C144.255 55.505 144.239 55.492 144.226 55.4763C144.214 55.4607 144.204 55.4426 144.199 55.4233C144.193 55.404 144.191 55.3837 144.193 55.3637C144.196 55.3436 144.202 55.3242 144.211 55.3065L147.883 48.2379L144.946 45.2881C144.928 45.2749 144.914 45.2582 144.903 45.2389C144.893 45.2197 144.886 45.1984 144.885 45.1765C144.883 45.1547 144.886 45.1327 144.894 45.1122C144.902 45.0917 144.914 45.073 144.929 45.0575C144.945 45.042 144.963 45.03 144.984 45.0224C145.005 45.0147 145.026 45.0115 145.048 45.0131C145.07 45.0146 145.091 45.0209 145.111 45.0314C145.13 45.0419 145.147 45.0564 145.16 45.0739L148.22 48.1339C148.239 48.1594 148.25 48.1906 148.25 48.2226C148.25 48.2547 148.239 48.2858 148.22 48.3114L144.468 55.4779C144.452 55.4975 144.431 55.5129 144.408 55.5225C144.384 55.5321 144.359 55.5357 144.334 55.533L144.346 55.5146ZM59.5656 48.3481C59.5247 48.3485 59.4853 48.3331 59.4554 48.3053C59.4288 48.276 59.414 48.2378 59.414 48.1982C59.414 48.1585 59.4288 48.1204 59.4554 48.0911L77.1116 30.4226C77.1367 30.4022 77.168 30.3911 77.2004 30.3911C77.2327 30.3911 77.264 30.4022 77.2891 30.4226L84.7861 34.3455L85.5327 34.0151C86.2549 33.6907 86.9159 33.4031 87.5523 33.1644C87.5712 33.1565 87.5914 33.1524 87.6119 33.1524C87.6324 33.1524 87.6526 33.1566 87.6714 33.1646C87.6903 33.1726 87.7073 33.1842 87.7215 33.1989C87.7358 33.2136 87.7469 33.231 87.7543 33.2501C87.7681 33.2882 87.7662 33.3303 87.7489 33.367C87.7317 33.4037 87.7006 33.4321 87.6625 33.4459C87.0505 33.6968 86.3773 33.9722 85.6613 34.2905L84.8473 34.6577C84.826 34.6667 84.8031 34.6714 84.78 34.6714C84.7568 34.6714 84.7339 34.6667 84.7127 34.6577L77.2463 30.747L59.6757 48.3481C59.6404 48.3624 59.6009 48.3624 59.5656 48.3481ZM142.504 42.7667C142.463 42.7671 142.424 42.7517 142.394 42.7238L130.356 30.7164L122.889 34.6271C122.869 34.6378 122.847 34.6434 122.825 34.6434C122.803 34.6434 122.78 34.6378 122.761 34.6271L121.947 34.2599C121.108 33.8865 120.349 33.5744 119.633 33.299L118.795 32.9869C118.773 32.9783 118.754 32.965 118.738 32.9481C118.722 32.9312 118.71 32.911 118.703 32.889L116.188 24.8473H91.4385L89.2721 31.769C89.2665 31.7882 89.2571 31.8061 89.2444 31.8215C89.2318 31.837 89.2161 31.8497 89.1983 31.8588C89.1805 31.868 89.1611 31.8735 89.1412 31.8749C89.1212 31.8762 89.1012 31.8736 89.0823 31.8669C89.0445 31.8543 89.0131 31.8274 88.9948 31.792C88.9765 31.7565 88.9728 31.7154 88.9844 31.6772L91.1876 24.6515C91.198 24.6208 91.2178 24.5942 91.2441 24.5756C91.2705 24.5569 91.3022 24.547 91.3345 24.5474H116.335C116.367 24.5479 116.398 24.5581 116.424 24.5767C116.45 24.5952 116.47 24.6213 116.482 24.6515L119.003 32.7299L119.774 33.0236C120.496 33.2929 121.255 33.6356 122.1 33.9906L122.846 34.3211L130.356 30.3981C130.381 30.3788 130.412 30.3683 130.444 30.3683C130.476 30.3683 130.508 30.3788 130.533 30.3981L142.596 42.5157C142.61 42.53 142.622 42.5471 142.63 42.5661C142.638 42.585 142.642 42.6053 142.642 42.6259C142.642 42.6465 142.638 42.6668 142.63 42.6858C142.622 42.7047 142.61 42.7218 142.596 42.7361C142.571 42.76 142.538 42.775 142.504 42.7789V42.7667Z" fill="#FAFAFA"/>
<path d="M191.764 79.7982C193.68 82.2462 195.473 84.6942 197.223 87.2218C198.974 89.7493 200.638 92.332 202.211 95.0248C202.609 95.6919 202.989 96.3895 203.374 97.075C203.93 98.1135 204.258 99.2592 204.335 100.435C204.435 102.219 204.262 104.009 203.821 105.741C203.059 108.855 201.903 111.86 200.381 114.682L197.23 113.458C197.855 110.633 198.307 107.771 198.582 104.89C198.704 103.646 198.663 102.391 198.46 101.157C198.41 100.814 198.282 100.488 198.086 100.202C197.682 99.5903 197.291 98.9783 196.862 98.3663C195.204 95.9183 193.447 93.5254 191.679 91.1202L186.36 83.9109L191.764 79.7982Z" fill="#FF8B7B"/>
<path d="M197.009 113.104L195.381 116.017L201.061 116.855C201.061 116.855 201.673 114.407 200.247 112.718L197.009 113.104Z" fill="#FF8B7B"/>
<path d="M194.525 119.89L199.255 120.368L201.061 116.855L195.381 116.016L194.525 119.89Z" fill="#FF8B7B"/>
<path d="M209.916 137.272L211.605 128.282C211.801 127.239 212.403 126.316 213.278 125.716C214.153 125.116 215.231 124.888 216.274 125.081L230.454 127.737C229.608 124.904 228.104 122.311 226.064 120.171C224.024 118.031 221.507 116.404 218.718 115.422C215.929 114.441 212.947 114.134 210.016 114.525C207.086 114.917 204.289 115.997 201.856 117.676L137.522 79.5972C137.856 75.5713 136.881 71.5452 134.741 68.1189C132.6 64.6927 129.41 62.0498 125.646 60.5842C121.881 59.1185 117.744 58.9087 113.85 59.9858C109.957 61.063 106.516 63.3695 104.04 66.5616L118.22 69.2177C119.261 69.4182 120.181 70.022 120.78 70.8978C121.378 71.7735 121.606 72.8502 121.414 73.8934L119.725 82.8898C119.528 83.932 118.926 84.8536 118.051 85.4533C117.176 86.0531 116.099 86.2821 115.056 86.0906L100.876 83.4284C101.725 86.2787 103.241 88.8858 105.298 91.0342C107.355 93.1827 109.894 94.8106 112.704 95.7836C115.515 96.7565 118.517 97.0465 121.461 96.6295C124.406 96.2126 127.21 95.1006 129.64 93.3856L193.845 131.391C193.474 135.425 194.421 139.471 196.544 142.922C198.667 146.373 201.851 149.043 205.619 150.532C209.386 152.021 213.535 152.248 217.444 151.181C221.352 150.113 224.809 147.808 227.297 144.61L213.117 141.948C212.074 141.749 211.152 141.145 210.553 140.27C209.953 139.394 209.724 138.316 209.916 137.272Z" fill="#FF9933"/>
<path d="M193.893 117.444L141.732 86.5718C140.783 86.0106 139.56 86.3243 138.998 87.2726L136.873 90.8644C136.311 91.8127 136.625 93.0363 137.573 93.5975L189.734 124.47C190.682 125.031 191.906 124.718 192.467 123.769L194.593 120.177C195.154 119.229 194.841 118.006 193.893 117.444Z" fill="#FF9933"/>
<path opacity="0.2" d="M193.893 117.444L141.732 86.5718C140.783 86.0106 139.56 86.3243 138.998 87.2726L136.873 90.8644C136.311 91.8127 136.625 93.0363 137.573 93.5975L189.734 124.47C190.682 125.031 191.906 124.718 192.467 123.769L194.593 120.177C195.154 119.229 194.841 118.006 193.893 117.444Z" fill="#FAFAF0"/>
<path d="M169.977 60.7772C169.915 61.1383 169.683 61.3892 169.45 61.3892C169.218 61.3892 169.071 61.0281 169.126 60.6731C169.181 60.3182 169.42 60.0611 169.652 60.0917C169.885 60.1223 170.032 60.4222 169.977 60.7772Z" fill="#263238"/>
<path d="M169.714 61.4016C169.115 62.4299 168.378 63.3709 167.523 64.1984C167.739 64.4154 168 64.5826 168.288 64.6883C168.575 64.794 168.882 64.8357 169.188 64.8104L169.714 61.4016Z" fill="#FF5652"/>
<path d="M171.586 58.9964C171.559 58.9966 171.532 58.9914 171.507 58.9808C171.481 58.9703 171.459 58.9548 171.44 58.9352C171.255 58.7414 171.028 58.5943 170.776 58.506C170.523 58.4176 170.254 58.3906 169.989 58.4272C169.961 58.4335 169.933 58.4342 169.905 58.4293C169.877 58.4243 169.85 58.4139 169.826 58.3985C169.802 58.3831 169.781 58.3631 169.765 58.3397C169.749 58.3162 169.738 58.2898 169.732 58.262C169.726 58.2346 169.725 58.2063 169.73 58.1786C169.735 58.151 169.746 58.1247 169.761 58.1012C169.777 58.0778 169.797 58.0577 169.82 58.0422C169.843 58.0267 169.87 58.0161 169.897 58.011C170.23 57.9583 170.571 57.9863 170.89 58.0928C171.21 58.1994 171.499 58.3812 171.733 58.623C171.772 58.6648 171.793 58.7194 171.793 58.776C171.793 58.8327 171.772 58.8873 171.733 58.929C171.694 58.9679 171.642 58.9917 171.586 58.9964Z" fill="#263238"/>
<path d="M181.929 64.7249C181.317 68.0174 180.643 74.0456 182.945 76.2366C182.945 76.2366 182.045 79.572 175.931 79.572C169.199 79.572 172.718 76.2366 172.718 76.2366C176.39 75.3614 176.292 72.638 175.656 70.1166L181.929 64.7249Z" fill="#FF8B7B"/>
<path d="M186.049 78.7089C185.974 78.6006 185.918 78.4806 185.883 78.3539C185.369 76.4016 183.209 74.8777 180.406 74.7982C177.45 74.7247 174.115 75.0797 172.144 76.7076C171.275 77.4237 172.236 78.4702 172.236 78.4702L186.049 78.7089Z" fill="#FF9933"/>
<path opacity="0.5" d="M186.049 78.7089C185.974 78.6006 185.918 78.4806 185.883 78.3539C185.369 76.4016 183.209 74.8777 180.406 74.7982C177.45 74.7247 174.115 75.0797 172.144 76.7076C171.275 77.4237 172.236 78.4702 172.236 78.4702L186.049 78.7089Z" fill="#FAFAF0"/>
<path d="M207.657 201.855H207.614C207.524 201.843 207.441 201.803 207.375 201.74C207.309 201.677 207.264 201.596 207.247 201.507C207.226 201.437 207.22 201.364 207.229 201.292C207.239 201.221 207.264 201.152 207.302 201.09C207.645 200.509 209.138 200.203 209.181 200.191C209.202 200.187 209.223 200.189 209.242 200.196C209.262 200.204 209.279 200.217 209.291 200.234C209.301 200.251 209.307 200.271 209.307 200.292C209.307 200.312 209.301 200.332 209.291 200.35C209.065 200.735 208.226 201.855 207.657 201.855ZM208.973 200.454C208.483 200.582 207.688 200.846 207.486 201.194C207.467 201.231 207.456 201.272 207.456 201.314C207.456 201.355 207.467 201.396 207.486 201.433C207.541 201.623 207.639 201.635 207.663 201.641C207.939 201.678 208.587 201.017 208.973 200.454Z" fill="#FF9933"/>
<path d="M208.471 200.479C207.914 200.479 207.29 200.375 207.1 200.106C207.056 200.039 207.035 199.959 207.042 199.879C207.048 199.799 207.082 199.724 207.137 199.665C207.187 199.601 207.249 199.548 207.319 199.508C207.389 199.468 207.467 199.442 207.547 199.433C208.22 199.359 209.23 200.173 209.273 200.21C209.289 200.222 209.301 200.238 209.307 200.256C209.314 200.274 209.316 200.294 209.312 200.313C209.308 200.332 209.299 200.35 209.286 200.364C209.272 200.378 209.255 200.389 209.236 200.393C208.986 200.457 208.729 200.486 208.471 200.479ZM207.651 199.641H207.572C207.52 199.644 207.469 199.659 207.423 199.684C207.378 199.71 207.339 199.745 207.309 199.788C207.223 199.898 207.26 199.953 207.278 199.971C207.449 200.222 208.386 200.32 208.955 200.228C208.578 199.924 208.129 199.722 207.651 199.641Z" fill="#FF9933"/>
<path d="M163.208 216.715C162.633 216.715 162.076 216.636 161.887 216.379C161.839 216.311 161.813 216.229 161.813 216.146C161.813 216.063 161.839 215.982 161.887 215.914C161.924 215.851 161.974 215.797 162.032 215.753C162.091 215.71 162.158 215.679 162.229 215.663C162.976 215.461 164.549 216.354 164.616 216.397C164.635 216.408 164.649 216.425 164.658 216.444C164.667 216.464 164.669 216.486 164.665 216.507C164.661 216.528 164.65 216.548 164.635 216.563C164.62 216.578 164.6 216.589 164.579 216.593C164.127 216.672 163.668 216.713 163.208 216.715ZM162.492 215.846C162.425 215.837 162.357 215.837 162.29 215.846C162.247 215.855 162.207 215.872 162.171 215.898C162.135 215.923 162.105 215.955 162.082 215.993C162.003 216.128 162.033 216.195 162.082 216.232C162.29 216.52 163.429 216.526 164.267 216.409C163.718 216.108 163.115 215.917 162.492 215.846Z" fill="#FF9933"/>
<path d="M164.567 216.593H164.524C163.98 216.348 162.902 215.369 162.988 214.867C162.988 214.744 163.092 214.597 163.386 214.567C163.495 214.554 163.606 214.563 163.711 214.595C163.817 214.626 163.914 214.679 163.998 214.75C164.573 215.222 164.69 216.433 164.696 216.482C164.698 216.501 164.695 216.52 164.688 216.537C164.68 216.555 164.668 216.569 164.653 216.58C164.627 216.595 164.596 216.6 164.567 216.593ZM163.472 214.757H163.404C163.215 214.757 163.202 214.848 163.196 214.873C163.147 215.179 163.882 215.944 164.42 216.274C164.364 215.761 164.15 215.278 163.808 214.891C163.712 214.815 163.594 214.772 163.472 214.769V214.757Z" fill="#FF9933"/>
<path d="M169.512 216.489H165.014L164.567 206.079H169.065L169.512 216.489Z" fill="#FF8B7B"/>
<path d="M213.227 197.095L209.579 199.726L200.974 193.092L204.622 190.467L213.227 197.095Z" fill="#FF8B7B"/>
<path d="M209.059 199.69L212.56 196.018C212.621 195.953 212.703 195.912 212.791 195.901C212.879 195.89 212.968 195.91 213.043 195.957L216.544 198.08C216.628 198.133 216.699 198.204 216.752 198.288C216.805 198.372 216.838 198.467 216.85 198.565C216.862 198.664 216.851 198.764 216.819 198.857C216.788 198.951 216.735 199.037 216.666 199.108C215.442 200.363 214.751 200.908 213.215 202.511C212.266 203.496 209.696 206.96 208.386 208.325C207.076 209.69 205.565 208.57 205.975 207.897C207.811 204.873 208.704 201.875 208.753 200.381C208.771 200.122 208.879 199.877 209.059 199.69Z" fill="#263238"/>
<path d="M165.044 215.969H169.94C170.03 215.968 170.117 215.998 170.187 216.054C170.257 216.11 170.306 216.188 170.326 216.275L171.213 220.272C171.234 220.368 171.233 220.468 171.21 220.564C171.188 220.66 171.143 220.75 171.081 220.826C171.019 220.903 170.94 220.964 170.85 221.006C170.761 221.048 170.663 221.069 170.564 221.067C168.796 221.067 166.237 220.939 164.01 220.939C161.403 220.939 159.157 221.079 156.103 221.079C154.267 221.079 153.746 219.213 154.518 219.042C158.037 218.277 160.907 218.191 163.949 216.318C164.274 216.102 164.653 215.981 165.044 215.969Z" fill="#263238"/>
<path d="M185.473 85.7288C186.085 86.861 186.777 87.9565 187.444 88.9785C188.594 90.7472 189.708 92.2772 190.504 93.3299C191.22 94.2785 191.679 94.8354 191.679 94.8354L200.736 88.6603C200.736 88.6603 195.228 77.9381 190.987 77.2526C186.624 76.5611 182.627 80.6492 185.473 85.7288Z" fill="#FF9933"/>
<path opacity="0.5" d="M185.473 85.7288C186.085 86.861 186.777 87.9565 187.444 88.9785C188.594 90.7472 189.708 92.2772 190.504 93.3299C191.22 94.2785 191.679 94.8354 191.679 94.8354L200.736 88.6603C200.736 88.6603 195.228 77.9381 190.987 77.2526C186.624 76.5611 182.627 80.6492 185.473 85.7288Z" fill="black"/>
<path d="M187.444 88.9785C188.594 90.7472 189.708 92.2772 190.504 93.3299C190.412 91.2246 189.977 87.8219 188.343 85.227C187.75 85.8145 187.511 87.3323 187.444 88.9785Z" fill="#FF9933"/>
<path opacity="0.6" d="M187.444 88.9785C188.594 90.7472 189.708 92.2772 190.504 93.3299C190.412 91.2246 189.977 87.8219 188.343 85.227C187.75 85.8145 187.511 87.3323 187.444 88.9785Z" fill="black"/>
<path d="M163.594 92.1431C163.594 93.6731 163.63 95.3561 163.716 97.2105C163.936 102.253 164.487 108.539 165.552 116.348H189.597C189.763 112.676 187.443 94.6462 191.005 77.2532C188.345 76.7416 185.655 76.4023 182.951 76.2373C179.547 76.0413 176.135 76.0413 172.731 76.2373C170.398 76.4679 168.086 76.8771 165.815 77.4613C165.815 77.4613 163.587 79.9888 163.594 92.1431Z" fill="#FF9933"/>
<path opacity="0.5" d="M163.594 92.1431C163.594 93.6731 163.63 95.3561 163.716 97.2105C163.936 102.253 164.487 108.539 165.552 116.348H189.597C189.763 112.676 187.443 94.6462 191.005 77.2532C188.345 76.7416 185.655 76.4023 182.951 76.2373C179.547 76.0413 176.135 76.0413 172.731 76.2373C170.398 76.4679 168.086 76.8771 165.815 77.4613C165.815 77.4613 163.587 79.9888 163.594 92.1431Z" fill="black"/>
<path d="M163.594 92.1425C163.594 93.6725 163.63 95.3555 163.716 97.2099C166.537 94.4559 166.727 88.8316 166.727 88.8316L163.594 92.1425Z" fill="#FF9933"/>
<path opacity="0.6" d="M163.594 92.1425C163.594 93.6725 163.63 95.3555 163.716 97.2099C166.537 94.4559 166.727 88.8316 166.727 88.8316L163.594 92.1425Z" fill="black"/>
<path d="M168.605 85.1593C168.143 85.9333 167.632 86.6773 167.075 87.3869C166.568 88.0479 166.06 88.6721 165.539 89.2903C164.505 90.5143 163.397 91.6954 162.271 92.8399C159.964 95.1823 157.409 97.2671 154.652 99.0578C153.91 99.5221 153.144 99.947 152.357 100.331L152.045 100.478L151.892 100.551L151.702 100.631C151.4 100.758 151.089 100.865 150.772 100.949L150.325 101.065L149.897 101.139C149.623 101.186 149.347 101.217 149.07 101.23C147.228 101.291 145.39 101.032 143.636 100.465C140.536 99.5009 137.581 98.1194 134.854 96.3589L136.304 93.2989C139.087 94.132 141.923 94.7781 144.793 95.2328C146.007 95.4367 147.245 95.4532 148.465 95.2818C148.569 95.2648 148.671 95.2381 148.771 95.2022L148.905 95.1655L149.003 95.1226C149.083 95.1226 149.101 95.0614 149.15 95.0431L149.517 94.8289C150.081 94.5014 150.626 94.1438 151.151 93.7579C153.41 92.0585 155.509 90.1576 157.424 88.0785C158.422 87.032 159.383 85.9365 160.319 84.8471C160.784 84.2963 161.237 83.7455 161.659 83.1886C162.082 82.6317 162.516 82.0625 162.767 81.6709L168.605 85.1593Z" fill="#FF8B7B"/>
<path d="M136.966 94.1257L133.979 90.576L131.948 95.7658C131.948 95.7658 134.524 96.9898 136.531 96.2799L136.966 94.1257Z" fill="#FF8B7B"/>
<path d="M129.597 89.799L128.765 93.9423L131.947 95.7599L133.979 90.5701L129.597 89.799Z" fill="#FF8B7B"/>
<path d="M172.211 82.7242C171.678 87.0082 161.96 96.0352 161.96 96.0352L153.208 89.0952C155.408 85.8434 157.979 82.8592 160.87 80.2028C167.211 74.707 172.853 77.6079 172.211 82.7242Z" fill="#FF9933"/>
<path opacity="0.5" d="M172.211 82.7242C171.678 87.0082 161.96 96.0352 161.96 96.0352L153.208 89.0952C155.408 85.8434 157.979 82.8592 160.87 80.2028C167.211 74.707 172.853 77.6079 172.211 82.7242Z" fill="black"/>
<path d="M164.628 111.641C173.361 111.641 175.356 101.763 175.815 97.5223C174.713 90.3495 172.157 83.4772 168.306 77.3263C168.259 77.251 168.23 77.1653 168.224 77.0766C168.217 76.9879 168.232 76.899 168.268 76.8174C168.303 76.7359 168.358 76.6644 168.428 76.6091C168.498 76.5537 168.58 76.5163 168.667 76.5001L170.583 76.1451C170.692 76.1272 170.804 76.1414 170.905 76.1859C171.006 76.2305 171.092 76.3035 171.152 76.396C176.409 84.811 178.129 91.9469 178.686 95.6189H180.252C181.856 92.1305 185.387 84.1807 185.1 76.7326C185.094 76.6528 185.107 76.5727 185.136 76.4983C185.166 76.4239 185.211 76.357 185.27 76.3025C185.329 76.2479 185.399 76.2072 185.475 76.1831C185.551 76.1591 185.632 76.1524 185.712 76.1635L187.768 76.3654C187.9 76.3743 188.024 76.4317 188.117 76.5266C188.21 76.6214 188.264 76.7471 188.27 76.8795C188.57 84.0583 184.512 94.0155 182.951 97.1795C183.484 108.893 190.002 110.919 190.002 110.919C190.162 113.832 190.033 116.753 189.616 119.64C175.815 121.88 168.937 120.515 165.001 118.887C165.307 115.943 164.757 113.881 164.628 111.641Z" fill="#FF9933"/>
<path opacity="0.3" d="M164.628 111.641C173.361 111.641 175.356 101.763 175.815 97.5223C174.713 90.3495 172.157 83.4772 168.306 77.3263C168.259 77.251 168.23 77.1653 168.224 77.0766C168.217 76.9879 168.232 76.899 168.268 76.8174C168.303 76.7359 168.358 76.6644 168.428 76.6091C168.498 76.5537 168.58 76.5163 168.667 76.5001L170.583 76.1451C170.692 76.1272 170.804 76.1414 170.905 76.1859C171.006 76.2305 171.092 76.3035 171.152 76.396C176.409 84.811 178.129 91.9469 178.686 95.6189H180.252C181.856 92.1305 185.387 84.1807 185.1 76.7326C185.094 76.6528 185.107 76.5727 185.136 76.4983C185.166 76.4239 185.211 76.357 185.27 76.3025C185.329 76.2479 185.399 76.2072 185.475 76.1831C185.551 76.1591 185.632 76.1524 185.712 76.1635L187.768 76.3654C187.9 76.3743 188.024 76.4317 188.117 76.5266C188.21 76.6214 188.264 76.7471 188.27 76.8795C188.57 84.0583 184.512 94.0155 182.951 97.1795C183.484 108.893 190.002 110.919 190.002 110.919C190.162 113.832 190.033 116.753 189.616 119.64C175.815 121.88 168.937 120.515 165.001 118.887C165.307 115.943 164.757 113.881 164.628 111.641Z" fill="black"/>
<path d="M164.567 206.079L164.8 211.447H169.298L169.065 206.079H164.567Z" fill="#FF5652"/>
<path d="M204.628 190.467L200.981 193.098L205.418 196.513L209.065 193.882L204.628 190.467Z" fill="#FF5652"/>
<path d="M182.046 61.8914C181.085 66.2488 180.742 68.8498 178.166 70.7593C174.292 73.6357 169.175 70.7593 168.814 66.2121C168.49 62.1117 170.112 55.6735 174.696 54.5841C175.705 54.3507 176.756 54.377 177.752 54.6608C178.748 54.9445 179.656 55.4763 180.39 56.2065C181.125 56.9366 181.662 57.8411 181.951 58.8354C182.241 59.8296 182.273 60.8811 182.046 61.8914Z" fill="#FF8B7B"/>
<path d="M185.931 55.1287C189.756 55.2327 188.183 57.2462 186.268 58.3539C186.268 58.3539 188.477 59.4127 187.339 61.9402C185.613 65.7775 182.308 69.9941 178.936 69.7616C174.738 69.4739 173.544 64.9084 173.697 60.4041C171.482 58.3172 171.109 57.1666 170.766 54.6574C170.074 49.6819 173.196 46.9462 185.931 55.1287Z" fill="#263238"/>
<path d="M181.005 46.7445C183.624 47.4162 185.868 49.1003 187.245 51.4266C188.623 53.7529 189.02 56.5309 188.349 59.1498L168.588 54.1069C168.919 52.8077 169.503 51.5866 170.306 50.5133C171.11 49.44 172.117 48.5357 173.27 47.8519C174.424 47.1681 175.7 46.7184 177.027 46.5284C178.355 46.3384 179.706 46.4118 181.005 46.7445Z" fill="#FF9933"/>
<path opacity="0.5" d="M181.005 46.7445C183.624 47.4162 185.868 49.1003 187.245 51.4266C188.623 53.7529 189.02 56.5309 188.349 59.1498L168.588 54.1069C168.919 52.8077 169.503 51.5866 170.306 50.5133C171.11 49.44 172.117 48.5357 173.27 47.8519C174.424 47.1681 175.7 46.7184 177.027 46.5284C178.355 46.3384 179.706 46.4118 181.005 46.7445Z" fill="#FAFAF0"/>
<path d="M184.91 59.1614C184.773 59.1634 184.638 59.1336 184.515 59.0744C184.392 59.0151 184.284 58.928 184.2 58.82C184.117 58.7119 184.059 58.5859 184.032 58.4519C184.006 58.3178 184.011 58.1794 184.047 58.0476C184.322 56.9361 184.36 55.7792 184.158 54.6521C183.957 53.525 183.521 52.4529 182.878 51.5053C181.503 49.4362 179.399 47.9612 176.984 47.3743C176.755 47.3159 176.558 47.1686 176.437 46.9649C176.316 46.7612 176.28 46.5177 176.339 46.288C176.397 46.0584 176.544 45.8613 176.748 45.7402C176.952 45.6191 177.195 45.5839 177.425 45.6424C180.274 46.3423 182.754 48.0906 184.371 50.5384C185.15 51.692 185.677 52.9963 185.92 54.3669C186.162 55.7374 186.114 57.1436 185.779 58.4944C185.729 58.6862 185.616 58.8559 185.459 58.9767C185.301 59.0975 185.108 59.1625 184.91 59.1614Z" fill="#FF9933"/>
<path opacity="0.3" d="M184.91 59.1614C184.773 59.1634 184.638 59.1336 184.515 59.0744C184.392 59.0151 184.284 58.928 184.2 58.82C184.117 58.7119 184.059 58.5859 184.032 58.4519C184.006 58.3178 184.011 58.1794 184.047 58.0476C184.322 56.9361 184.36 55.7792 184.158 54.6521C183.957 53.525 183.521 52.4529 182.878 51.5053C181.503 49.4362 179.399 47.9612 176.984 47.3743C176.755 47.3159 176.558 47.1686 176.437 46.9649C176.316 46.7612 176.28 46.5177 176.339 46.288C176.397 46.0584 176.544 45.8613 176.748 45.7402C176.952 45.6191 177.195 45.5839 177.425 45.6424C180.274 46.3423 182.754 48.0906 184.371 50.5384C185.15 51.692 185.677 52.9963 185.92 54.3669C186.162 55.7374 186.114 57.1436 185.779 58.4944C185.729 58.6862 185.616 58.8559 185.459 58.9767C185.301 59.0975 185.108 59.1625 184.91 59.1614Z" fill="#FAFAF0"/>
<path d="M165.851 54.37L189.107 60.3064C189.349 60.3677 189.605 60.3306 189.82 60.2033C190.034 60.0759 190.19 59.8687 190.252 59.6271C190.313 59.3845 190.276 59.1274 190.149 58.9119C190.022 58.6964 189.815 58.5399 189.572 58.4765L166.316 52.5401C166.073 52.4789 165.815 52.5166 165.599 52.6451C165.384 52.7736 165.228 52.9823 165.166 53.2256C165.136 53.3457 165.129 53.4707 165.147 53.5932C165.166 53.7158 165.208 53.8336 165.271 53.9399C165.335 54.0462 165.419 54.1389 165.518 54.2127C165.618 54.2865 165.731 54.34 165.851 54.37Z" fill="#FF9933"/>
<path opacity="0.3" d="M165.851 54.37L189.107 60.3064C189.349 60.3677 189.605 60.3306 189.82 60.2033C190.034 60.0759 190.19 59.8687 190.252 59.6271C190.313 59.3845 190.276 59.1274 190.149 58.9119C190.022 58.6964 189.815 58.5399 189.572 58.4765L166.316 52.5401C166.073 52.4789 165.815 52.5166 165.599 52.6451C165.384 52.7736 165.228 52.9823 165.166 53.2256C165.136 53.3457 165.129 53.4707 165.147 53.5932C165.166 53.7158 165.208 53.8336 165.271 53.9399C165.335 54.0462 165.419 54.1389 165.518 54.2127C165.618 54.2865 165.731 54.34 165.851 54.37Z" fill="#FAFAF0"/>
<path d="M175.992 61.4818C175.878 62.5846 175.4 63.6181 174.634 64.4193C173.618 65.4659 172.614 64.7621 172.486 63.4401C172.369 62.2529 172.761 60.2761 173.979 59.7253C175.197 59.1745 176.121 60.1537 175.992 61.4818Z" fill="#FF8B7B"/>
<path d="M174.071 116.347C174.071 116.347 173.55 148.343 177.571 160.889C183.942 180.76 203.184 196.856 203.184 196.856L210.062 191.893C210.062 191.893 194.04 178.294 191.103 161.568C188.465 146.531 189.585 128.643 189.585 116.36L174.071 116.347Z" fill="#FF9933"/>
<path opacity="0.3" d="M174.071 116.347C174.071 116.347 173.55 148.343 177.571 160.889C183.942 180.76 203.184 196.856 203.184 196.856L210.062 191.893C210.062 191.893 194.04 178.294 191.103 161.568C188.465 146.531 189.585 128.643 189.585 116.36L174.071 116.347Z" fill="black"/>
<path d="M178.557 121.843C179.407 127.608 176.403 143.661 175.362 148.918C174.273 139.089 174.071 127.43 174.052 121.066C176.256 119.572 178.165 119.187 178.557 121.843Z" fill="#FF9933"/>
<path opacity="0.4" d="M178.557 121.843C179.407 127.608 176.403 143.661 175.362 148.918C174.273 139.089 174.071 127.43 174.052 121.066C176.256 119.572 178.165 119.187 178.557 121.843Z" fill="black"/>
<path d="M200.24 195.406C200.209 195.406 203.067 197.089 203.067 197.089L210.577 191.666L208.08 189.751L200.24 195.406Z" fill="#FF9933"/>
<path opacity="0.4" d="M200.24 195.406C200.209 195.406 203.067 197.089 203.067 197.089L210.577 191.666L208.08 189.751L200.24 195.406Z" fill="#FAFAF0"/>
<path d="M165.54 116.347C165.54 116.347 158.765 145.05 158.288 158.759C157.755 174.139 163.123 210.406 163.123 210.406H170.748C170.748 210.406 171.691 173.857 172.027 159.848C172.394 144.579 181.36 116.347 181.36 116.347H165.54Z" fill="#FF9933"/>
<path opacity="0.3" d="M165.54 116.347C165.54 116.347 158.765 145.05 158.288 158.759C157.755 174.139 163.123 210.406 163.123 210.406H170.748C170.748 210.406 171.691 173.857 172.027 159.848C172.394 144.579 181.36 116.347 181.36 116.347H165.54Z" fill="black"/>
<path d="M161.654 207.37C161.623 207.37 162.088 210.534 162.088 210.534H171.36L171.611 207.713L161.654 207.37Z" fill="#FF9933"/>
<path opacity="0.4" d="M161.654 207.37C161.623 207.37 162.088 210.534 162.088 210.534H171.36L171.611 207.713L161.654 207.37Z" fill="#FAFAF0"/>
</svg>
